{
.appVersion = "3134";
.formatVersion = 3;
classes = (
{
code = "A Aacute Abreve Acircumflex Adieresis Agrave Amacron Aogonek Aring Atilde AE B C Cacute Ccaron Ccedilla Cdotaccent D Eth Dcaron Dcroat E Eacute Ecaron Ecircumflex Edieresis Edotaccent Egrave Emacron Eogonek F G Gbreve Gdotaccent H Hbar I Iacute Icircumflex Idieresis Idotaccent Igrave Imacron Iogonek J K L Lacute Lcaron Ldot Lslash M N Nacute Ncaron Ntilde Eng O Oacute Ocircumflex Odieresis Ograve Ohungarumlaut Omacron Oslash Otilde OE P Thorn Q R Racute Rcaron S Sacute Scaron Scedilla T Tbar Tcaron U Uacute Ucircumflex Udieresis Ugrave Uhungarumlaut Umacron Uogonek Uring V W Wacute Wcircumflex Wdieresis Wgrave X Y Yacute Ycircumflex Ydieresis Ygrave Z Zacute Zcaron Zdotaccent A_E A_O C_H C_Q D_E E_A Eacute_E E_S E_U E_T_E F_F_E F_V I_E I_L L_E L_L_E L_U M_P N_A N_E N_N_E O_F O_T_E O_Idieresis P_M R_E R_I_C_E R_S S_E S_L S_S_E S_T_E_S T_E T_T_E U_E U_L_L_E X_C_E X_L X_S_E X_S_S 
";
name = Uppercase;
}
);
customParameters = (
{
name = panose;
value = (
0,
0,
7,
0,
0,
0,
0,
0,
0,
0
);
},
{
name = unicodeRanges;
value = (
0,
1,
2
);
},
{
name = codePageRanges;
value = (
"1252",
"1250",
"1254",
"1257",
"bit 29"
);
},
{
name = blueScale;
value = 0.037;
},
{
name = glyphOrder;
value = (
.notdef,
A,
Aacute,
Abreve,
Acircumflex,
Adieresis,
Agrave,
Amacron,
Aogonek,
Aring,
Atilde,
AE,
B,
C,
Cacute,
Ccaron,
Ccedilla,
Cdotaccent,
D,
Eth,
Dcaron,
Dcroat,
E,
Eacute,
Ecaron,
Ecircumflex,
Edieresis,
Edotaccent,
Egrave,
Emacron,
Eogonek,
F,
G,
Gbreve,
Gcommaaccent,
Gdotaccent,
H,
Hbar,
I,
IJ,
Iacute,
Icircumflex,
Idieresis,
Idotaccent,
Igrave,
Imacron,
Iogonek,
J,
K,
Kcommaaccent,
L,
Lacute,
Lcaron,
Lcommaaccent,
Ldot,
Lslash,
M,
N,
Nacute,
Ncaron,
Ncommaaccent,
Eng,
Ntilde,
O,
Oacute,
Ocircumflex,
Odieresis,
Ograve,
Ohungarumlaut,
Omacron,
Oslash,
Otilde,
OE,
P,
Thorn,
Q,
R,
Racute,
Rcaron,
Rcommaaccent,
S,
Sacute,
Scaron,
Scedilla,
Scommaaccent,
T,
Tbar,
Tcaron,
Tcedilla,
uni021A,
U,
Uacute,
Ucircumflex,
Udieresis,

glyphs = (
{
glyphname = .notdef;
lastChange = "2022-11-29 13:48:59 +0000";
layers = (
{
hints = (
{
horizontal = 1;
place = (0, 50);
place = (0, 50);
type = Stem;
},
{
horizontal = 1;
place = (650, 50);
place = (650, 50);
type = Stem;
},
{
place = (0, 50);
place = (0, 50);
type = Stem;
},
{
place = (450, 50);
place = (450, 50);
type = Stem;
}
);
layerId = m01;
shapes = (
{
closed = 1;
nodes = (
(0,58,ls),
(0,21,o),
(21,0,o),
(58,0,cs),
(442,0,ls),
(479,0,o),
(500,21,o),
(500,58,cs),
(500,642,ls),
(500,679,o),
(479,700,o),
(442,700,cs),
(58,700,ls),
(21,700,o),
(0,679,o),
(0,642,cs)
);
},
{
closed = 1;
nodes = (
(250,395,l),
(80,650,l),
(420,650,l)
);
},
{
closed = 1;
nodes = (
(280,350,l),
(450,605,l),
(450,95,l)
);
},
{
closed = 1;
nodes = (
(80,50,l),
(250,305,l),
(420,50,l)
);
},
{
closed = 1;
nodes = (
(50,605,l),
(220,350,l),
(50,95,l)
);
}
);
width = 500;
}
);
note = ".notdef";
},
{
glyphname = A;
kernLeft = A;
kernRight = A;
lastChange = "2022-11-29 13:48:59 +0000";
layers = (
{
hints = (
{
horizontal = 1;
place = (0, 21);
target = up;
type = BottomGhost;
},
{
horizontal = 1;
place = (228, 87);
place = (228, 87);
type = Stem;
},
{
horizontal = 1;
place = (690, -20);
target = down;
type = TopGhost;
},
{
place = (23, 631);
place = (23, 631);
type = Stem;
},
{
horizontal = 1;
place = (599, 91);
place = (599, 91);
type = Stem;
}
);
layerId = m01;
shapes = (
{
closed = 1;
nodes = (
(460,228,l),
(524,33,ls),
(531,10,o),
(552,-6,o),
(577,-6,cs),
(608,-6,o),
(633,20,o),
(633,50,cs),
(633,57,o),
(632,64,o),
(630,69,cs),
(429,643,ls),
(418,674,o),
(396,690,o),
(363,690,cs),
(320,690,ls),
(287,690,o),
(265,676,o),
(254,644,cs),
(47,68,ls),
(45,63,o),
(44,56,o),
(44,49,cs),
(44,19,o),
(69,-6,o),
(99,-6,cs),
(123,-6,o),
(144,11,o),
(151,32,cs),
(215,228,l)
);
},
{
closed = 1;
nodes = (
(244,315,l),
(340,599,l),
(431,315,l)
);
}
);
width = 656;
}
);
note = A;
unicode = 65;
},
{
glyphname = Aacute;
kernLeft = A;
kernRight = A;
lastChange = "2022-11-29 13:48:59 +0000";
layers = (
{
hints = (
{
horizontal = 1;
place = (0, 21);
target = up;
type = BottomGhost;
},
{
horizontal = 1;
place = (228, 87);
place = (228, 87);
type = Stem;
},
{
horizontal = 1;
place = (690, -20);
target = down;
type = TopGhost;
},
{
horizontal = 1;
place = (736, 102);
place = (736, 102);
type = Stem;
},
{
place = (23, 631);
place = (23, 631);
type = Stem;
},
{
horizontal = 1;
place = (599, 91);
place = (599, 91);
type = Stem;
}
);
layerId = m01;
shapes = (
{
closed = 1;
nodes = (
(373,739,cs),
(428,797,ls),
(432,802,o),
(436,808,o),
(436,816,cs),
(436,833,o),
(420,845,o),
(404,843,cs),
(361,837,o),
(326,802,o),
(324,759,cs),
(324,743,o),
(336,731,o),
(352,731,cs),
(361,731,o),
(368,733,o)
);
},
{
closed = 1;
nodes = (
(460,228,l),
(524,33,ls),
(531,10,o),
(552,-6,o),
(577,-6,cs),
(608,-6,o),
(633,20,o),
(633,50,cs),
(633,57,o),
(632,64,o),
(630,69,cs),
(429,643,ls),
(418,674,o),
(396,690,o),
(363,690,cs),
(320,690,ls),
(287,690,o),
(265,676,o),
(254,644,cs),
(47,68,ls),
(45,63,o),
(44,56,o),
(44,49,cs),
(44,19,o),
(69,-6,o),
(99,-6,cs),
(123,-6,o),
(144,11,o),
(151,32,cs),
(215,228,l)
);
},
{
closed = 1;
nodes = (
(244,315,l),
(340,599,l),
(431,315,l)
);
}
);
width = 656;
}
);
note = Aacute;
unicode = 193;
},
{
glyphname = Abreve;
kernLeft = A;
kernRight = A;
lastChange = "2022-11-29 13:48:59 +0000";
layers = (
{
hints = (
{
horizontal = 1;
place = (0, 21);
target = up;
type = BottomGhost;
},
{
horizontal = 1;
place = (228, 87);
place = (228, 87);
type = Stem;
},
{
horizontal = 1;
place = (690, -20);
target = down;
type = TopGhost;
},
{
horizontal = 1;
place = (724, 62);
place = (724, 62);
type = Stem;
},
{
place = (232, 62);
place = (232, 62);
type = Stem;
},
{
place = (390, 62);
place = (390, 62);
type = Stem;
},
{
horizontal = 1;
place = (599, 91);
place = (599, 91);
type = Stem;
}
);
layerId = m01;
shapes = (
{
closed = 1;
nodes = (
(401,724,o),
(438,750,o),
(449,806,cs),
(453,826,o),
(437,844,o),
(418,844,cs),
(403,844,o),
(391,833,o),
(387,820,cs),
(381,796,o),
(365,786,o),
(342,786,cs),
(319,786,o),
(303,796,o),
(297,820,cs),
(293,833,o),
(281,844,o),
(266,844,cs),
(247,844,o),
(232,825,o),
(235,806,cs),
(246,750,o),
(282,724,o),
(342,724,cs)
);
},
{
closed = 1;
nodes = (
(460,228,l),
(524,33,ls),
(531,10,o),
(552,-6,o),
(577,-6,cs),
(608,-6,o),
(633,20,o),
(633,50,cs),
(633,57,o),
(632,64,o),
(630,69,cs),
(429,643,ls),
(418,674,o),
(396,690,o),
(363,690,cs),
(320,690,ls),
(287,690,o),
(265,676,o),
(254,644,cs),
(47,68,ls),
(45,63,o),
(44,56,o),
(44,49,cs),
(44,19,o),
(69,-6,o),
(99,-6,cs),
(123,-6,o),
(144,11,o),
(151,32,cs),
(215,228,l)
);
},
{
closed = 1;
nodes = (
(244,315,l),
(340,599,l),
(431,315,l)
);
}
);
width = 656;
}
);
note = Abreve;
unicode = 258;
},
{
glyphname = Acircumflex;
kernLeft = A;
kernRight = A;
lastChange = "2022-11-29 13:48:59 +0000";
layers = (
{
hints = (
{
horizontal = 1;
place = (0, 21);
target = up;
type = BottomGhost;
},
{
horizontal = 1;
place = (228, 87);
place = (228, 87);
type = Stem;
},
{
horizontal = 1;
place = (690, -20);
target = down;
type = TopGhost;
},
{
horizontal = 1;
place = (736, 102);
place = (736, 102);
type = Stem;
},
{
place = (23, 631);
place = (23, 631);
type = Stem;
},
{
horizontal = 1;
place = (599, 91);
place = (599, 91);
type = Stem;
}
);
layerId = m01;
shapes = (
{
closed = 1;
nodes = (
(317,747,cs),
(342,796,l),
(358,766,ls),
(368,747,o),
(408,741,o),
(413,780,cs),
(414,782,o),
(414,785,o),
(414,787,cs),
(414,816,o),
(391,839,o),
(362,839,cs),
(333,839,o),
(310,816,o),
(310,787,cs),
(310,766,o),
(318,787,o),
(331,808,cs),
(343,827,o),
(350,838,o),
(339,838,cs),
(296,838,o),
(260,803,o),
(258,761,cs),
(258,744,o),
(272,730,o),
(289,730,cs),
(301,730,o),
(312,737,o)
);
},
{
closed = 1;
nodes = (
(460,228,l),
(524,33,ls),
(531,10,o),
(552,-6,o),
(577,-6,cs),
(608,-6,o),
(633,20,o),
(633,50,cs),
(633,57,o),
(632,64,o),
(630,69,cs),
(429,643,ls),
(418,674,o),
(396,690,o),
(363,690,cs),
(320,690,ls),
(287,690,o),
(265,676,o),
(254,644,cs),
(47,68,ls),
(45,63,o),
(44,56,o),
(44,49,cs),
(44,19,o),
(69,-6,o),
(99,-6,cs),
(123,-6,o),
(144,11,o),
(151,32,cs),
(215,228,l)
);
},
{
closed = 1;
nodes = (
(244,315,l),
(340,599,l),
(431,315,l)
);
}
);
width = 656;
}
);
note = Acircumflex;
unicode = 194;
},
{
glyphname = Adieresis;
kernLeft = A;
kernRight = A;
lastChange = "2022-11-29 13:48:59 +0000";
layers = (
{
hints = (
{
horizontal = 1;
place = (0, 21);
target = up;
type = BottomGhost;
},
{
horizontal = 1;
place = (228, 87);
place = (228, 87);
type = Stem;
},
{
horizontal = 1;
place = (690, -20);
target = down;
type = TopGhost;
},
{
horizontal = 1;
place = (733, 106);
place = (733, 106);
type = Stem;
},
{
place = (211, 107);
place = (211, 107);
type = Stem;
},
{
place = (366, 107);
place = (366, 107);
type = Stem;
},
{
horizontal = 1;
place = (599, 91);
place = (599, 91);
type = Stem;
}
);
layerId = m01;
shapes = (
{
closed = 1;
nodes = (
(460,228,l),
(524,33,ls),
(531,10,o),
(552,-6,o),
(577,-6,cs),
(608,-6,o),
(633,20,o),
(633,50,cs),
(633,57,o),
(632,64,o),
(630,69,cs),
(429,643,ls),
(418,674,o),
(396,690,o),
(363,690,cs),
(320,690,ls),
(287,690,o),
(265,676,o),
(254,644,cs),
(47,68,ls),
(45,63,o),
(44,56,o),
(44,49,cs),
(44,19,o),
(69,-6,o),
(99,-6,cs),
(123,-6,o),
(144,11,o),
(151,32,cs),
(215,228,l)
);
},
{
closed = 1;
nodes = (
(244,315,l),
(340,599,l),
(431,315,l)
);
},
{
closed = 1;
nodes = (
(259,733,cs),
(273,733,ls),
(301,733,o),
(324,756,o),
(324,784,cs),
(324,790,o),
(323,796,o),
(321,802,cs),
(312,826,o),
(291,845,o),
(265,845,cs),
(255,845,o),
(246,841,o),
(239,837,cs),
(220,827,o),
(206,808,o),
(206,786,cs),
(206,757,o),
(230,733,o)
);
},
{
closed = 1;
nodes = (
(414,733,cs),
(428,733,ls),
(456,733,o),
(480,756,o),
(480,784,cs),
(480,791,o),
(478,798,o),
(476,803,cs),
(467,826,o),
(446,844,o),
(420,844,cs),
(410,844,o),
(401,841,o),
(394,837,cs),
(375,827,o),
(361,808,o),
(361,786,cs),
(361,757,o),
(385,733,o)
);
}
);
width = 656;
}
);
note = Adieresis;
unicode = 196;
},
{
glyphname = Agrave;
kernLeft = A;
kernRight = A;
lastChange = "2022-11-29 13:48:59 +0000";
layers = (
{
hints = (
{
horizontal = 1;
place = (0, 21);
target = up;
type = BottomGhost;
},
{
horizontal = 1;
place = (228, 87);
place = (228, 87);
type = Stem;
},
{
horizontal = 1;
place = (690, -20);
target = down;
type = TopGhost;
},
{
horizontal = 1;
place = (736, 102);
place = (736, 102);
type = Stem;
},
{
place = (23, 631);
place = (23, 631);
type = Stem;
},
{
horizontal = 1;
place = (599, 91);
place = (599, 91);
type = Stem;
}
);
layerId = m01;
shapes = (
{
closed = 1;
nodes = (
(275,778,ls),
(301,750,o),
(343,743,o),
(349,780,cs),
(350,784,o),
(350,787,o),
(350,791,cs),
(350,822,o),
(325,841,o),
(295,844,c),
(275,844,o),
(260,828,o),
(260,808,cs),
(260,799,o),
(263,791,o),
(269,784,cs)
);
},
{
closed = 1;
nodes = (
(460,228,l),
(524,33,ls),
(531,10,o),
(552,-6,o),
(577,-6,cs),
(608,-6,o),
(633,20,o),
(633,50,cs),
(633,57,o),
(632,64,o),
(630,69,cs),
(429,643,ls),
(418,674,o),
(396,690,o),
(363,690,cs),
(320,690,ls),
(287,690,o),
(265,676,o),
(254,644,cs),
(47,68,ls),
(45,63,o),
(44,56,o),
(44,49,cs),
(44,19,o),
(69,-6,o),
(99,-6,cs),
(123,-6,o),
(144,11,o),
(151,32,cs),
(215,228,l)
);
},
{
closed = 1;
nodes = (
(244,315,l),
(340,599,l),
(431,315,l)
);
}
);
width = 656;
}
);
note = Agrave;
unicode = 192;
},
{
glyphname = Amacron;
kernLeft = A;
kernRight = A;
lastChange = "2022-11-29 13:48:59 +0000";
layers = (
{
hints = (
{
horizontal = 1;
place = (0, 21);
target = up;
type = BottomGhost;
},
{
horizontal = 1;
place = (228, 87);
place = (228, 87);
type = Stem;
},
{
horizontal = 1;
place = (690, -20);
target = down;
type = TopGhost;
},
{
horizontal = 1;
place = (758, 63);
place = (758, 63);
type = Stem;
},
{
place = (215, 255);
place = (215, 255);
type = Stem;
},
{
horizontal = 1;
place = (599, 91);
place = (599, 91);
type = Stem;
}
);
layerId = m01;
shapes = (
{
closed = 1;
nodes = (
(444,758,ls),
(461,758,o),
(476,772,o),
(476,790,cs),
(476,807,o),
(461,821,o),
(444,821,cs),
(241,821,ls),
(224,821,o),
(210,807,o),
(210,790,cs),
(210,772,o),
(224,758,o),
(241,758,cs)
);
},
{
closed = 1;
nodes = (
(460,228,l),
(524,33,ls),
(531,10,o),
(552,-6,o),
(577,-6,cs),
(608,-6,o),
(633,20,o),
(633,50,cs),
(633,57,o),
(632,64,o),
(630,69,cs),
(429,643,ls),
(418,674,o),
(396,690,o),
(363,690,cs),
(320,690,ls),
(287,690,o),
(265,676,o),
(254,644,cs),
(47,68,ls),
(45,63,o),
(44,56,o),
(44,49,cs),
(44,19,o),
(69,-6,o),
(99,-6,cs),
(123,-6,o),
(144,11,o),
(151,32,cs),
(215,228,l)
);
},
{
closed = 1;
nodes = (
(244,315,l),
(340,599,l),
(431,315,l)
);
}
);
width = 656;
}
);
note = Amacron;
unicode = 256;
},
{
glyphname = Aogonek;
kernLeft = A;
kernRight = A;
lastChange = "2022-11-29 13:48:59 +0000";
layers = (
{
hints = (
{
horizontal = 1;
place = (-223, 66);
place = (-223, 66);
type = Stem;
},
{
horizontal = 1;
place = (0, 21);
target = up;
type = BottomGhost;
},
{
horizontal = 1;
place = (228, 87);
place = (228, 87);
type = Stem;
},
{
horizontal = 1;
place = (690, -20);
target = down;
type = TopGhost;
},
{
place = (427, 102);
place = (427, 102);
type = Stem;
},
{
horizontal = 1;
place = (599, 91);
place = (599, 91);
type = Stem;
}
);
layerId = m01;
shapes = (
{
closed = 1;
nodes = (
(529,-50,o),
(567,-7,o),
(611,0,c),
(633,0,ls),
(646,0,o),
(645,25,o),
(631,66,cs),
(429,643,ls),
(418,674,o),
(396,690,o),
(363,690,cs),
(320,690,ls),
(287,690,o),
(265,676,o),
(254,644,cs),
(47,68,ls),
(45,63,o),
(44,56,o),
(44,49,cs),
(44,19,o),
(69,-6,o),
(99,-6,cs),
(123,-6,o),
(144,11,o),
(151,32,cs),
(215,228,l),
(460,228,l),
(532,10,l),
(477,-14,o),
(427,-67,o),
(427,-138,cs),
(427,-201,o),
(467,-223,o),
(525,-223,cs),
(560,-223,o),
(590,-215,o),
(618,-200,cs),
(626,-195,o),
(632,-187,o),
(632,-177,cs),
(632,-160,o),
(614,-148,o),
(598,-153,cs),
(589,-156,o),
(581,-157,o),
(573,-157,cs),
(546,-157,o),
(529,-144,o),
(529,-107,cs)
);
},
{
closed = 1;
nodes = (
(244,315,l),
(340,599,l),
(431,315,l)
);
}
);
width = 656;
}
);
note = Aogonek;
unicode = 260;
},
{
glyphname = Aring;
kernLeft = A;
kernRight = A;
lastChange = "2022-11-29 13:48:59 +0000";
layers = (
{
hints = (
{
horizontal = 1;
place = (0, 21);
target = up;
type = BottomGhost;
},
{
horizontal = 1;
place = (228, 87);
place = (228, 87);
type = Stem;
},
{
horizontal = 1;
place = (690, -20);
target = down;
type = TopGhost;
},
{
horizontal = 1;
place = (718, 43);
place = (718, 43);
type = Stem;
},
{
horizontal = 1;
place = (845, 44);
place = (845, 44);
type = Stem;
},
{
place = (244, 58);
place = (244, 58);
type = Stem;
},
{
place = (382, 58);
place = (382, 58);
type = Stem;
},
{
horizontal = 1;
place = (599, 91);
place = (599, 91);
type = Stem;
}
);
layerId = m01;
shapes = (
{
closed = 1;
nodes = (
(399,718,o),
(440,753,o),
(440,803,cs),
(440,853,o),
(399,889,o),
(342,889,cs),
(285,889,o),
(244,853,o),
(244,803,cs),
(244,753,o),
(285,718,o),
(342,718,cs)
);
},
{
closed = 1;
nodes = (
(365,845,o),
(382,828,o),
(382,803,cs),
(382,779,o),
(365,761,o),
(342,761,cs),
(319,761,o),
(302,779,o),
(302,803,cs),
(302,828,o),
(319,845,o),
(342,845,cs)
);
},
{
closed = 1;
nodes = (
(460,228,l),
(524,33,ls),
(531,10,o),
(552,-6,o),
(577,-6,cs),
(608,-6,o),
(633,20,o),
(633,50,cs),
(633,57,o),
(632,64,o),
(630,69,cs),
(429,643,ls),
(418,674,o),
(396,690,o),
(363,690,cs),
(320,690,ls),
(287,690,o),
(265,676,o),
(254,644,cs),
(47,68,ls),
(45,63,o),
(44,56,o),
(44,49,cs),
(44,19,o),
(69,-6,o),
(99,-6,cs),
(123,-6,o),
(144,11,o),
(151,32,cs),
(215,228,l)
);
},
{
closed = 1;
nodes = (
(244,315,l),
(340,599,l),
(431,315,l)
);
}
);
width = 656;
}
);
note = Aring;
unicode = 197;
},
{
glyphname = Atilde;
kernLeft = A;
kernRight = A;
lastChange = "2022-11-29 13:48:59 +0000";
layers = (
{
hints = (
{
horizontal = 1;
place = (0, 21);
target = up;
type = BottomGhost;
},
{
horizontal = 1;
place = (228, 87);
place = (228, 87);
type = Stem;
},
{
horizontal = 1;
place = (690, -20);
target = down;
type = TopGhost;
},
{
horizontal = 1;
place = (748, 87);
place = (748, 87);
type = Stem;
},
{
place = (222, 52);
place = (222, 52);
type = Stem;
},
{
place = (410, 53);
place = (410, 53);
type = Stem;
},
{
horizontal = 1;
place = (744, 87);
place = (744, 87);
type = Stem;
},
{
horizontal = 1;
place = (599, 91);
place = (599, 91);
type = Stem;
}
);
layerId = m01;
shapes = (
{
closed = 1;
nodes = (
(299,771,o),
(310,767,o),
(334,759,cs),
(364,748,o),
(380,744,o),
(401,744,cs),
(435,744,o),
(455,759,o),
(461,806,cs),
(463,823,o),
(451,837,o),
(434,837,cs),
(422,837,o),
(411,829,o),
(408,818,cs),
(406,810,o),
(401,808,o),
(394,808,cs),
(386,808,o),
(374,812,o),
(350,820,cs),
(321,831,o),
(305,835,o),
(283,835,cs),
(250,835,o),
(229,819,o),
(224,773,cs),
(222,758,o),
(234,742,o),
(250,742,cs),
(262,742,o),
(273,751,o),
(276,761,cs),
(279,769,o),
(284,771,o),
(290,771,cs)
);
},
{
closed = 1;
nodes = (
(460,228,l),
(524,33,ls),
(531,10,o),
(552,-6,o),
(577,-6,cs),
(608,-6,o),
(633,20,o),
(633,50,cs),
(633,57,o),
(632,64,o),
(630,69,cs),
(429,643,ls),
(418,674,o),
(396,690,o),
(363,690,cs),
(320,690,ls),
(287,690,o),
(265,676,o),
(254,644,cs),
(47,68,ls),
(45,63,o),
(44,56,o),
(44,49,cs),
(44,19,o),
(69,-6,o),
(99,-6,cs),
(123,-6,o),
(144,11,o),
(151,32,cs),
(215,228,l)
);
},
{
closed = 1;
nodes = (
(244,315,l),
(340,599,l),
(431,315,l)
);
}
);
width = 656;
}
);
note = Atilde;
unicode = 195;
},
{
glyphname = AE;
lastChange = "2022-11-29 13:48:59 +0000";
layers = (
{
hints = (
{
horizontal = 1;
place = (0, 88);
place = (0, 88);
type = Stem;
},
{
horizontal = 1;
place = (302, 87);
place = (302, 87);
type = Stem;
},
{
horizontal = 1;
place = (603, 87);
place = (603, 87);
type = Stem;
},
{
place = (442.5, 104.5);
place = (442.5, 104.5);
type = Stem;
},
{
horizontal = 1;
place = (235, 88);
place = (235, 88);
type = Stem;
}
);
layerId = m01;
shapes = (
{
closed = 1;
nodes = (
(864,88,cs),
(555,88,l),
(539,302,l),
(826,302,ls),
(850,302,o),
(870,321,o),
(870,346,cs),
(870,370,o),
(850,389,o),
(826,389,cs),
(533,389,l),
(517,603,l),
(854,603,ls),
(878,603,o),
(898,622,o),
(898,647,cs),
(898,671,o),
(878,690,o),
(854,690,cs),
(398,690,ls),
(366,690,o),
(345,678,o),
(329,650,cs),
(3,71,ls),
(-1,63,o),
(-4,55,o),
(-4,46,cs),
(-4,17,o),
(19,-5,o),
(48,-5,cs),
(67,-5,o),
(85,5,o),
(93,21,cs),
(208,235,l),
(434,235,l),
(447,56,ls),
(450,20,o),
(471,0,o),
(507,0,cs),
(864,0,ls),
(888,0,o),
(908,20,o),
(908,44,cs),
(908,68,o),
(888,88,o)
);
},
{
closed = 1;
nodes = (
(428,323,l),
(256,323,l),
(407,602,l)
);
}
);
width = 930;
}
);
note = AE;
unicode = 198;
},
{
glyphname = B;
lastChange = "2022-11-29 13:48:59 +0000";
layers = (
{
hints = (
{
horizontal = 1;
place = (0, 88);
place = (0, 88);
type = Stem;
},
{
horizontal = 1;
place = (314, 85);
place = (314, 85);
type = Stem;
},
{
horizontal = 1;
place = (603, 87);
place = (603, 87);
type = Stem;
},
{
place = (95, 110);
place = (95, 110);
type = Stem;
},
{
place = (489, 116);
place = (489, 116);
type = Stem;
},
{
place = (464, 116);
place = (464, 116);
type = Stem;
}
);
layerId = m01;
shapes = (
{
closed = 1;
nodes = (
(538,393,o),
(580,438,o),
(580,516,cs),
(580,612,o),
(518,671,o),
(408,686,cs),
(374,690,o),
(352,690,o),
(318,690,cs),
(153,690,ls),
(116,690,o),
(95,669,o),
(95,632,cs),
(95,58,ls),
(95,21,o),
(116,0,o),
(153,0,cs),
(330,0,ls),
(365,0,o),
(388,0,o),
(422,5,cs),
(513,18,o),
(605,78,o),
(605,204,cs),
(605,296,o),
(557,347,o),
(467,369,c)
);
},
{
closed = 1;
nodes = (
(205,603,l),
(318,603,ls),
(334,603,o),
(354,602,o),
(370,600,cs),
(425,594,o),
(464,565,o),
(464,504,cs),
(464,448,o),
(438,413,o),
(377,403,cs),
(359,400,o),
(342,399,o),
(325,399,cs),
(205,399,l)
);
},
{
closed = 1;
nodes = (
(375,88,o),
(357,88,o),
(341,88,cs),
(205,88,l),
(205,314,l),
(335,314,ls),
(351,314,o),
(367,314,o),
(387,311,cs),
(446,304,o),
(489,274,o),
(489,199,cs),
(489,132,o),
(445,94,o),
(388,89,cs)
);
}
);
width = 641;
}
);
note = B;
unicode = 66;
},
{
glyphname = C;
kernLeft = C;
kernRight = C;
lastChange = "2022-11-29 13:48:59 +0000";
layers = (
{
hints = (
{
horizontal = 1;
place = (-14, 84);
place = (-14, 84);
type = Stem;
},
{
horizontal = 1;
place = (620, 84);
place = (620, 84);
type = Stem;
},
{
place = (49, 119);
place = (49, 119);
type = Stem;
}
);
layerId = m01;
shapes = (
{
closed = 1;
nodes = (
(185,704,o),
(49,559,o),
(49,342,cs),
(49,132,o),
(170,-14,o),
(367,-14,cs),
(528,-14,o),
(626,69,o),
(655,183,cs),
(662,212,o),
(658,238,o),
(631,250,cs),
(622,254,o),
(612,256,o),
(601,256,cs),
(590,256,o),
(581,252,o),
(573,246,cs),
(555,232,o),
(551,214,o),
(542,187,cs),
(516,115,o),
(462,70,o),
(372,70,cs),
(250,70,o),
(168,176,o),
(168,347,cs),
(168,510,o),
(249,620,o),
(377,620,cs),
(467,620,o),
(521,576,o),
(547,505,cs),
(556,478,o),
(562,455,o),
(588,447,cs),
(594,446,o),
(600,445,o),
(606,445,cs),
(617,445,o),
(629,446,o),
(639,450,cs),
(662,457,o),
(667,481,o),
(659,512,cs),
(631,625,o),
(539,704,o),
(379,704,cs)
);
}
);
width = 708;
}
);
note = C;
unicode = 67;
},
{
glyphname = Cacute;
kernLeft = C;
kernRight = C;
lastChange = "2022-11-29 13:48:59 +0000";
layers = (
{
hints = (
{
horizontal = 1;
place = (-14, 84);
place = (-14, 84);
type = Stem;
},
{
horizontal = 1;
place = (620, 84);
place = (620, 84);
type = Stem;
},
{
horizontal = 1;
place = (736, 102);
place = (736, 102);
type = Stem;
},
{
place = (49, 119);
place = (49, 119);
type = Stem;
}
);
layerId = m01;
shapes = (
{
closed = 1;
nodes = (
(402,739,cs),
(457,797,ls),
(461,802,o),
(465,808,o),
(465,816,cs),
(465,833,o),
(449,845,o),
(433,843,cs),
(390,837,o),
(355,802,o),
(353,759,cs),
(353,743,o),
(365,731,o),
(381,731,cs),
(390,731,o),
(397,733,o)
);
},
{
closed = 1;
nodes = (
(185,704,o),
(49,559,o),
(49,342,cs),
(49,132,o),
(170,-14,o),
(367,-14,cs),
(528,-14,o),
(626,69,o),
(655,183,cs),
(662,212,o),
(658,238,o),
(631,250,cs),
(622,254,o),
(612,256,o),
(601,256,cs),
(590,256,o),
(581,252,o),
(573,246,cs),
(555,232,o),
(551,214,o),
(542,187,cs),
(516,115,o),
(462,70,o),
(372,70,cs),
(250,70,o),
(168,176,o),
(168,347,cs),
(168,510,o),
(249,620,o),
(377,620,cs),
(467,620,o),
(521,576,o),
(547,505,cs),
(556,478,o),
(562,455,o),
(588,447,cs),
(594,446,o),
(600,445,o),
(606,445,cs),
(617,445,o),
(629,446,o),
(639,450,cs),
(662,457,o),
(667,481,o),
(659,512,cs),
(631,625,o),
(539,704,o),
(379,704,cs)
);
}
);
width = 708;
}
);
note = Cacute;
unicode = 262;
},
{
glyphname = Ccaron;
kernLeft = C;
kernRight = C;
lastChange = "2022-11-29 13:48:59 +0000";
layers = (
{
hints = (
{
horizontal = 1;
place = (-14, 84);
place = (-14, 84);
type = Stem;
},
{
horizontal = 1;
place = (620, 84);
place = (620, 84);
type = Stem;
},
{
horizontal = 1;
place = (736, 102);
place = (736, 102);
type = Stem;
},
{
place = (49, 119);
place = (49, 119);
type = Stem;
}
);
layerId = m01;
shapes = (
{
closed = 1;
nodes = (
(352,736,cs),
(375,736,ls),
(418,736,o),
(454,771,o),
(456,813,cs),
(456,830,o),
(442,844,o),
(425,844,cs),
(413,844,o),
(402,837,o),
(397,827,cs),
(372,777,l),
(357,808,ls),
(347,828,o),
(306,833,o),
(300,794,cs),
(300,792,o),
(300,789,o),
(300,787,cs),
(300,758,o),
(324,736,o)
);
},
{
closed = 1;
nodes = (
(580,250,cs),
(555,236,o),
(551,214,o),
(542,187,cs),
(516,115,o),
(462,70,o),
(372,70,cs),
(250,70,o),
(168,176,o),
(168,347,cs),
(168,510,o),
(249,620,o),
(377,620,cs),
(467,620,o),
(521,576,o),
(547,505,cs),
(556,478,o),
(562,455,o),
(588,447,cs),
(594,446,o),
(600,445,o),
(606,445,cs),
(617,445,o),
(629,446,o),
(639,450,cs),
(662,457,o),
(667,481,o),
(659,512,cs),
(631,625,o),
(539,704,o),
(379,704,cs),
(185,704,o),
(49,559,o),
(49,342,cs),
(49,132,o),
(170,-14,o),
(367,-14,cs),
(528,-14,o),
(626,69,o),
(655,183,cs),
(662,212,o),
(658,238,o),
(631,250,cs),
(622,254,o),
(612,256,o),
(601,256,cs),
(593,256,o),
(586,254,o)
);
}
);
width = 708;
}
);
note = Ccaron;
unicode = 268;
},
{
glyphname = Ccedilla;
kernLeft = C;
kernRight = C;
lastChange = "2022-11-29 13:48:59 +0000";
layers = (
{
hints = (
{
horizontal = 1;
place = (-210, 49);
place = (-210, 49);
type = Stem;
},
{
horizontal = 1;
place = (-11, 21);
target = up;
type = BottomGhost;
},
{
horizontal = 1;
place = (620, 84);
place = (620, 84);
type = Stem;
},
{
place = (49, 119);
place = (49, 119);
type = Stem;
},
{
place = (379, 70);
place = (379, 70);
type = Stem;
},
{
horizontal = 1;
place = (-81, 151);
place = (-81, 151);
type = Stem;
}
);
layerId = m01;
shapes = (
{
closed = 1;
nodes = (
(580,250,cs),
(555,236,o),
(551,214,o),
(542,187,cs),
(516,115,o),
(462,70,o),
(372,70,cs),
(250,70,o),
(168,176,o),
(168,347,cs),
(168,510,o),
(249,620,o),
(377,620,cs),
(467,620,o),
(521,576,o),
(547,505,cs),
(556,478,o),
(562,455,o),
(588,447,cs),
(594,446,o),
(600,445,o),
(606,445,cs),
(617,445,o),
(629,446,o),
(639,450,cs),
(662,457,o),
(667,481,o),
(659,512,cs),
(631,625,o),
(539,704,o),
(379,704,cs),
(185,704,o),
(49,559,o),
(49,342,cs),
(49,149,o),
(151,11,o),
(320,-11,c),
(302,-46,ls),
(291,-68,o),
(310,-73,o),
(350,-85,cs),
(370,-92,o),
(379,-104,o),
(379,-122,cs),
(379,-146,o),
(359,-161,o),
(317,-161,cs),
(307,-161,o),
(297,-160,o),
(286,-159,cs),
(271,-156,o),
(257,-168,o),
(257,-183,cs),
(257,-195,o),
(267,-205,o),
(278,-207,cs),
(290,-209,o),
(302,-210,o),
(315,-210,cs),
(393,-210,o),
(449,-181,o),
(449,-122,cs),
(449,-76,o),
(420,-48,o),
(365,-41,c),
(379,-14,l),
(533,-10,o),
(627,72,o),
(655,183,cs),
(662,212,o),
(658,238,o),
(631,250,cs),
(622,254,o),
(612,256,o),
(601,256,cs),
(593,256,o),
(586,254,o)
);
}
);
width = 708;
}
);
note = Ccedilla;
unicode = 199;
},
{
glyphname = Cdotaccent;
kernLeft = C;
kernRight = C;
lastChange = "2022-11-29 13:48:59 +0000";
layers = (
{
hints = (
{
horizontal = 1;
place = (-14, 84);
place = (-14, 84);
type = Stem;
},
{
horizontal = 1;
place = (620, 84);
place = (620, 84);
type = Stem;
},
{
horizontal = 1;
place = (734, 113);
place = (734, 113);
type = Stem;
},
{
place = (49, 119);
place = (49, 119);
type = Stem;
},
{
place = (313, 116);
place = (313, 116);
type = Stem;
}
);
layerId = m01;
shapes = (
{
closed = 1;
nodes = (
(338,847,o),
(313,823,o),
(313,791,cs),
(313,758,o),
(338,734,o),
(371,734,cs),
(404,734,o),
(429,758,o),
(429,791,cs),
(429,823,o),
(404,847,o),
(371,847,cs)
);
},
{
closed = 1;
nodes = (
(185,704,o),
(49,559,o),
(49,342,cs),
(49,132,o),
(170,-14,o),
(367,-14,cs),
(528,-14,o),
(626,69,o),
(655,183,cs),
(662,212,o),
(658,238,o),
(631,250,cs),
(622,254,o),
(612,256,o),
(601,256,cs),
(590,256,o),
(581,252,o),
(573,246,cs),
(555,232,o),
(551,214,o),
(542,187,cs),
(516,115,o),
(462,70,o),
(372,70,cs),
(250,70,o),
(168,176,o),
(168,347,cs),
(168,510,o),
(249,620,o),
(377,620,cs),
(467,620,o),
(521,576,o),
(547,505,cs),
(556,478,o),
(562,455,o),
(588,447,cs),
(594,446,o),
(600,445,o),
(606,445,cs),
(617,445,o),
(629,446,o),
(639,450,cs),
(662,457,o),
(667,481,o),
(659,512,cs),
(631,625,o),
(539,704,o),
(379,704,cs)
);
}
);
width = 708;
}
);
note = Cdotaccent;
unicode = 266;
},
{
glyphname = D;
kernRight = D;
lastChange = "2022-11-29 13:48:59 +0000";
layers = (
{
hints = (
{
horizontal = 1;
place = (0, 88);
place = (0, 88);
type = Stem;
},
{
horizontal = 1;
place = (603, 87);
place = (603, 87);
type = Stem;
},
{
place = (95, 110);
place = (95, 110);
type = Stem;
},
{
place = (566, 118);
place = (566, 118);
type = Stem;
}
);
layerId = m01;
shapes = (
{
closed = 1;
nodes = (
(371,690,o),
(355,690,o),
(318,690,cs),
(153,690,ls),
(116,690,o),
(95,669,o),
(95,632,cs),
(95,58,ls),
(95,21,o),
(116,0,o),
(153,0,cs),
(314,0,ls),
(351,0,o),
(367,0,o),
(402,4,cs),
(562,24,o),
(684,147,o),
(684,353,cs),
(684,562,o),
(566,667,o),
(406,686,cs)
);
},
{
closed = 1;
nodes = (
(361,88,o),
(338,88,o),
(304,88,cs),
(205,88,l),
(205,603,l),
(308,603,ls),
(341,603,o),
(365,602,o),
(387,598,cs),
(497,582,o),
(566,498,o),
(566,353,cs),
(566,200,o),
(494,108,o),
(383,92,cs)
);
}
);
width = 719;
}
);
note = D;
unicode = 68;
},
{
glyphname = Eth;
kernRight = D;
lastChange = "2022-11-29 13:48:59 +0000";
layers = (
{
hints = (
{
horizontal = 1;
place = (0, 88);
place = (0, 88);
type = Stem;
},
{
horizontal = 1;
place = (302, 66);
place = (302, 66);
type = Stem;
},
{
horizontal = 1;
place = (603, 87);
place = (603, 87);
type = Stem;
},
{
place = (92, 109);
place = (92, 109);
type = Stem;
},
{
place = (563, 117);
place = (563, 117);
type = Stem;
}
);
layerId = m01;
shapes = (
{
closed = 1;
nodes = (
(367,690,o),
(351,690,o),
(314,690,cs),
(150,690,ls),
(113,690,o),
(92,669,o),
(92,632,cs),
(92,368,l),
(61,368,ls),
(43,368,o),
(28,353,o),
(28,335,cs),
(28,317,o),
(43,302,o),
(61,302,cs),
(92,302,l),
(92,58,ls),
(92,21,o),
(113,0,o),
(150,0,cs),
(311,0,ls),
(348,0,o),
(364,0,o),
(399,4,cs),
(559,24,o),
(680,147,o),
(680,353,cs),
(680,562,o),
(562,667,o),
(402,686,cs)
);
},
{
closed = 1;
nodes = (
(358,88,o),
(334,88,o),
(301,88,cs),
(201,88,l),
(201,302,l),
(302,302,ls),
(320,302,o),
(335,317,o),
(335,335,cs),
(335,353,o),
(320,368,o),
(302,368,cs),
(201,368,l),
(201,603,l),
(304,603,ls),
(338,603,o),
(361,602,o),
(384,598,cs),
(494,582,o),
(563,498,o),
(563,353,cs),
(563,200,o),
(490,108,o),
(380,92,cs)
);
}
);
width = 716;
}
);
note = Eth;
unicode = 208;
},
{
glyphname = Dcaron;
kernRight = D;
lastChange = "2022-11-29 13:48:59 +0000";
layers = (
{
hints = (
{
horizontal = 1;
place = (0, 88);
place = (0, 88);
type = Stem;
},
{
horizontal = 1;
place = (603, 87);
place = (603, 87);
type = Stem;
},
{
horizontal = 1;
place = (736, 102);
place = (736, 102);
type = Stem;
},
{
place = (95, 110);
place = (95, 110);
type = Stem;
},
{
place = (566, 118);
place = (566, 118);
type = Stem;
}
);
layerId = m01;
shapes = (
{
closed = 1;
nodes = (
(355,736,cs),
(378,736,ls),
(421,736,o),
(457,771,o),
(459,813,cs),
(459,830,o),
(445,844,o),
(428,844,cs),
(416,844,o),
(405,837,o),
(400,827,cs),
(375,777,l),
(360,808,ls),
(350,828,o),
(309,833,o),
(303,794,cs),
(303,792,o),
(303,789,o),
(303,787,cs),
(303,758,o),
(327,736,o)
);
},
{
closed = 1;
nodes = (
(371,690,o),
(355,690,o),
(318,690,cs),
(153,690,ls),
(116,690,o),
(95,669,o),
(95,632,cs),
(95,58,ls),
(95,21,o),
(116,0,o),
(153,0,cs),
(314,0,ls),
(351,0,o),
(367,0,o),
(402,4,cs),
(562,24,o),
(684,147,o),
(684,353,cs),
(684,562,o),
(566,667,o),
(406,686,cs)
);
},
{
closed = 1;
nodes = (
(361,88,o),
(338,88,o),
(304,88,cs),
(205,88,l),
(205,603,l),
(308,603,ls),
(341,603,o),
(365,602,o),
(387,598,cs),
(497,582,o),
(566,498,o),
(566,353,cs),
(566,200,o),
(494,108,o),
(383,92,cs)
);
}
);
width = 719;
}
);
note = Dcaron;
unicode = 270;
},
{
glyphname = Dcroat;
kernRight = D;
lastChange = "2022-11-29 13:48:59 +0000";
layers = (
{
hints = (
{
horizontal = 1;
place = (0, 88);
place = (0, 88);
type = Stem;
},
{
horizontal = 1;
place = (302, 66);
place = (302, 66);
type = Stem;
},
{
horizontal = 1;
place = (603, 87);
place = (603, 87);
type = Stem;
},
{
place = (92, 109);
place = (92, 109);
type = Stem;
},
{
place = (563, 117);
place = (563, 117);
type = Stem;
}
);
layerId = m01;
shapes = (
{
closed = 1;
nodes = (
(367,690,o),
(351,690,o),
(314,690,cs),
(150,690,ls),
(113,690,o),
(92,669,o),
(92,632,cs),
(92,368,l),
(61,368,ls),
(43,368,o),
(28,353,o),
(28,335,cs),
(28,317,o),
(43,302,o),
(61,302,cs),
(92,302,l),
(92,58,ls),
(92,21,o),
(113,0,o),
(150,0,cs),
(311,0,ls),
(348,0,o),
(364,0,o),
(399,4,cs),
(559,24,o),
(680,147,o),
(680,353,cs),
(680,562,o),
(562,667,o),
(402,686,cs)
);
},
{
closed = 1;
nodes = (
(358,88,o),
(334,88,o),
(301,88,cs),
(201,88,l),
(201,302,l),
(302,302,ls),
(320,302,o),
(335,317,o),
(335,335,cs),
(335,353,o),
(320,368,o),
(302,368,cs),
(201,368,l),
(201,603,l),
(304,603,ls),
(338,603,o),
(361,602,o),
(384,598,cs),
(494,582,o),
(563,498,o),
(563,353,cs),
(563,200,o),
(490,108,o),
(380,92,cs)
);
}
);
width = 716;
}
);
note = Dcroat;
unicode = 272;
},
{
glyphname = E;
lastChange = "2022-11-29 13:48:59 +0000";
layers = (
{
hints = (
{
horizontal = 1;
place = (0, 88);
place = (0, 88);
type = Stem;
},
{
horizontal = 1;
place = (302, 87);
place = (302, 87);
type = Stem;
},
{
horizontal = 1;
place = (603, 87);
place = (603, 87);
type = Stem;
},
{
place = (95, 110);
place = (95, 110);
type = Stem;
}
);
layerId = m01;
shapes = (
{
closed = 1;
nodes = (
(534,88,cs),
(205,88,l),
(205,302,l),
(496,302,ls),
(520,302,o),
(540,321,o),
(540,346,cs),
(540,370,o),
(520,389,o),
(496,389,cs),
(205,389,l),
(205,603,l),
(524,603,ls),
(548,603,o),
(568,622,o),
(568,647,cs),
(568,671,o),
(548,690,o),
(524,690,cs),
(153,690,ls),
(116,690,o),
(95,669,o),
(95,632,cs),
(95,58,ls),
(95,21,o),
(116,0,o),
(153,0,cs),
(534,0,ls),
(558,0,o),
(578,20,o),
(578,44,cs),
(578,68,o),
(558,88,o)
);
}
);
width = 600;
}
);
note = E;
unicode = 69;
},
{
glyphname = Eacute;
lastChange = "2022-11-29 13:48:59 +0000";
layers = (
{
hints = (
{
horizontal = 1;
place = (0, 88);
place = (0, 88);
type = Stem;
},
{
horizontal = 1;
place = (302, 87);
place = (302, 87);
type = Stem;
},
{
horizontal = 1;
place = (603, 87);
place = (603, 87);
type = Stem;
},
{
horizontal = 1;
place = (736, 102);
place = (736, 102);
type = Stem;
},
{
place = (95, 110);
place = (95, 110);
type = Stem;
}
);
layerId = m01;
shapes = (
{
closed = 1;
nodes = (
(368,739,cs),
(423,797,ls),
(427,802,o),
(431,808,o),
(431,816,cs),
(431,833,o),
(415,845,o),
(399,843,cs),
(356,837,o),
(321,802,o),
(319,759,cs),
(319,743,o),
(331,731,o),
(347,731,cs),
(356,731,o),
(363,733,o)
);
},
{
closed = 1;
nodes = (
(534,88,cs),
(205,88,l),
(205,302,l),
(496,302,ls),
(520,302,o),
(540,321,o),
(540,346,cs),
(540,370,o),
(520,389,o),
(496,389,cs),
(205,389,l),
(205,603,l),
(524,603,ls),
(548,603,o),
(568,622,o),
(568,647,cs),
(568,671,o),
(548,690,o),
(524,690,cs),
(153,690,ls),
(116,690,o),
(95,669,o),
(95,632,cs),
(95,58,ls),
(95,21,o),
(116,0,o),
(153,0,cs),
(534,0,ls),
(558,0,o),
(578,20,o),
(578,44,cs),
(578,68,o),
(558,88,o)
);
}
);
width = 600;
}
);
note = Eacute;
unicode = 201;
},
{
glyphname = Ecaron;
lastChange = "2022-11-29 13:48:59 +0000";
layers = (
{
hints = (
{
horizontal = 1;
place = (0, 88);
place = (0, 88);
type = Stem;
},
{
horizontal = 1;
place = (302, 87);
place = (302, 87);
type = Stem;
},
{
horizontal = 1;
place = (603, 87);
place = (603, 87);
type = Stem;
},
{
horizontal = 1;
place = (736, 102);
place = (736, 102);
type = Stem;
},
{
place = (95, 110);
place = (95, 110);
type = Stem;
}
);
layerId = m01;
shapes = (
{
closed = 1;
nodes = (
(318,736,cs),
(341,736,ls),
(384,736,o),
(420,771,o),
(422,813,cs),
(422,830,o),
(408,844,o),
(391,844,cs),
(379,844,o),
(368,837,o),
(363,827,cs),
(338,777,l),
(323,808,ls),
(313,828,o),
(272,833,o),
(266,794,cs),
(266,792,o),
(266,789,o),
(266,787,cs),
(266,758,o),
(290,736,o)
);
},
{
closed = 1;
nodes = (
(534,88,cs),
(205,88,l),
(205,302,l),
(496,302,ls),
(520,302,o),
(540,321,o),
(540,346,cs),
(540,370,o),
(520,389,o),
(496,389,cs),
(205,389,l),
(205,603,l),
(524,603,ls),
(548,603,o),
(568,622,o),
(568,647,cs),
(568,671,o),
(548,690,o),
(524,690,cs),
(153,690,ls),
(116,690,o),
(95,669,o),
(95,632,cs),
(95,58,ls),
(95,21,o),
(116,0,o),
(153,0,cs),
(534,0,ls),
(558,0,o),
(578,20,o),
(578,44,cs),
(578,68,o),
(558,88,o)
);
}
);
width = 600;
}
);
note = Ecaron;
unicode = 282;
},
{
glyphname = Ecircumflex;
lastChange = "2022-11-29 13:48:59 +0000";
layers = (
{
hints = (
{
horizontal = 1;
place = (0, 88);
place = (0, 88);
type = Stem;
},
{
horizontal = 1;
place = (302, 87);
place = (302, 87);
type = Stem;
},
{
horizontal = 1;
place = (603, 87);
place = (603, 87);
type = Stem;
},
{
horizontal = 1;
place = (736, 102);
place = (736, 102);
type = Stem;
},
{
place = (95, 110);
place = (95, 110);
type = Stem;
}
);
layerId = m01;
shapes = (
{
closed = 1;
nodes = (
(312,747,cs),
(337,796,l),
(353,766,ls),
(363,747,o),
(403,741,o),
(408,780,cs),
(409,782,o),
(409,785,o),
(409,787,cs),
(409,816,o),
(386,839,o),
(357,839,cs),
(328,839,o),
(305,816,o),
(305,787,cs),
(305,766,o),
(313,787,o),
(326,808,cs),
(338,827,o),
(345,838,o),
(334,838,cs),
(291,838,o),
(255,803,o),
(253,761,cs),
(253,744,o),
(267,730,o),
(284,730,cs),
(296,730,o),
(307,737,o)
);
},
{
closed = 1;
nodes = (
(534,88,cs),
(205,88,l),
(205,302,l),
(496,302,ls),
(520,302,o),
(540,321,o),
(540,346,cs),
(540,370,o),
(520,389,o),
(496,389,cs),
(205,389,l),
(205,603,l),
(524,603,ls),
(548,603,o),
(568,622,o),
(568,647,cs),
(568,671,o),
(548,690,o),
(524,690,cs),
(153,690,ls),
(116,690,o),
(95,669,o),
(95,632,cs),
(95,58,ls),
(95,21,o),
(116,0,o),
(153,0,cs),
(534,0,ls),
(558,0,o),
(578,20,o),
(578,44,cs),
(578,68,o),
(558,88,o)
);
}
);
width = 600;
}
);
note = Ecircumflex;
unicode = 202;
},
{
glyphname = Edieresis;
lastChange = "2022-11-29 13:48:59 +0000";
layers = (
{
hints = (
{
horizontal = 1;
place = (0, 88);
place = (0, 88);
type = Stem;
},
{
horizontal = 1;
place = (302, 87);
place = (302, 87);
type = Stem;
},
{
horizontal = 1;
place = (603, 87);
place = (603, 87);
type = Stem;
},
{
horizontal = 1;
place = (733, 106);
place = (733, 106);
type = Stem;
},
{
place = (206, 107);
place = (206, 107);
type = Stem;
},
{
place = (361, 107);
place = (361, 107);
type = Stem;
},
{
place = (95, 110);
place = (95, 110);
type = Stem;
}
);
layerId = m01;
shapes = (
{
closed = 1;
nodes = (
(534,88,cs),
(205,88,l),
(205,302,l),
(496,302,ls),
(520,302,o),
(540,321,o),
(540,346,cs),
(540,370,o),
(520,389,o),
(496,389,cs),
(205,389,l),
(205,603,l),
(524,603,ls),
(548,603,o),
(568,622,o),
(568,647,cs),
(568,671,o),
(548,690,o),
(524,690,cs),
(153,690,ls),
(116,690,o),
(95,669,o),
(95,632,cs),
(95,58,ls),
(95,21,o),
(116,0,o),
(153,0,cs),
(534,0,ls),
(558,0,o),
(578,20,o),
(578,44,cs),
(578,68,o),
(558,88,o)
);
},
{
closed = 1;
nodes = (
(252,730,cs),
(266,730,ls),
(294,730,o),
(318,753,o),
(318,781,cs),
(318,788,o),
(316,795,o),
(314,800,cs),
(305,823,o),
(284,841,o),
(258,841,cs),
(248,841,o),
(239,838,o),
(232,834,cs),
(213,824,o),
(199,805,o),
(199,783,cs),
(199,754,o),
(223,730,o)
);
},
{
closed = 1;
nodes = (
(407,730,cs),
(421,730,ls),
(449,730,o),
(473,753,o),
(473,781,cs),
(473,788,o),
(471,795,o),
(469,800,cs),
(460,823,o),
(439,841,o),
(413,841,cs),
(403,841,o),
(394,838,o),
(387,834,cs),
(368,824,o),
(354,805,o),
(354,783,cs),
(354,754,o),
(378,730,o)
);
}
);
width = 600;
}
);
note = Edieresis;
unicode = 203;
},
{
glyphname = Edotaccent;
lastChange = "2022-11-29 13:48:59 +0000";
layers = (
{
hints = (
{
horizontal = 1;
place = (0, 88);
place = (0, 88);
type = Stem;
},
{
horizontal = 1;
place = (302, 87);
place = (302, 87);
type = Stem;
},
{
horizontal = 1;
place = (603, 87);
place = (603, 87);
type = Stem;
},
{
horizontal = 1;
place = (734, 113);
place = (734, 113);
type = Stem;
},
{
place = (95, 110);
place = (95, 110);
type = Stem;
},
{
place = (279, 116);
place = (279, 116);
type = Stem;
}
);
layerId = m01;
shapes = (
{
closed = 1;
nodes = (
(370,734,o),
(395,758,o),
(395,791,cs),
(395,823,o),
(370,847,o),
(337,847,cs),
(304,847,o),
(279,823,o),
(279,791,cs),
(279,758,o),
(304,734,o),
(337,734,cs)
);
},
{
closed = 1;
nodes = (
(534,88,cs),
(205,88,l),
(205,302,l),
(496,302,ls),
(520,302,o),
(540,321,o),
(540,346,cs),
(540,370,o),
(520,389,o),
(496,389,cs),
(205,389,l),
(205,603,l),
(524,603,ls),
(548,603,o),
(568,622,o),
(568,647,cs),
(568,671,o),
(548,690,o),
(524,690,cs),
(153,690,ls),
(116,690,o),
(95,669,o),
(95,632,cs),
(95,58,ls),
(95,21,o),
(116,0,o),
(153,0,cs),
(534,0,ls),
(558,0,o),
(578,20,o),
(578,44,cs),
(578,68,o),
(558,88,o)
);
}
);
width = 600;
}
);
note = Edotaccent;
unicode = 278;
},
{
glyphname = Egrave;
lastChange = "2022-11-29 13:48:59 +0000";
layers = (
{
hints = (
{
horizontal = 1;
place = (0, 88);
place = (0, 88);
type = Stem;
},
{
horizontal = 1;
place = (302, 87);
place = (302, 87);
type = Stem;
},
{
horizontal = 1;
place = (603, 87);
place = (603, 87);
type = Stem;
},
{
horizontal = 1;
place = (736, 102);
place = (736, 102);
type = Stem;
},
{
place = (95, 110);
place = (95, 110);
type = Stem;
}
);
layerId = m01;
shapes = (
{
closed = 1;
nodes = (
(270,778,ls),
(296,750,o),
(338,743,o),
(344,780,cs),
(345,784,o),
(345,787,o),
(345,791,cs),
(345,822,o),
(320,841,o),
(290,844,c),
(270,844,o),
(255,828,o),
(255,808,cs),
(255,799,o),
(258,791,o),
(264,784,cs)
);
},
{
closed = 1;
nodes = (
(534,88,cs),
(205,88,l),
(205,302,l),
(496,302,ls),
(520,302,o),
(540,321,o),
(540,346,cs),
(540,370,o),
(520,389,o),
(496,389,cs),
(205,389,l),
(205,603,l),
(524,603,ls),
(548,603,o),
(568,622,o),
(568,647,cs),
(568,671,o),
(548,690,o),
(524,690,cs),
(153,690,ls),
(116,690,o),
(95,669,o),
(95,632,cs),
(95,58,ls),
(95,21,o),
(116,0,o),
(153,0,cs),
(534,0,ls),
(558,0,o),
(578,20,o),
(578,44,cs),
(578,68,o),
(558,88,o)
);
}
);
width = 600;
}
);
note = Egrave;
unicode = 200;
},
{
glyphname = Emacron;
lastChange = "2022-11-29 13:48:59 +0000";
layers = (
{
hints = (
{
horizontal = 1;
place = (0, 88);
place = (0, 88);
type = Stem;
},
{
horizontal = 1;
place = (302, 87);
place = (302, 87);
type = Stem;
},
{
horizontal = 1;
place = (603, 87);
place = (603, 87);
type = Stem;
},
{
horizontal = 1;
place = (758, 63);
place = (758, 63);
type = Stem;
},
{
place = (210, 255);
place = (210, 255);
type = Stem;
},
{
place = (95, 110);
place = (95, 110);
type = Stem;
}
);
layerId = m01;
shapes = (
{
closed = 1;
nodes = (
(439,758,ls),
(456,758,o),
(471,772,o),
(471,790,cs),
(471,807,o),
(456,821,o),
(439,821,cs),
(236,821,ls),
(219,821,o),
(205,807,o),
(205,790,cs),
(205,772,o),
(219,758,o),
(236,758,cs)
);
},
{
closed = 1;
nodes = (
(534,88,cs),
(205,88,l),
(205,302,l),
(496,302,ls),
(520,302,o),
(540,321,o),
(540,346,cs),
(540,370,o),
(520,389,o),
(496,389,cs),
(205,389,l),
(205,603,l),
(524,603,ls),
(548,603,o),
(568,622,o),
(568,647,cs),
(568,671,o),
(548,690,o),
(524,690,cs),
(153,690,ls),
(116,690,o),
(95,669,o),
(95,632,cs),
(95,58,ls),
(95,21,o),
(116,0,o),
(153,0,cs),
(534,0,ls),
(558,0,o),
(578,20,o),
(578,44,cs),
(578,68,o),
(558,88,o)
);
}
);
width = 600;
}
);
note = Emacron;
unicode = 274;
},
{
glyphname = Eogonek;
lastChange = "2022-11-29 13:48:59 +0000";
layers = (
{
hints = (
{
horizontal = 1;
place = (-223, 66);
place = (-223, 66);
type = Stem;
},
{
horizontal = 1;
place = (0, 88);
place = (0, 88);
type = Stem;
},
{
horizontal = 1;
place = (302, 87);
place = (302, 87);
type = Stem;
},
{
horizontal = 1;
place = (603, 87);
place = (603, 87);
type = Stem;
},
{
place = (95, 110);
place = (95, 110);
type = Stem;
},
{
place = (376, 102);
place = (376, 102);
type = Stem;
},
{
place = (462, 110);
place = (462, 110);
type = Stem;
}
);
layerId = m01;
shapes = (
{
closed = 1;
nodes = (
(495,-157,o),
(478,-144,o),
(478,-107,cs),
(478,-65,o),
(498,-31,o),
(526,-13,cs),
(549,1,o),
(574,3,o),
(582,28,cs),
(584,33,o),
(585,38,o),
(585,44,cs),
(585,72,o),
(562,95,o),
(534,95,cs),
(505,95,o),
(482,72,o),
(482,44,cs),
(482,16,o),
(505,-7,o),
(534,-7,cs),
(539,-7,o),
(537,17,o),
(535,40,cs),
(532,72,o),
(513,88,o),
(476,88,cs),
(205,88,l),
(205,302,l),
(496,302,ls),
(520,302,o),
(540,321,o),
(540,346,cs),
(540,370,o),
(520,389,o),
(496,389,cs),
(205,389,l),
(205,603,l),
(524,603,ls),
(548,603,o),
(568,622,o),
(568,647,cs),
(568,671,o),
(548,690,o),
(524,690,cs),
(153,690,ls),
(116,690,o),
(95,669,o),
(95,632,cs),
(95,58,ls),
(95,21,o),
(116,0,o),
(153,0,cs),
(462,0,l),
(415,-27,o),
(376,-75,o),
(376,-138,cs),
(376,-201,o),
(416,-223,o),
(474,-223,cs),
(509,-223,o),
(539,-215,o),
(567,-200,cs),
(575,-195,o),
(581,-187,o),
(581,-177,cs),
(581,-160,o),
(563,-148,o),
(547,-153,cs),
(538,-156,o),
(530,-157,o),
(522,-157,cs)
);
}
);
width = 600;
}
);
note = Eogonek;
unicode = 280;
},
{
glyphname = F;
kernRight = F;
lastChange = "2022-11-29 13:48:59 +0000";
layers = (
{
hints = (
{
horizontal = 1;
place = (0, 21);
target = up;
type = BottomGhost;
},
{
horizontal = 1;
place = (302, 87);
place = (302, 87);
type = Stem;
},
{
horizontal = 1;
place = (603, 87);
place = (603, 87);
type = Stem;
},
{
place = (95, 110);
place = (95, 110);
type = Stem;
}
);
layerId = m01;
shapes = (
{
closed = 1;
nodes = (
(205,603,l),
(524,603,ls),
(548,603,o),
(568,622,o),
(568,647,cs),
(568,671,o),
(548,690,o),
(524,690,cs),
(153,690,ls),
(116,690,o),
(95,669,o),
(95,632,cs),
(95,50,ls),
(95,20,o),
(120,-6,o),
(150,-6,cs),
(180,-6,o),
(205,20,o),
(205,50,cs),
(205,302,l),
(486,302,ls),
(510,302,o),
(530,321,o),
(530,346,cs),
(530,370,o),
(510,389,o),
(486,389,cs),
(205,389,l)
);
}
);
width = 579;
}
);
note = F;
unicode = 70;
},
{
glyphname = G;
kernLeft = C;
kernRight = G;
lastChange = "2022-11-29 13:48:59 +0000";
layers = (
{
hints = (
{
horizontal = 1;
place = (-14, 84);
place = (-14, 84);
type = Stem;
},
{
horizontal = 1;
place = (254, 88);
place = (254, 88);
type = Stem;
},
{
horizontal = 1;
place = (620, 84);
place = (620, 84);
type = Stem;
},
{
place = (49, 119);
place = (49, 119);
type = Stem;
},
{
place = (569, 94);
place = (569, 94);
type = Stem;
},
{
place = (560, 110);
place = (560, 110);
type = Stem;
},
{
horizontal = 1;
place = (0, 21);
target = up;
type = BottomGhost;
}
);
layerId = m01;
shapes = (
{
closed = 1;
nodes = (
(441,342,ls),
(417,342,o),
(397,322,o),
(397,298,cs),
(397,274,o),
(417,254,o),
(441,254,cs),
(556,254,l),
(550,143,o),
(476,70,o),
(374,70,cs),
(251,70,o),
(168,176,o),
(168,347,cs),
(168,510,o),
(251,620,o),
(379,620,cs),
(469,620,o),
(524,576,o),
(549,505,cs),
(558,478,o),
(564,455,o),
(590,447,cs),
(596,446,o),
(603,445,o),
(609,445,cs),
(620,445,o),
(632,446,o),
(642,450,cs),
(665,457,o),
(670,481,o),
(662,512,cs),
(634,625,o),
(542,704,o),
(381,704,cs),
(187,704,o),
(49,559,o),
(49,342,cs),
(49,132,o),
(165,-14,o),
(362,-14,cs),
(423,-14,o),
(472,0,o),
(509,26,cs),
(530,42,o),
(540,58,o),
(551,83,cs),
(567,117,l),
(570,40,ls),
(571,15,o),
(591,-6,o),
(616,-6,cs),
(642,-6,o),
(663,16,o),
(663,41,cs),
(663,284,ls),
(663,321,o),
(642,342,o),
(605,342,cs)
);
}
);
width = 722;
}
);
note = G;
unicode = 71;
},
{
glyphname = Gbreve;
kernLeft = C;
kernRight = G;
lastChange = "2022-11-29 13:48:59 +0000";
layers = (
{
hints = (
{
horizontal = 1;
place = (-14, 84);
place = (-14, 84);
type = Stem;
},
{
horizontal = 1;
place = (254, 88);
place = (254, 88);
type = Stem;
},
{
horizontal = 1;
place = (620, 84);
place = (620, 84);
type = Stem;
},
{
horizontal = 1;
place = (724, 62);
place = (724, 62);
type = Stem;
},
{
place = (49, 119);
place = (49, 119);
type = Stem;
},
{
place = (259, 62);
place = (259, 62);
type = Stem;
},
{
place = (417, 62);
place = (417, 62);
type = Stem;
},
{
place = (569, 94);
place = (569, 94);
type = Stem;
},
{
place = (560, 110);
place = (560, 110);
type = Stem;
},
{
horizontal = 1;
place = (0, 21);
target = up;
type = BottomGhost;
}
);
layerId = m01;
shapes = (
{
closed = 1;
nodes = (
(428,724,o),
(465,750,o),
(476,806,cs),
(480,826,o),
(464,844,o),
(445,844,cs),
(430,844,o),
(418,833,o),
(414,820,cs),
(408,796,o),
(392,786,o),
(369,786,cs),
(346,786,o),
(330,796,o),
(324,820,cs),
(320,833,o),
(308,844,o),
(293,844,cs),
(274,844,o),
(259,825,o),
(262,806,cs),
(273,750,o),
(309,724,o),
(369,724,cs)
);
},
{
closed = 1;
nodes = (
(441,342,ls),
(417,342,o),
(397,322,o),
(397,298,cs),
(397,274,o),
(417,254,o),
(441,254,cs),
(556,254,l),
(550,143,o),
(476,70,o),
(374,70,cs),
(251,70,o),
(168,176,o),
(168,347,cs),
(168,510,o),
(251,620,o),
(379,620,cs),
(469,620,o),
(524,576,o),
(549,505,cs),
(558,478,o),
(564,455,o),
(590,447,cs),
(596,446,o),
(603,445,o),
(609,445,cs),
(620,445,o),
(632,446,o),
(642,450,cs),
(665,457,o),
(670,481,o),
(662,512,cs),
(634,625,o),
(542,704,o),
(381,704,cs),
(187,704,o),
(49,559,o),
(49,342,cs),
(49,132,o),
(165,-14,o),
(362,-14,cs),
(423,-14,o),
(472,0,o),
(509,26,cs),
(530,42,o),
(540,58,o),
(551,83,cs),
(567,117,l),
(570,40,ls),
(571,15,o),
(591,-6,o),
(616,-6,cs),
(642,-6,o),
(663,16,o),
(663,41,cs),
(663,284,ls),
(663,321,o),
(642,342,o),
(605,342,cs)
);
}
);
width = 722;
}
);
note = Gbreve;
unicode = 286;
},
{
glyphname = Gcommaaccent;
kernLeft = C;
kernRight = G;
lastChange = "2022-11-29 13:48:59 +0000";
layers = (
{
hints = (
{
horizontal = 1;
place = (-14, 84);
place = (-14, 84);
type = Stem;
},
{
horizontal = 1;
place = (254, 88);
place = (254, 88);
type = Stem;
},
{
horizontal = 1;
place = (620, 84);
place = (620, 84);
type = Stem;
},
{
place = (49, 119);
place = (49, 119);
type = Stem;
},
{
place = (569, 94);
place = (569, 94);
type = Stem;
},
{
place = (560, 110);
place = (560, 110);
type = Stem;
},
{
horizontal = 1;
place = (-200, 152);
place = (-200, 152);
type = Stem;
},
{
horizontal = 1;
place = (0, 21);
target = up;
type = BottomGhost;
}
);
layerId = m01;
shapes = (
{
closed = 1;
nodes = (
(441,342,ls),
(417,342,o),
(397,322,o),
(397,298,cs),
(397,274,o),
(417,254,o),
(441,254,cs),
(556,254,l),
(550,143,o),
(476,70,o),
(374,70,cs),
(251,70,o),
(168,176,o),
(168,347,cs),
(168,510,o),
(251,620,o),
(379,620,cs),
(469,620,o),
(524,576,o),
(549,505,cs),
(558,478,o),
(564,455,o),
(590,447,cs),
(596,446,o),
(603,445,o),
(609,445,cs),
(620,445,o),
(632,446,o),
(642,450,cs),
(665,457,o),
(670,481,o),
(662,512,cs),
(634,625,o),
(542,704,o),
(381,704,cs),
(187,704,o),
(49,559,o),
(49,342,cs),
(49,132,o),
(165,-14,o),
(362,-14,cs),
(423,-14,o),
(472,0,o),
(509,26,cs),
(530,42,o),
(540,58,o),
(551,83,cs),
(567,117,l),
(570,40,ls),
(571,15,o),
(591,-6,o),
(616,-6,cs),
(642,-6,o),
(663,16,o),
(663,41,cs),
(663,284,ls),
(663,321,o),
(642,342,o),
(605,342,cs)
);
},
{
closed = 1;
nodes = (
(331,-72,cs),
(297,-160,ls),
(296,-164,o),
(294,-168,o),
(294,-172,cs),
(294,-191,o),
(309,-205,o),
(328,-205,cs),
(341,-205,o),
(352,-198,o),
(357,-187,cs),
(399,-105,ls),
(415,-74,o),
(414,-36,o),
(379,-34,cs),
(378,-34,o),
(376,-34,o),
(375,-34,cs),
(351,-34,o),
(339,-52,o)
);
}
);
width = 722;
}
);
note = Gcommaaccent;
unicode = 290;
},
{
glyphname = Gdotaccent;
kernLeft = C;
kernRight = G;
lastChange = "2022-11-29 13:48:59 +0000";
layers = (
{
hints = (
{
horizontal = 1;
place = (-14, 84);
place = (-14, 84);
type = Stem;
},
{
horizontal = 1;
place = (254, 88);
place = (254, 88);
type = Stem;
},
{
horizontal = 1;
place = (620, 84);
place = (620, 84);
type = Stem;
},
{
horizontal = 1;
place = (734, 113);
place = (734, 113);
type = Stem;
},
{
place = (49, 119);
place = (49, 119);
type = Stem;
},
{
place = (311, 116);
place = (311, 116);
type = Stem;
},
{
place = (569, 94);
place = (569, 94);
type = Stem;
},
{
place = (560, 110);
place = (560, 110);
type = Stem;
},
{
horizontal = 1;
place = (0, 21);
target = up;
type = BottomGhost;
}
);
layerId = m01;
shapes = (
{
closed = 1;
nodes = (
(402,734,o),
(427,758,o),
(427,791,cs),
(427,823,o),
(402,847,o),
(369,847,cs),
(336,847,o),
(311,823,o),
(311,791,cs),
(311,758,o),
(336,734,o),
(369,734,cs)
);
},
{
closed = 1;
nodes = (
(441,342,ls),
(417,342,o),
(397,322,o),
(397,298,cs),
(397,274,o),
(417,254,o),
(441,254,cs),
(556,254,l),
(550,143,o),
(476,70,o),
(374,70,cs),
(251,70,o),
(168,176,o),
(168,347,cs),
(168,510,o),
(251,620,o),
(379,620,cs),
(469,620,o),
(524,576,o),
(549,505,cs),
(558,478,o),
(564,455,o),
(590,447,cs),
(596,446,o),
(603,445,o),
(609,445,cs),
(620,445,o),
(632,446,o),
(642,450,cs),
(665,457,o),
(670,481,o),
(662,512,cs),
(634,625,o),
(542,704,o),
(381,704,cs),
(187,704,o),
(49,559,o),
(49,342,cs),
(49,132,o),
(165,-14,o),
(362,-14,cs),
(423,-14,o),
(472,0,o),
(509,26,cs),
(530,42,o),
(540,58,o),
(551,83,cs),
(567,117,l),
(570,40,ls),
(571,15,o),
(591,-6,o),
(616,-6,cs),
(642,-6,o),
(663,16,o),
(663,41,cs),
(663,284,ls),
(663,321,o),
(642,342,o),
(605,342,cs)
);
}
);
width = 722;
}
);
note = Gdotaccent;
unicode = 288;
},
{
glyphname = H;
lastChange = "2022-11-29 13:48:59 +0000";
layers = (
{
hints = (
{
horizontal = 1;
place = (0, 21);
target = up;
type = BottomGhost;
},
{
horizontal = 1;
place = (294, 89);
place = (294, 89);
type = Stem;
},
{
horizontal = 1;
place = (690, -20);
target = down;
type = TopGhost;
},
{
place = (95, 110);
place = (95, 110);
type = Stem;
},
{
place = (559, 109);
place = (559, 109);
type = Stem;
}
);
layerId = m01;
shapes = (
{
closed = 1;
nodes = (
(668,641,ls),
(668,671,o),
(644,696,o),
(614,696,cs),
(583,696,o),
(559,671,o),
(559,641,cs),
(559,383,l),
(205,383,l),
(205,641,ls),
(205,671,o),
(180,696,o),
(150,696,cs),
(120,696,o),
(95,671,o),
(95,641,cs),
(95,50,ls),
(95,20,o),
(120,-6,o),
(150,-6,cs),
(180,-6,o),
(205,20,o),
(205,50,cs),
(205,294,l),
(559,294,l),
(559,49,ls),
(559,19,o),
(583,-6,o),
(614,-6,cs),
(644,-6,o),
(668,19,o),
(668,49,cs)
);
}
);
width = 740;
}
);
note = H;
unicode = 72;
},
{
glyphname = Hbar;
lastChange = "2022-11-29 13:48:59 +0000";
layers = (
{
hints = (
{
horizontal = 1;
place = (0, 21);
target = up;
type = BottomGhost;
},
{
horizontal = 1;
place = (294, 89);
place = (294, 89);
type = Stem;
},
{
horizontal = 1;
place = (497, 66);
place = (497, 66);
type = Stem;
},
{
place = (95, 110);
place = (95, 110);
type = Stem;
},
{
place = (559, 109);
place = (559, 109);
type = Stem;
},
{
horizontal = 1;
place = (497, 193);
place = (497, 193);
type = Stem;
}
);
layerId = m01;
shapes = (
{
closed = 1;
nodes = (
(681,497,ls),
(699,497,o),
(714,512,o),
(714,530,cs),
(714,548,o),
(699,563,o),
(681,563,cs),
(668,563,l),
(668,641,ls),
(668,671,o),
(644,696,o),
(614,696,cs),
(583,696,o),
(559,671,o),
(559,641,cs),
(559,563,l),
(205,563,l),
(205,641,ls),
(205,671,o),
(180,696,o),
(150,696,cs),
(120,696,o),
(95,671,o),
(95,641,cs),
(95,563,l),
(83,563,ls),
(65,563,o),
(50,548,o),
(50,530,cs),
(50,512,o),
(65,497,o),
(83,497,cs),
(95,497,l),
(95,50,ls),
(95,20,o),
(120,-6,o),
(150,-6,cs),
(180,-6,o),
(205,20,o),
(205,50,cs),
(205,294,l),
(559,294,l),
(559,49,ls),
(559,19,o),
(583,-6,o),
(614,-6,cs),
(644,-6,o),
(668,19,o),
(668,49,cs),
(668,497,l)
);
},
{
closed = 1;
nodes = (
(559,497,l),
(559,383,l),
(205,383,l),
(205,497,l)
);
}
);
width = 740;
}
);
note = Hbar;
unicode = 294;
},
{
glyphname = I;
lastChange = "2022-11-29 13:48:59 +0000";
layers = (
{
hints = (
{
horizontal = 1;
place = (0, 21);
target = up;
type = BottomGhost;
},
{
horizontal = 1;
place = (690, -20);
target = down;
type = TopGhost;
},
{
place = (95, 110);
place = (95, 110);
type = Stem;
}
);
layerId = m01;
shapes = (
{
closed = 1;
nodes = (
(205,50,cs),
(205,641,ls),
(205,671,o),
(180,696,o),
(150,696,cs),
(120,696,o),
(95,671,o),
(95,641,cs),
(95,50,ls),
(95,20,o),
(120,-6,o),
(150,-6,cs),
(180,-6,o),
(205,20,o)
);
}
);
width = 277;
}
);
note = I;
unicode = 73;
},
{
glyphname = IJ;
kernRight = IJ;
lastChange = "2022-11-29 13:48:59 +0000";
layers = (
{
hints = (
{
horizontal = 1;
place = (0, 21);
target = up;
type = BottomGhost;
},
{
horizontal = 1;
place = (690, -20);
target = down;
type = TopGhost;
},
{
place = (95, 110);
place = (95, 110);
type = Stem;
},
{
place = (680, 110);
place = (680, 110);
type = Stem;
},
{
horizontal = 1;
place = (-14, 84);
place = (-14, 84);
type = Stem;
},
{
place = (330.5, 110.5);
place = (330.5, 110.5);
type = Stem;
}
);
layerId = m01;
shapes = (
{
closed = 1;
nodes = (
(205,50,cs),
(205,641,ls),
(205,671,o),
(180,696,o),
(150,696,cs),
(120,696,o),
(95,671,o),
(95,641,cs),
(95,50,ls),
(95,20,o),
(120,-6,o),
(150,-6,cs),
(180,-6,o),
(205,20,o)
);
},
{
closed = 1;
nodes = (
(790,641,ls),
(790,671,o),
(765,696,o),
(735,696,cs),
(705,696,o),
(680,671,o),
(680,641,cs),
(680,268,ls),
(680,236,o),
(680,212,o),
(679,191,cs),
(673,116,o),
(637,70,o),
(564,70,cs),
(490,70,o),
(447,110,o),
(442,204,c),
(437,229,o),
(414,248,o),
(387,248,cs),
(373,248,o),
(359,243,o),
(349,234,cs),
(329,216,o),
(330,194,o),
(334,168,cs),
(350,55,o),
(424,-14,o),
(554,-14,cs),
(708,-14,o),
(780,67,o),
(787,184,cs),
(790,223,o),
(790,245,o),
(790,273,cs)
);
}
);
width = 844;
}
);
note = IJ;
unicode = 306;
},
{
glyphname = Iacute;
lastChange = "2022-11-29 13:48:59 +0000";
layers = (
{
hints = (
{
horizontal = 1;
place = (0, 21);
target = up;
type = BottomGhost;
},
{
horizontal = 1;
place = (690, -20);
target = down;
type = TopGhost;
},
{
horizontal = 1;
place = (736, 102);
place = (736, 102);
type = Stem;
},
{
place = (95, 110);
place = (95, 110);
type = Stem;
}
);
layerId = m01;
shapes = (
{
closed = 1;
nodes = (
(181,739,cs),
(236,797,ls),
(240,802,o),
(244,808,o),
(244,816,cs),
(244,833,o),
(228,845,o),
(212,843,cs),
(169,837,o),
(134,802,o),
(132,759,cs),
(132,743,o),
(144,731,o),
(160,731,cs),
(169,731,o),
(176,733,o)
);
},
{
closed = 1;
nodes = (
(205,50,cs),
(205,641,ls),
(205,671,o),
(180,696,o),
(150,696,cs),
(120,696,o),
(95,671,o),
(95,641,cs),
(95,50,ls),
(95,20,o),
(120,-6,o),
(150,-6,cs),
(180,-6,o),
(205,20,o)
);
}
);
width = 277;
}
);
note = Iacute;
unicode = 205;
},
{
glyphname = Icircumflex;
lastChange = "2022-11-29 13:48:59 +0000";
layers = (
{
hints = (
{
horizontal = 1;
place = (0, 21);
target = up;
type = BottomGhost;
},
{
horizontal = 1;
place = (690, -20);
target = down;
type = TopGhost;
},
{
horizontal = 1;
place = (736, 102);
place = (736, 102);
type = Stem;
},
{
place = (95, 110);
place = (95, 110);
type = Stem;
}
);
layerId = m01;
shapes = (
{
closed = 1;
nodes = (
(125,747,cs),
(150,796,l),
(166,766,ls),
(176,747,o),
(216,741,o),
(221,780,cs),
(222,782,o),
(222,785,o),
(222,787,cs),
(222,816,o),
(199,839,o),
(170,839,cs),
(141,839,o),
(118,816,o),
(118,787,cs),
(118,766,o),
(126,787,o),
(139,808,cs),
(151,827,o),
(158,838,o),
(147,838,cs),
(104,838,o),
(68,803,o),
(66,761,cs),
(66,744,o),
(80,730,o),
(97,730,cs),
(109,730,o),
(120,737,o)
);
},
{
closed = 1;
nodes = (
(95,641,cs),
(95,50,ls),
(95,20,o),
(120,-6,o),
(150,-6,cs),
(180,-6,o),
(205,20,o),
(205,50,cs),
(205,641,ls),
(205,671,o),
(180,696,o),
(150,696,cs),
(120,696,o),
(95,671,o)
);
}
);
width = 277;
}
);
note = Icircumflex;
unicode = 206;
},
{
glyphname = Idieresis;
lastChange = "2022-11-29 13:48:59 +0000";
layers = (
{
hints = (
{
horizontal = 1;
place = (0, 21);
target = up;
type = BottomGhost;
},
{
horizontal = 1;
place = (690, -20);
target = down;
type = TopGhost;
},
{
horizontal = 1;
place = (733, 106);
place = (733, 106);
type = Stem;
},
{
place = (95, 110);
place = (95, 110);
type = Stem;
},
{
place = (19, 107);
place = (19, 107);
type = Stem;
},
{
place = (174, 107);
place = (174, 107);
type = Stem;
}
);
layerId = m01;
shapes = (
{
closed = 1;
nodes = (
(205,50,cs),
(205,641,ls),
(205,671,o),
(180,696,o),
(150,696,cs),
(120,696,o),
(95,671,o),
(95,641,cs),
(95,50,ls),
(95,20,o),
(120,-6,o),
(150,-6,cs),
(180,-6,o),
(205,20,o)
);
},
{
closed = 1;
nodes = (
(66,733,cs),
(80,733,ls),
(108,733,o),
(132,756,o),
(132,784,cs),
(132,791,o),
(130,798,o),
(128,803,cs),
(119,826,o),
(98,844,o),
(72,844,cs),
(62,844,o),
(53,841,o),
(46,837,cs),
(27,827,o),
(13,808,o),
(13,786,cs),
(13,757,o),
(37,733,o)
);
},
{
closed = 1;
nodes = (
(221,733,cs),
(235,733,ls),
(263,733,o),
(287,756,o),
(287,784,cs),
(287,791,o),
(285,798,o),
(283,803,cs),
(274,826,o),
(253,844,o),
(227,844,cs),
(217,844,o),
(208,841,o),
(201,837,cs),
(182,827,o),
(168,808,o),
(168,786,cs),
(168,757,o),
(192,733,o)
);
}
);
width = 277;
}
);
note = Idieresis;
unicode = 207;
},
{
glyphname = Idotaccent;
lastChange = "2022-11-29 13:48:59 +0000";
layers = (
{
hints = (
{
horizontal = 1;
place = (0, 21);
target = up;
type = BottomGhost;
},
{
horizontal = 1;
place = (690, -20);
target = down;
type = TopGhost;
},
{
place = (95, 110);
place = (95, 110);
type = Stem;
},
{
horizontal = 1;
place = (589, 127);
place = (589, 127);
type = Stem;
},
{
place = (363, 129);
place = (363, 129);
type = Stem;
}
);
layerId = m01;
shapes = (
{
closed = 1;
nodes = (
(205,50,cs),
(205,641,ls),
(205,671,o),
(180,696,o),
(150,696,cs),
(120,696,o),
(95,671,o),
(95,641,cs),
(95,50,ls),
(95,20,o),
(120,-6,o),
(150,-6,cs),
(180,-6,o),
(205,20,o)
);
},
{
closed = 1;
nodes = (
(185,734,o),
(210,758,o),
(210,791,cs),
(210,823,o),
(185,847,o),
(152,847,cs),
(119,847,o),
(94,823,o),
(94,791,cs),
(94,758,o),
(119,734,o),
(152,734,cs)
);
}
);
width = 304;
}
);
unicode = 304;
},
{
glyphname = Igrave;
lastChange = "2022-11-29 13:48:59 +0000";
layers = (
{
hints = (
{
horizontal = 1;
place = (0, 21);
target = up;
type = BottomGhost;
},
{
horizontal = 1;
place = (690, -20);
target = down;
type = TopGhost;
},
{
horizontal = 1;
place = (736, 102);
place = (736, 102);
type = Stem;
},
{
place = (95, 110);
place = (95, 110);
type = Stem;
}
);
layerId = m01;
shapes = (
{
closed = 1;
nodes = (
(168,760,cs),
(123,821,o),
(76,847,o),
(69,817,cs),
(68,814,o),
(68,811,o),
(68,808,cs),
(68,799,o),
(71,791,o),
(77,784,cs),
(120,739,ls),
(125,733,o),
(132,731,o),
(141,731,cs),
(157,731,o),
(169,743,o),
(169,759,c),
(169,759,o),
(169,759,o)
);
},
{
closed = 1;
nodes = (
(205,50,cs),
(205,641,ls),
(205,671,o),
(180,696,o),
(150,696,cs),
(120,696,o),
(95,671,o),
(95,641,cs),
(95,50,ls),
(95,20,o),
(120,-6,o),
(150,-6,cs),
(180,-6,o),
(205,20,o)
);
}
);
width = 277;
}
);
note = Igrave;
unicode = 204;
},
{
glyphname = Imacron;
lastChange = "2022-11-29 13:48:59 +0000";
layers = (
{
hints = (
{
horizontal = 1;
place = (0, 21);
target = up;
type = BottomGhost;
},
{
horizontal = 1;
place = (690, -20);
target = down;
type = TopGhost;
},
{
horizontal = 1;
place = (758, 63);
place = (758, 63);
type = Stem;
},
{
place = (95, 110);
place = (95, 110);
type = Stem;
}
);
layerId = m01;
shapes = (
{
closed = 1;
nodes = (
(252,758,ls),
(269,758,o),
(284,772,o),
(284,790,cs),
(284,807,o),
(269,821,o),
(252,821,cs),
(49,821,ls),
(32,821,o),
(18,807,o),
(18,790,cs),
(18,772,o),
(32,758,o),
(49,758,cs)
);
},
{
closed = 1;
nodes = (
(205,50,cs),
(205,641,ls),
(205,671,o),
(180,696,o),
(150,696,cs),
(120,696,o),
(95,671,o),
(95,641,cs),
(95,50,ls),
(95,20,o),
(120,-6,o),
(150,-6,cs),
(180,-6,o),
(205,20,o)
);
}
);
width = 277;
}
);
note = Imacron;
unicode = 298;
},
{
glyphname = Iogonek;
lastChange = "2022-11-29 13:48:59 +0000";
layers = (
{
hints = (
{
horizontal = 1;
place = (-223, 66);
place = (-223, 66);
type = Stem;
},
{
horizontal = 1;
place = (0, 21);
target = up;
type = BottomGhost;
},
{
horizontal = 1;
place = (690, -20);
target = down;
type = TopGhost;
},
{
place = (95, 110);
place = (95, 110);
type = Stem;
},
{
place = (-12, 102);
place = (-12, 102);
type = Stem;
}
);
layerId = m01;
shapes = (
{
closed = 1;
nodes = (
(193,0,o),
(205,21,o),
(205,58,cs),
(205,641,ls),
(205,671,o),
(180,696,o),
(150,696,cs),
(120,696,o),
(95,671,o),
(95,641,cs),
(95,10,l),
(95,10,ls),
(95,10,o),
(80,6,o),
(54,-13,cs),
(17,-41,o),
(-12,-84,o),
(-12,-138,cs),
(-12,-201,o),
(28,-223,o),
(86,-223,cs),
(121,-223,o),
(151,-215,o),
(179,-200,cs),
(187,-195,o),
(193,-187,o),
(193,-177,cs),
(193,-160,o),
(175,-148,o),
(159,-153,cs),
(150,-156,o),
(142,-157,o),
(134,-157,cs),
(107,-157,o),
(90,-144,o),
(90,-107,cs),
(90,-50,o),
(128,-7,o),
(172,0,c)
);
}
);
width = 277;
}
);
note = Iogonek;
unicode = 302;
},
{
glyphname = J;
kernLeft = J;
kernRight = IJ;
lastChange = "2022-11-29 13:48:59 +0000";
layers = (
{
hints = (
{
horizontal = 1;
place = (-14, 84);
place = (-14, 84);
type = Stem;
},
{
horizontal = 1;
place = (690, -20);
target = down;
type = TopGhost;
},
{
place = (53.5, 110.5);
place = (53.5, 110.5);
type = Stem;
},
{
place = (403, 110);
place = (403, 110);
type = Stem;
}
);
layerId = m01;
shapes = (
{
closed = 1;
nodes = (
(513,641,ls),
(513,671,o),
(488,696,o),
(458,696,cs),
(428,696,o),
(403,671,o),
(403,641,cs),
(403,268,ls),
(403,236,o),
(403,212,o),
(402,191,cs),
(396,116,o),
(360,70,o),
(287,70,cs),
(213,70,o),
(170,110,o),
(165,204,c),
(160,229,o),
(137,248,o),
(110,248,cs),
(96,248,o),
(82,243,o),
(72,234,cs),
(52,216,o),
(53,194,o),
(57,168,cs),
(73,55,o),
(147,-14,o),
(277,-14,cs),
(431,-14,o),
(503,67,o),
(510,184,cs),
(513,223,o),
(513,245,o),
(513,273,cs)
);
}
);
width = 568;
}
);
note = J;
unicode = 74;
},
{
glyphname = K;
kernRight = K;
lastChange = "2022-11-29 13:48:59 +0000";
layers = (
{
hints = (
{
horizontal = 1;
place = (0, 21);
target = up;
type = BottomGhost;
},
{
horizontal = 1;
place = (690, -20);
target = down;
type = TopGhost;
},
{
place = (95, 110);
place = (95, 110);
type = Stem;
}
);
layerId = m01;
shapes = (
{
closed = 1;
nodes = (
(346,356,l),
(590,619,ls),
(624,656,o),
(614,690,o),
(569,690,cs),
(539,690,o),
(517,681,o),
(497,659,cs),
(205,339,l),
(205,641,ls),
(205,671,o),
(180,696,o),
(150,696,cs),
(120,696,o),
(95,671,o),
(95,641,cs),
(95,50,ls),
(95,20,o),
(120,-6,o),
(150,-6,cs),
(180,-6,o),
(205,20,o),
(205,50,cs),
(205,222,l),
(266,288,l),
(480,16,ls),
(490,3,o),
(507,-6,o),
(525,-6,cs),
(556,-6,o),
(581,20,o),
(581,51,cs),
(581,65,o),
(576,78,o),
(568,87,cs)
);
}
);
width = 643;
}
);
note = K;
unicode = 75;
},
{
glyphname = Kcommaaccent;
kernRight = K;
lastChange = "2022-11-29 13:48:59 +0000";
layers = (
{
hints = (
{
horizontal = 1;
place = (-200, 152);
place = (-200, 152);
type = Stem;
},
{
horizontal = 1;
place = (0, 21);
target = up;
type = BottomGhost;
},
{
horizontal = 1;
place = (690, -20);
target = down;
type = TopGhost;
},
{
place = (95, 110);
place = (95, 110);
type = Stem;
}
);
layerId = m01;
shapes = (
{
closed = 1;
nodes = (
(346,356,l),
(590,619,ls),
(624,656,o),
(614,690,o),
(569,690,cs),
(539,690,o),
(517,681,o),
(497,659,cs),
(205,339,l),
(205,641,ls),
(205,671,o),
(180,696,o),
(150,696,cs),
(120,696,o),
(95,671,o),
(95,641,cs),
(95,50,ls),
(95,20,o),
(120,-6,o),
(150,-6,cs),
(180,-6,o),
(205,20,o),
(205,50,cs),
(205,222,l),
(266,288,l),
(480,16,ls),
(490,3,o),
(507,-6,o),
(525,-6,cs),
(556,-6,o),
(581,20,o),
(581,51,cs),
(581,65,o),
(576,78,o),
(568,87,cs)
);
},
{
closed = 1;
nodes = (
(303,-72,cs),
(269,-160,ls),
(268,-164,o),
(266,-168,o),
(266,-172,cs),
(266,-191,o),
(281,-205,o),
(300,-205,cs),
(313,-205,o),
(324,-198,o),
(329,-187,cs),
(371,-105,ls),
(387,-74,o),
(386,-36,o),
(351,-34,cs),
(350,-34,o),
(348,-34,o),
(347,-34,cs),
(323,-34,o),
(311,-52,o)
);
}
);
width = 643;
}
);
note = Kcommaaccent;
unicode = 310;
},
{
glyphname = L;
kernRight = L;
lastChange = "2022-11-29 13:48:59 +0000";
layers = (
{
hints = (
{
horizontal = 1;
place = (0, 91);
place = (0, 91);
type = Stem;
},
{
horizontal = 1;
place = (690, -20);
target = down;
type = TopGhost;
},
{
place = (95, 110);
place = (95, 110);
type = Stem;
}
);
layerId = m01;
shapes = (
{
closed = 1;
nodes = (
(532,91,cs),
(205,91,l),
(205,641,ls),
(205,671,o),
(180,696,o),
(150,696,cs),
(120,696,o),
(95,671,o),
(95,641,cs),
(95,58,ls),
(95,21,o),
(116,0,o),
(153,0,cs),
(532,0,ls),
(557,0,o),
(578,20,o),
(578,46,cs),
(578,71,o),
(557,91,o)
);
}
);
width = 588;
}
);
note = L;
unicode = 76;
},
{
glyphname = Lacute;
kernRight = L;
lastChange = "2022-11-29 13:48:59 +0000";
layers = (
{
hints = (
{
horizontal = 1;
place = (0, 91);
place = (0, 91);
type = Stem;
},
{
horizontal = 1;
place = (690, -20);
target = down;
type = TopGhost;
},
{
horizontal = 1;
place = (736, 102);
place = (736, 102);
type = Stem;
},
{
place = (95, 110);
place = (95, 110);
type = Stem;
}
);
layerId = m01;
shapes = (
{
closed = 1;
nodes = (
(181,739,cs),
(236,797,ls),
(240,802,o),
(244,808,o),
(244,816,cs),
(244,833,o),
(228,845,o),
(212,843,cs),
(169,837,o),
(134,802,o),
(132,759,cs),
(132,743,o),
(144,731,o),
(160,731,cs),
(169,731,o),
(176,733,o)
);
},
{
closed = 1;
nodes = (
(532,91,cs),
(205,91,l),
(205,641,ls),
(205,671,o),
(180,696,o),
(150,696,cs),
(120,696,o),
(95,671,o),
(95,641,cs),
(95,58,ls),
(95,21,o),
(116,0,o),
(153,0,cs),
(532,0,ls),
(557,0,o),
(578,20,o),
(578,46,cs),
(578,71,o),
(557,91,o)
);
}
);
width = 588;
}
);
note = Lacute;
unicode = 313;
},
{
glyphname = Lcaron;
kernRight = L;
lastChange = "2022-11-29 13:48:59 +0000";
layers = (
{
hints = (
{
horizontal = 1;
place = (0, 91);
place = (0, 91);
type = Stem;
},
{
horizontal = 1;
place = (690, -20);
target = down;
type = TopGhost;
},
{
place = (95, 110);
place = (95, 110);
type = Stem;
}
);
layerId = m01;
shapes = (
{
closed = 1;
nodes = (
(532,91,cs),
(205,91,l),
(205,641,ls),
(205,671,o),
(180,696,o),
(150,696,cs),
(120,696,o),
(95,671,o),
(95,641,cs),
(95,58,ls),
(95,21,o),
(116,0,o),
(153,0,cs),
(532,0,ls),
(557,0,o),
(578,20,o),
(578,46,cs),
(578,71,o),
(557,91,o)
);
}
);
width = 588;
}
);
note = Lcaron;
unicode = 317;
},
{
glyphname = Lcommaaccent;
kernRight = L;
lastChange = "2022-11-29 13:48:59 +0000";
layers = (
{
hints = (
{
horizontal = 1;
place = (-200, 152);
place = (-200, 152);
type = Stem;
},
{
horizontal = 1;
place = (0, 91);
place = (0, 91);
type = Stem;
},
{
horizontal = 1;
place = (690, -20);
target = down;
type = TopGhost;
},
{
place = (95, 110);
place = (95, 110);
type = Stem;
}
);
layerId = m01;
shapes = (
{
closed = 1;
nodes = (
(532,91,cs),
(205,91,l),
(205,641,ls),
(205,671,o),
(180,696,o),
(150,696,cs),
(120,696,o),
(95,671,o),
(95,641,cs),
(95,58,ls),
(95,21,o),
(116,0,o),
(153,0,cs),
(532,0,ls),
(557,0,o),
(578,20,o),
(578,46,cs),
(578,71,o),
(557,91,o)
);
},
{
closed = 1;
nodes = (
(293,-72,cs),
(259,-160,ls),
(258,-164,o),
(256,-168,o),
(256,-172,cs),
(256,-191,o),
(271,-205,o),
(290,-205,cs),
(303,-205,o),
(314,-198,o),
(319,-187,cs),
(361,-105,ls),
(377,-74,o),
(376,-36,o),
(341,-34,cs),
(340,-34,o),
(338,-34,o),
(337,-34,cs),
(313,-34,o),
(301,-52,o)
);
}
);
width = 588;
}
);
note = Lcommaaccent;
unicode = 315;
},
{
glyphname = Ldot;
kernRight = L;
lastChange = "2022-11-29 13:48:59 +0000";
layers = (
{
hints = (
{
horizontal = 1;
place = (0, 91);
place = (0, 91);
type = Stem;
},
{
horizontal = 1;
place = (334, 132);
place = (334, 132);
type = Stem;
},
{
horizontal = 1;
place = (690, -20);
target = down;
type = TopGhost;
},
{
place = (95, 110);
place = (95, 110);
type = Stem;
},
{
place = (340, 133);
place = (340, 133);
type = Stem;
}
);
layerId = m01;
shapes = (
{
closed = 1;
nodes = (
(532,91,cs),
(205,91,l),
(205,641,ls),
(205,671,o),
(180,696,o),
(150,696,cs),
(120,696,o),
(95,671,o),
(95,641,cs),
(95,58,ls),
(95,21,o),
(116,0,o),
(153,0,cs),
(532,0,ls),
(557,0,o),
(578,20,o),
(578,46,cs),
(578,71,o),
(557,91,o)
);
},
{
closed = 1;
nodes = (
(444,334,o),
(473,363,o),
(473,400,cs),
(473,438,o),
(444,466,o),
(407,466,cs),
(369,466,o),
(340,438,o),
(340,400,cs),
(340,363,o),
(369,334,o),
(407,334,cs)
);
}
);
width = 588;
}
);
note = Ldot;
unicode = 319;
},
{
glyphname = Lslash;
kernRight = L;
lastChange = "2022-11-29 13:48:59 +0000";
layers = (
{
hints = (
{
horizontal = 1;
place = (0, 91);
place = (0, 91);
type = Stem;
},
{
horizontal = 1;
place = (690, -20);
target = down;
type = TopGhost;
},
{
place = (122, 109);
place = (122, 109);
type = Stem;
}
);
layerId = m01;
shapes = (
{
closed = 1;
nodes = (
(558,91,cs),
(231,91,l),
(231,350,l),
(336,410,ls),
(346,416,o),
(353,427,o),
(353,440,cs),
(353,458,o),
(337,473,o),
(319,473,cs),
(313,473,o),
(307,472,o),
(302,469,cs),
(231,428,l),
(231,641,ls),
(231,671,o),
(207,696,o),
(177,696,cs),
(146,696,o),
(122,671,o),
(122,641,cs),
(122,365,l),
(29,312,ls),
(19,306,o),
(12,295,o),
(12,282,cs),
(12,264,o),
(27,248,o),
(45,248,cs),
(51,248,o),
(57,250,o),
(62,253,cs),
(122,287,l),
(122,58,ls),
(122,21,o),
(143,0,o),
(180,0,cs),
(558,0,ls),
(583,0,o),
(604,20,o),
(604,46,cs),
(604,71,o),
(583,91,o)
);
}
);
width = 615;
}
);
note = Lslash;
unicode = 321;
},
{
glyphname = M;
lastChange = "2022-11-29 13:48:59 +0000";
layers = (
{
hints = (
{
horizontal = 1;
place = (0, 21);
target = up;
type = BottomGhost;
},
{
horizontal = 1;
place = (690, -20);
target = down;
type = TopGhost;
},
{
place = (95, 110);
place = (95, 110);
type = Stem;
},
{
place = (699, 109);
place = (699, 109);
type = Stem;
},
{
horizontal = 1;
place = (0, 98);
place = (0, 98);
type = Stem;
},
{
horizontal = 1;
place = (585, 105);
place = (585, 105);
type = Stem;
}
);
layerId = m01;
shapes = (
{
closed = 1;
nodes = (
(808,632,ls),
(808,669,o),
(787,690,o),
(750,690,cs),
(686,690,ls),
(652,690,o),
(631,674,o),
(621,642,cs),
(454,98,l),
(287,642,ls),
(277,674,o),
(256,690,o),
(222,690,cs),
(153,690,ls),
(116,690,o),
(95,669,o),
(95,632,cs),
(95,50,ls),
(95,20,o),
(120,-6,o),
(150,-6,cs),
(180,-6,o),
(205,20,o),
(205,50,cs),
(205,339,ls),
(205,418,o),
(205,511,o),
(203,585,c),
(222,512,o),
(251,418,o),
(276,341,cs),
(371,53,ls),
(382,19,o),
(414,-6,o),
(451,-6,cs),
(489,-6,o),
(521,19,o),
(532,53,cs),
(626,340,ls),
(652,418,o),
(681,513,o),
(701,586,c),
(699,513,o),
(699,418,o),
(699,339,cs),
(699,49,ls),
(699,19,o),
(723,-6,o),
(754,-6,cs),
(784,-6,o),
(808,19,o),
(808,49,cs)
);
}
);
width = 880;
}
);
note = M;
unicode = 77;
},
{
glyphname = N;
lastChange = "2022-11-29 13:48:59 +0000";
layers = (
{
hints = (
{
horizontal = 1;
place = (0, 21);
target = up;
type = BottomGhost;
},
{
horizontal = 1;
place = (690, -20);
target = down;
type = TopGhost;
},
{
place = (95, 110);
place = (95, 110);
type = Stem;
},
{
place = (556, 108.5);
place = (556, 108.5);
type = Stem;
},
{
horizontal = 1;
place = (0, 117);
place = (0, 117);
type = Stem;
},
{
horizontal = 1;
place = (569, 121);
place = (569, 121);
type = Stem;
}
);
layerId = m01;
shapes = (
{
closed = 1;
nodes = (
(607,0,ls),
(644,0,o),
(665,21,o),
(665,58,cs),
(664,642,ls),
(664,671,o),
(640,695,o),
(610,695,cs),
(580,695,o),
(556,670,o),
(556,641,cs),
(556,358,ls),
(556,287,o),
(557,195,o),
(559,117,c),
(272,649,ls),
(257,678,o),
(235,690,o),
(203,690,cs),
(153,690,ls),
(116,690,o),
(95,669,o),
(95,632,cs),
(95,50,ls),
(95,20,o),
(120,-6,o),
(150,-6,cs),
(180,-6,o),
(205,20,o),
(205,50,cs),
(205,330,ls),
(205,401,o),
(204,490,o),
(201,569,c),
(485,41,ls),
(500,12,o),
(522,0,o),
(554,0,cs)
);
}
);
width = 737;
}
);
note = N;
unicode = 78;
},
{
glyphname = Nacute;
lastChange = "2022-11-29 13:48:59 +0000";
layers = (
{
hints = (
{
horizontal = 1;
place = (0, 21);
target = up;
type = BottomGhost;
},
{
horizontal = 1;
place = (690, -20);
target = down;
type = TopGhost;
},
{
horizontal = 1;
place = (736, 102);
place = (736, 102);
type = Stem;
},
{
place = (95, 110);
place = (95, 110);
type = Stem;
},
{
place = (556, 108.5);
place = (556, 108.5);
type = Stem;
},
{
horizontal = 1;
place = (0, 117);
place = (0, 117);
type = Stem;
},
{
horizontal = 1;
place = (569, 121);
place = (569, 121);
type = Stem;
}
);
layerId = m01;
shapes = (
{
closed = 1;
nodes = (
(410,739,cs),
(465,797,ls),
(469,802,o),
(473,808,o),
(473,816,cs),
(473,833,o),
(457,845,o),
(441,843,cs),
(398,837,o),
(363,802,o),
(361,759,cs),
(361,743,o),
(373,731,o),
(389,731,cs),
(398,731,o),
(405,733,o)
);
},
{
closed = 1;
nodes = (
(607,0,ls),
(644,0,o),
(665,21,o),
(665,58,cs),
(664,642,ls),
(664,671,o),
(640,695,o),
(610,695,cs),
(580,695,o),
(556,670,o),
(556,641,cs),
(556,358,ls),
(556,287,o),
(557,195,o),
(559,117,c),
(272,649,ls),
(257,678,o),
(235,690,o),
(203,690,cs),
(153,690,ls),
(116,690,o),
(95,669,o),
(95,632,cs),
(95,50,ls),
(95,20,o),
(120,-6,o),
(150,-6,cs),
(180,-6,o),
(205,20,o),
(205,50,cs),
(205,330,ls),
(205,401,o),
(204,490,o),
(201,569,c),
(485,41,ls),
(500,12,o),
(522,0,o),
(554,0,cs)
);
}
);
width = 737;
}
);
note = Nacute;
unicode = 323;
},
{
glyphname = Ncaron;
lastChange = "2022-11-29 13:48:59 +0000";
layers = (
{
hints = (
{
horizontal = 1;
place = (0, 21);
target = up;
type = BottomGhost;
},
{
horizontal = 1;
place = (690, -20);
target = down;
type = TopGhost;
},
{
horizontal = 1;
place = (736, 102);
place = (736, 102);
type = Stem;
},
{
place = (95, 110);
place = (95, 110);
type = Stem;
},
{
place = (556, 108.5);
place = (556, 108.5);
type = Stem;
},
{
horizontal = 1;
place = (0, 117);
place = (0, 117);
type = Stem;
},
{
horizontal = 1;
place = (569, 121);
place = (569, 121);
type = Stem;
}
);
layerId = m01;
shapes = (
{
closed = 1;
nodes = (
(360,736,cs),
(383,736,ls),
(426,736,o),
(462,771,o),
(464,813,cs),
(464,830,o),
(450,844,o),
(433,844,cs),
(421,844,o),
(410,837,o),
(405,827,cs),
(380,777,l),
(365,808,ls),
(355,828,o),
(314,833,o),
(308,794,cs),
(308,792,o),
(308,789,o),
(308,787,cs),
(308,758,o),
(332,736,o)
);
},
{
closed = 1;
nodes = (
(485,41,ls),
(500,12,o),
(522,0,o),
(554,0,cs),
(607,0,ls),
(644,0,o),
(665,21,o),
(665,58,cs),
(664,642,ls),
(664,671,o),
(640,695,o),
(610,695,cs),
(580,695,o),
(556,670,o),
(556,641,cs),
(556,358,ls),
(556,287,o),
(557,195,o),
(559,117,c),
(272,649,ls),
(257,678,o),
(235,690,o),
(203,690,cs),
(153,690,ls),
(116,690,o),
(95,669,o),
(95,632,cs),
(95,50,ls),
(95,20,o),
(120,-6,o),
(150,-6,cs),
(180,-6,o),
(205,20,o),
(205,50,cs),
(205,330,ls),
(205,401,o),
(204,490,o),
(201,569,c)
);
}
);
width = 737;
}
);
note = Ncaron;
unicode = 327;
},
{
glyphname = Ncommaaccent;
lastChange = "2022-11-29 13:48:59 +0000";
layers = (
{
hints = (
{
horizontal = 1;
place = (-200, 152);
place = (-200, 152);
type = Stem;
},
{
horizontal = 1;
place = (0, 21);
target = up;
type = BottomGhost;
},
{
horizontal = 1;
place = (690, -20);
target = down;
type = TopGhost;
},
{
place = (95, 110);
place = (95, 110);
type = Stem;
},
{
place = (556, 108.5);
place = (556, 108.5);
type = Stem;
},
{
horizontal = 1;
place = (0, 117);
place = (0, 117);
type = Stem;
},
{
horizontal = 1;
place = (569, 121);
place = (569, 121);
type = Stem;
}
);
layerId = m01;
shapes = (
{
closed = 1;
nodes = (
(607,0,ls),
(644,0,o),
(665,21,o),
(665,58,cs),
(664,642,ls),
(664,671,o),
(640,695,o),
(610,695,cs),
(580,695,o),
(556,670,o),
(556,641,cs),
(556,358,ls),
(556,287,o),
(557,195,o),
(559,117,c),
(272,649,ls),
(257,678,o),
(235,690,o),
(203,690,cs),
(153,690,ls),
(116,690,o),
(95,669,o),
(95,632,cs),
(95,50,ls),
(95,20,o),
(120,-6,o),
(150,-6,cs),
(180,-6,o),
(205,20,o),
(205,50,cs),
(205,330,ls),
(205,401,o),
(204,490,o),
(201,569,c),
(485,41,ls),
(500,12,o),
(522,0,o),
(554,0,cs)
);
},
{
closed = 1;
nodes = (
(408,-105,ls),
(424,-74,o),
(423,-36,o),
(388,-34,cs),
(387,-34,o),
(385,-34,o),
(384,-34,cs),
(360,-34,o),
(348,-52,o),
(340,-72,cs),
(306,-160,ls),
(305,-164,o),
(303,-168,o),
(303,-172,cs),
(303,-191,o),
(318,-206,o),
(337,-206,cs),
(350,-206,o),
(361,-198,o),
(366,-187,cs)
);
}
);
width = 737;
}
);
note = Ncommaaccent;
unicode = 325;
},
{
glyphname = Eng;
lastChange = "2022-11-29 13:48:59 +0000";
layers = (
{
hints = (
{
horizontal = 1;
place = (-223, 85);
place = (-223, 85);
type = Stem;
},
{
horizontal = 1;
place = (0, 21);
target = up;
type = BottomGhost;
},
{
horizontal = 1;
place = (690, -20);
target = down;
type = TopGhost;
},
{
place = (95, 110);
place = (95, 110);
type = Stem;
},
{
place = (556, 109);
place = (556, 109);
type = Stem;
},
{
horizontal = 1;
place = (563, 127);
place = (563, 127);
type = Stem;
}
);
layerId = m01;
shapes = (
{
closed = 1;
nodes = (
(665,641,ls),
(665,671,o),
(641,696,o),
(611,696,cs),
(580,696,o),
(556,671,o),
(556,641,cs),
(556,383,ls),
(556,312,o),
(557,235,o),
(559,157,c),
(273,650,ls),
(257,677,o),
(236,690,o),
(204,690,cs),
(153,690,ls),
(116,690,o),
(95,669,o),
(95,632,cs),
(95,50,ls),
(95,20,o),
(120,-6,o),
(150,-6,cs),
(180,-6,o),
(205,20,o),
(205,50,cs),
(205,330,ls),
(205,401,o),
(204,484,o),
(201,563,c),
(555,-28,l),
(555,-71,ls),
(555,-104,o),
(545,-125,o),
(511,-134,cs),
(492,-139,o),
(477,-156,o),
(477,-177,cs),
(477,-203,o),
(501,-223,o),
(526,-221,cs),
(610,-213,o),
(656,-181,o),
(664,-106,cs),
(665,-92,o),
(665,-83,o),
(665,-65,cs)
);
}
);
width = 737;
}
);
note = Eng;
unicode = 330;
},
{
glyphname = Ntilde;
lastChange = "2022-11-29 13:48:59 +0000";
layers = (
{
hints = (
{
horizontal = 1;
place = (0, 21);
target = up;
type = BottomGhost;
},
{
horizontal = 1;
place = (690, -20);
target = down;
type = TopGhost;
},
{
horizontal = 1;
place = (748, 87);
place = (748, 87);
type = Stem;
},
{
place = (95, 110);
place = (95, 110);
type = Stem;
},
{
place = (259, 52);
place = (259, 52);
type = Stem;
},
{
place = (556, 108.5);
place = (556, 108.5);
type = Stem;
},
{
horizontal = 1;
place = (744, 87);
place = (744, 87);
type = Stem;
},
{
place = (447, 53);
place = (447, 53);
type = Stem;
},
{
horizontal = 1;
place = (0, 117);
place = (0, 117);
type = Stem;
},
{
horizontal = 1;
place = (569, 121);
place = (569, 121);
type = Stem;
}
);
layerId = m01;
shapes = (
{
closed = 1;
nodes = (
(287,835,o),
(266,819,o),
(261,773,cs),
(259,758,o),
(271,742,o),
(287,742,cs),
(299,742,o),
(310,751,o),
(313,761,cs),
(316,769,o),
(321,771,o),
(327,771,cs),
(336,771,o),
(347,767,o),
(371,759,cs),
(401,748,o),
(417,744,o),
(438,744,cs),
(472,744,o),
(492,759,o),
(498,806,cs),
(500,823,o),
(488,837,o),
(471,837,cs),
(459,837,o),
(448,829,o),
(445,818,cs),
(443,810,o),
(438,808,o),
(431,808,cs),
(423,808,o),
(411,812,o),
(387,820,cs),
(358,831,o),
(342,835,o),
(320,835,cs)
);
},
{
closed = 1;
nodes = (
(607,0,ls),
(644,0,o),
(665,21,o),
(665,58,cs),
(664,642,ls),
(664,671,o),
(640,695,o),
(610,695,cs),
(580,695,o),
(556,670,o),
(556,641,cs),
(556,358,ls),
(556,287,o),
(557,195,o),
(559,117,c),
(272,649,ls),
(257,678,o),
(235,690,o),
(203,690,cs),
(153,690,ls),
(116,690,o),
(95,669,o),
(95,632,cs),
(95,50,ls),
(95,20,o),
(120,-6,o),
(150,-6,cs),
(180,-6,o),
(205,20,o),
(205,50,cs),
(205,330,ls),
(205,401,o),
(204,490,o),
(201,569,c),
(485,41,ls),
(500,12,o),
(522,0,o),
(554,0,cs)
);
}
);
width = 737;
}
);
note = Ntilde;
unicode = 209;
},
{
glyphname = O;
kernLeft = C;
kernRight = D;
layers = (
{
hints = (
{
horizontal = 1;
place = (-14, 84);
place = (-14, 84);
type = Stem;
},
{
horizontal = 1;
place = (620, 84);
place = (620, 84);
type = Stem;
},
{
place = (49, 118);
place = (49, 118);
type = Stem;
},
{
place = (596, 118);
place = (596, 118);
type = Stem;
}
);
layerId = m01;
shapes = (
{
closed = 1;
nodes = (
(170,704,o),
(49,559,o),
(49,345,cs),
(49,132,o),
(170,-14,o),
(382,-14,cs),
(593,-14,o),
(714,132,o),
(714,345,cs),
(714,559,o),
(593,704,o),
(382,704,cs)
);
},
{
closed = 1;
nodes = (
(247,70,o),
(167,174,o),
(167,345,cs),
(167,517,o),
(247,620,o),
(382,620,cs),
(516,620,o),
(596,517,o),
(596,345,cs),
(596,174,o),
(516,70,o),
(382,70,cs)
);
}
);
width = 750;
}
);
note = O;
unicode = 79;
},
{
glyphname = Oacute;
kernLeft = C;
kernRight = D;
lastChange = "2022-11-29 13:48:59 +0000";
layers = (
{
hints = (
{
horizontal = 1;
place = (-14, 84);
place = (-14, 84);
type = Stem;
},
{
horizontal = 1;
place = (620, 84);
place = (620, 84);
type = Stem;
},
{
horizontal = 1;
place = (736, 102);
place = (736, 102);
type = Stem;
},
{
place = (49, 118);
place = (49, 118);
type = Stem;
},
{
place = (596, 118);
place = (596, 118);
type = Stem;
}
);
layerId = m01;
shapes = (
{
closed = 1;
nodes = (
(413,739,cs),
(468,797,ls),
(472,802,o),
(476,808,o),
(476,816,cs),
(476,833,o),
(460,845,o),
(444,843,cs),
(401,837,o),
(366,802,o),
(364,759,cs),
(364,743,o),
(376,731,o),
(392,731,cs),
(401,731,o),
(408,733,o)
);
},
{
closed = 1;
nodes = (
(170,704,o),
(49,559,o),
(49,345,cs),
(49,132,o),
(170,-14,o),
(382,-14,cs),
(593,-14,o),
(714,132,o),
(714,345,cs),
(714,559,o),
(593,704,o),
(382,704,cs)
);
},
{
closed = 1;
nodes = (
(247,70,o),
(167,174,o),
(167,345,cs),
(167,517,o),
(247,620,o),
(382,620,cs),
(516,620,o),
(596,517,o),
(596,345,cs),
(596,174,o),
(516,70,o),
(382,70,cs)
);
}
);
width = 750;
}
);
note = Oacute;
unicode = 211;
},
{
glyphname = Ocircumflex;
kernLeft = C;
kernRight = D;
lastChange = "2022-11-29 13:48:59 +0000";
layers = (
{
hints = (
{
horizontal = 1;
place = (-14, 84);
place = (-14, 84);
type = Stem;
},
{
horizontal = 1;
place = (620, 84);
place = (620, 84);
type = Stem;
},
{
horizontal = 1;
place = (736, 102);
place = (736, 102);
type = Stem;
},
{
place = (49, 118);
place = (49, 118);
type = Stem;
},
{
place = (596, 118);
place = (596, 118);
type = Stem;
}
);
layerId = m01;
shapes = (
{
closed = 1;
nodes = (
(357,747,cs),
(382,796,l),
(398,766,ls),
(408,747,o),
(448,741,o),
(453,780,cs),
(454,782,o),
(454,785,o),
(454,787,cs),
(454,816,o),
(431,839,o),
(402,839,cs),
(373,839,o),
(350,816,o),
(350,787,cs),
(350,766,o),
(358,787,o),
(371,808,cs),
(383,827,o),
(390,838,o),
(379,838,cs),
(336,838,o),
(300,803,o),
(298,761,cs),
(298,744,o),
(312,730,o),
(329,730,cs),
(341,730,o),
(352,737,o)
);
},
{
closed = 1;
nodes = (
(170,704,o),
(49,559,o),
(49,345,cs),
(49,132,o),
(170,-14,o),
(382,-14,cs),
(593,-14,o),
(714,132,o),
(714,345,cs),
(714,559,o),
(593,704,o),
(382,704,cs)
);
},
{
closed = 1;
nodes = (
(247,70,o),
(167,174,o),
(167,345,cs),
(167,517,o),
(247,620,o),
(382,620,cs),
(516,620,o),
(596,517,o),
(596,345,cs),
(596,174,o),
(516,70,o),
(382,70,cs)
);
}
);
width = 750;
}
);
note = Ocircumflex;
unicode = 212;
},
{
glyphname = Odieresis;
kernLeft = C;
kernRight = D;
lastChange = "2022-11-29 13:48:59 +0000";
layers = (
{
hints = (
{
horizontal = 1;
place = (-14, 84);
place = (-14, 84);
type = Stem;
},
{
horizontal = 1;
place = (620, 84);
place = (620, 84);
type = Stem;
},
{
horizontal = 1;
place = (733, 106);
place = (733, 106);
type = Stem;
},
{
place = (49, 118);
place = (49, 118);
type = Stem;
},
{
place = (251, 107);
place = (251, 107);
type = Stem;
},
{
place = (406, 107);
place = (406, 107);
type = Stem;
},
{
place = (596, 118);
place = (596, 118);
type = Stem;
}
);
layerId = m01;
shapes = (
{
closed = 1;
nodes = (
(170,704,o),
(49,559,o),
(49,345,cs),
(49,132,o),
(170,-14,o),
(382,-14,cs),
(593,-14,o),
(714,132,o),
(714,345,cs),
(714,559,o),
(593,704,o),
(382,704,cs)
);
},
{
closed = 1;
nodes = (
(247,70,o),
(167,174,o),
(167,345,cs),
(167,517,o),
(247,620,o),
(382,620,cs),
(516,620,o),
(596,517,o),
(596,345,cs),
(596,174,o),
(516,70,o),
(382,70,cs)
);
},
{
closed = 1;
nodes = (
(302,733,cs),
(316,733,ls),
(344,733,o),
(368,756,o),
(368,784,cs),
(368,791,o),
(366,798,o),
(364,803,cs),
(355,826,o),
(334,844,o),
(308,844,cs),
(298,844,o),
(289,841,o),
(282,837,cs),
(263,827,o),
(249,808,o),
(249,786,cs),
(249,757,o),
(273,733,o)
);
},
{
closed = 1;
nodes = (
(457,733,cs),
(471,733,ls),
(499,733,o),
(522,756,o),
(522,784,cs),
(522,790,o),
(521,796,o),
(519,802,cs),
(510,826,o),
(489,845,o),
(463,845,cs),
(453,845,o),
(444,841,o),
(437,837,cs),
(418,827,o),
(404,808,o),
(404,786,cs),
(404,757,o),
(428,733,o)
);
}
);
width = 750;
}
);
note = Odieresis;
unicode = 214;
},
{
glyphname = Ograve;
kernLeft = C;
kernRight = D;
lastChange = "2022-11-29 13:48:59 +0000";
layers = (
{
hints = (
{
horizontal = 1;
place = (-14, 84);
place = (-14, 84);
type = Stem;
},
{
horizontal = 1;
place = (620, 84);
place = (620, 84);
type = Stem;
},
{
horizontal = 1;
place = (736, 102);
place = (736, 102);
type = Stem;
},
{
place = (49, 118);
place = (49, 118);
type = Stem;
},
{
place = (596, 118);
place = (596, 118);
type = Stem;
}
);
layerId = m01;
shapes = (
{
closed = 1;
nodes = (
(315,778,ls),
(341,750,o),
(383,743,o),
(389,780,cs),
(390,784,o),
(390,787,o),
(390,791,cs),
(390,822,o),
(365,841,o),
(335,844,c),
(315,844,o),
(300,828,o),
(300,808,cs),
(300,799,o),
(303,791,o),
(309,784,cs)
);
},
{
closed = 1;
nodes = (
(170,704,o),
(49,559,o),
(49,345,cs),
(49,132,o),
(170,-14,o),
(382,-14,cs),
(593,-14,o),
(714,132,o),
(714,345,cs),
(714,559,o),
(593,704,o),
(382,704,cs)
);
},
{
closed = 1;
nodes = (
(247,70,o),
(167,174,o),
(167,345,cs),
(167,517,o),
(247,620,o),
(382,620,cs),
(516,620,o),
(596,517,o),
(596,345,cs),
(596,174,o),
(516,70,o),
(382,70,cs)
);
}
);
width = 750;
}
);
note = Ograve;
unicode = 210;
},
{
glyphname = Ohungarumlaut;
kernLeft = C;
kernRight = D;
lastChange = "2022-11-29 13:48:59 +0000";
layers = (
{
hints = (
{
horizontal = 1;
place = (-14, 84);
place = (-14, 84);
type = Stem;
},
{
horizontal = 1;
place = (620, 84);
place = (620, 84);
type = Stem;
},
{
horizontal = 1;
place = (736, 102);
place = (736, 102);
type = Stem;
},
{
place = (49, 118);
place = (49, 118);
type = Stem;
},
{
place = (596, 118);
place = (596, 118);
type = Stem;
}
);
layerId = m01;
shapes = (
{
closed = 1;
nodes = (
(329,739,cs),
(384,797,ls),
(388,802,o),
(392,808,o),
(392,816,cs),
(392,833,o),
(376,845,o),
(360,843,cs),
(317,837,o),
(282,802,o),
(280,759,cs),
(280,743,o),
(292,731,o),
(308,731,cs),
(317,731,o),
(324,733,o)
);
},
{
closed = 1;
nodes = (
(426,781,cs),
(430,744,o),
(472,750,o),
(498,778,cs),
(506,786,ls),
(512,792,o),
(515,800,o),
(515,809,cs),
(515,833,o),
(492,848,o),
(472,842,cs),
(446,835,o),
(426,813,o),
(426,787,cs),
(426,785,o),
(426,783,o)
);
},
{
closed = 1;
nodes = (
(170,704,o),
(49,559,o),
(49,345,cs),
(49,132,o),
(170,-14,o),
(382,-14,cs),
(593,-14,o),
(714,132,o),
(714,345,cs),
(714,559,o),
(593,704,o),
(382,704,cs)
);
},
{
closed = 1;
nodes = (
(247,70,o),
(167,174,o),
(167,345,cs),
(167,517,o),
(247,620,o),
(382,620,cs),
(516,620,o),
(596,517,o),
(596,345,cs),
(596,174,o),
(516,70,o),
(382,70,cs)
);
}
);
width = 750;
}
);
note = Ohungarumlaut;
unicode = 336;
},
{
glyphname = Omacron;
kernLeft = C;
kernRight = D;
lastChange = "2022-11-29 13:48:59 +0000";
layers = (
{
hints = (
{
horizontal = 1;
place = (-14, 84);
place = (-14, 84);
type = Stem;
},
{
horizontal = 1;
place = (620, 84);
place = (620, 84);
type = Stem;
},
{
horizontal = 1;
place = (758, 63);
place = (758, 63);
type = Stem;
},
{
place = (49, 118);
place = (49, 118);
type = Stem;
},
{
place = (255, 255);
place = (255, 255);
type = Stem;
},
{
place = (596, 118);
place = (596, 118);
type = Stem;
}
);
layerId = m01;
shapes = (
{
closed = 1;
nodes = (
(484,758,ls),
(501,758,o),
(516,772,o),
(516,790,cs),
(516,807,o),
(501,821,o),
(484,821,cs),
(281,821,ls),
(264,821,o),
(250,807,o),
(250,790,cs),
(250,772,o),
(264,758,o),
(281,758,cs)
);
},
{
closed = 1;
nodes = (
(170,704,o),
(49,559,o),
(49,345,cs),
(49,132,o),
(170,-14,o),
(382,-14,cs),
(593,-14,o),
(714,132,o),
(714,345,cs),
(714,559,o),
(593,704,o),
(382,704,cs)
);
},
{
closed = 1;
nodes = (
(247,70,o),
(167,174,o),
(167,345,cs),
(167,517,o),
(247,620,o),
(382,620,cs),
(516,620,o),
(596,517,o),
(596,345,cs),
(596,174,o),
(516,70,o),
(382,70,cs)
);
}
);
width = 750;
}
);
note = Omacron;
unicode = 332;
},
{
glyphname = Oslash;
kernLeft = C;
kernRight = D;
lastChange = "2022-11-29 13:48:59 +0000";
layers = (
{
hints = (
{
horizontal = 1;
place = (-14, 84);
place = (-14, 84);
type = Stem;
},
{
horizontal = 1;
place = (620, 84);
place = (620, 84);
type = Stem;
},
{
place = (52, 118);
place = (52, 118);
type = Stem;
},
{
place = (600, 118);
place = (600, 118);
type = Stem;
}
);
layerId = m01;
shapes = (
{
closed = 1;
nodes = (
(705,617,ls),
(711,623,o),
(715,632,o),
(715,641,cs),
(715,660,o),
(700,675,o),
(681,675,cs),
(672,675,o),
(663,671,o),
(657,665,cs),
(614,622,l),
(558,674,o),
(481,704,o),
(385,704,cs),
(174,704,o),
(52,559,o),
(52,345,cs),
(52,257,o),
(73,180,o),
(112,120,c),
(65,73,ls),
(59,67,o),
(55,58,o),
(55,49,cs),
(55,30,o),
(70,15,o),
(89,15,cs),
(98,15,o),
(107,19,o),
(113,25,cs),
(156,68,l),
(212,16,o),
(290,-14,o),
(385,-14,cs),
(596,-14,o),
(718,132,o),
(718,345,cs),
(718,434,o),
(697,510,o),
(658,570,c)
);
},
{
closed = 1;
nodes = (
(170,517,o),
(250,620,o),
(385,620,cs),
(451,620,o),
(504,595,o),
(541,549,c),
(194,202,l),
(178,242,o),
(170,290,o),
(170,345,cs)
);
},
{
closed = 1;
nodes = (
(600,174,o),
(520,70,o),
(385,70,cs),
(319,70,o),
(266,95,o),
(229,141,c),
(576,488,l),
(592,448,o),
(600,400,o),
(600,345,cs)
);
}
);
width = 756;
}
);
note = Oslash;
unicode = 216;
},
{
glyphname = Otilde;
kernLeft = C;
kernRight = D;
lastChange = "2022-11-29 13:48:59 +0000";
layers = (
{
hints = (
{
horizontal = 1;
place = (-14, 84);
place = (-14, 84);
type = Stem;
},
{
horizontal = 1;
place = (620, 84);
place = (620, 84);
type = Stem;
},
{
horizontal = 1;
place = (748, 87);
place = (748, 87);
type = Stem;
},
{
place = (49, 118);
place = (49, 118);
type = Stem;
},
{
place = (262, 52);
place = (262, 52);
type = Stem;
},
{
place = (596, 118);
place = (596, 118);
type = Stem;
},
{
horizontal = 1;
place = (744, 87);
place = (744, 87);
type = Stem;
},
{
place = (450, 53);
place = (450, 53);
type = Stem;
}
);
layerId = m01;
shapes = (
{
closed = 1;
nodes = (
(339,771,o),
(350,767,o),
(374,759,cs),
(404,748,o),
(420,744,o),
(441,744,cs),
(475,744,o),
(495,759,o),
(501,806,cs),
(503,823,o),
(491,837,o),
(474,837,cs),
(462,837,o),
(451,829,o),
(448,818,cs),
(446,810,o),
(441,808,o),
(434,808,cs),
(426,808,o),
(414,812,o),
(390,820,cs),
(361,831,o),
(345,835,o),
(323,835,cs),
(290,835,o),
(269,819,o),
(264,773,cs),
(262,758,o),
(274,742,o),
(290,742,cs),
(302,742,o),
(313,751,o),
(316,761,cs),
(319,769,o),
(324,771,o),
(330,771,cs)
);
},
{
closed = 1;
nodes = (
(170,704,o),
(49,559,o),
(49,345,cs),
(49,132,o),
(170,-14,o),
(382,-14,cs),
(593,-14,o),
(714,132,o),
(714,345,cs),
(714,559,o),
(593,704,o),
(382,704,cs)
);
},
{
closed = 1;
nodes = (
(247,70,o),
(167,174,o),
(167,345,cs),
(167,517,o),
(247,620,o),
(382,620,cs),
(516,620,o),
(596,517,o),
(596,345,cs),
(596,174,o),
(516,70,o),
(382,70,cs)
);
}
);
width = 750;
}
);
note = Otilde;
unicode = 213;
},
{
glyphname = OE;
kernLeft = C;
lastChange = "2022-11-29 13:48:59 +0000";
layers = (
{
hints = (
{
horizontal = 1;
place = (0, 88);
place = (0, 88);
type = Stem;
},
{
horizontal = 1;
place = (302, 87);
place = (302, 87);
type = Stem;
},
{
horizontal = 1;
place = (603, 87);
place = (603, 87);
type = Stem;
},
{
place = (49, 118);
place = (49, 118);
type = Stem;
},
{
place = (596, 110);
place = (596, 110);
type = Stem;
},
{
horizontal = 1;
place = (-14, 84);
place = (-14, 84);
type = Stem;
},
{
horizontal = 1;
place = (620, 84);
place = (620, 84);
type = Stem;
}
);
layerId = m01;
shapes = (
{
closed = 1;
nodes = (
(1035,88,cs),
(706,88,l),
(706,302,l),
(997,302,ls),
(1021,302,o),
(1041,321,o),
(1041,346,cs),
(1041,370,o),
(1021,389,o),
(997,389,cs),
(706,389,l),
(706,603,l),
(1025,603,ls),
(1049,603,o),
(1069,622,o),
(1069,647,cs),
(1069,671,o),
(1049,690,o),
(1025,690,cs),
(654,690,ls),
(617,690,o),
(596,669,o),
(596,632,cs),
(596,559,l),
(582,594,ls),
(572,619,o),
(562,636,o),
(541,653,cs),
(497,690,o),
(445,704,o),
(364,704,cs),
(170,704,o),
(49,551,o),
(49,345,cs),
(49,140,o),
(170,-14,o),
(364,-14,cs),
(438,-14,o),
(494,0,o),
(540,35,cs),
(562,52,o),
(572,69,o),
(582,94,cs),
(596,129,l),
(596,58,ls),
(596,21,o),
(617,0,o),
(654,0,cs),
(1035,0,ls),
(1059,0,o),
(1079,20,o),
(1079,44,cs),
(1079,68,o),
(1059,88,o)
);
},
{
closed = 1;
nodes = (
(247,70,o),
(167,180,o),
(167,345,cs),
(167,512,o),
(247,620,o),
(382,620,cs),
(516,620,o),
(596,512,o),
(596,345,cs),
(596,180,o),
(516,70,o),
(382,70,cs)
);
}
);
width = 1101;
}
);
note = OE;
unicode = 338;
},
{
glyphname = P;
kernRight = P;
lastChange = "2022-11-29 13:48:59 +0000";
layers = (
{
hints = (
{
horizontal = 1;
place = (0, 21);
target = up;
type = BottomGhost;
},
{
horizontal = 1;
place = (272, 89);
place = (272, 89);
type = Stem;
},
{
horizontal = 1;
place = (601, 89);
place = (601, 89);
type = Stem;
},
{
place = (95, 110);
place = (95, 110);
type = Stem;
},
{
place = (481, 116);
place = (481, 116);
type = Stem;
}
);
layerId = m01;
shapes = (
{
closed = 1;
nodes = (
(383,690,o),
(358,690,o),
(321,690,cs),
(153,690,ls),
(116,690,o),
(95,669,o),
(95,632,cs),
(95,50,ls),
(95,20,o),
(120,-6,o),
(150,-6,cs),
(180,-6,o),
(205,20,o),
(205,50,cs),
(205,272,l),
(321,272,ls),
(358,272,o),
(383,272,o),
(415,276,cs),
(515,289,o),
(597,359,o),
(597,481,cs),
(597,603,o),
(523,672,o),
(415,686,cs)
);
},
{
closed = 1;
nodes = (
(376,362,o),
(352,361,o),
(324,361,cs),
(205,361,l),
(205,601,l),
(324,601,ls),
(352,601,o),
(376,600,o),
(394,597,cs),
(442,588,o),
(481,554,o),
(481,481,cs),
(481,408,o),
(442,374,o),
(394,365,cs)
);
}
);
width = 610;
}
);
note = P;
unicode = 80;
},
{
glyphname = Thorn;
lastChange = "2022-11-29 13:48:59 +0000";
layers = (
{
hints = (
{
horizontal = 1;
place = (0, 21);
target = up;
type = BottomGhost;
},
{
horizontal = 1;
place = (202, 89);
place = (202, 89);
type = Stem;
},
{
horizontal = 1;
place = (513, 89);
place = (513, 89);
type = Stem;
},
{
place = (95, 110);
place = (95, 110);
type = Stem;
},
{
place = (481, 116);
place = (481, 116);
type = Stem;
},
{
horizontal = 1;
place = (513, 177);
place = (513, 177);
type = Stem;
}
);
layerId = m01;
shapes = (
{
closed = 1;
nodes = (
(389,602,o),
(364,602,o),
(327,602,cs),
(205,602,l),
(205,641,ls),
(205,671,o),
(180,696,o),
(150,696,cs),
(120,696,o),
(95,671,o),
(95,641,cs),
(95,50,ls),
(95,20,o),
(120,-6,o),
(150,-6,cs),
(180,-6,o),
(205,20,o),
(205,50,cs),
(205,202,l),
(327,202,ls),
(364,202,o),
(389,202,o),
(421,206,cs),
(521,219,o),
(597,285,o),
(597,403,cs),
(597,521,o),
(521,585,o),
(421,598,cs)
);
},
{
closed = 1;
nodes = (
(374,292,o),
(350,291,o),
(322,291,cs),
(205,291,l),
(205,513,l),
(322,513,ls),
(350,513,o),
(374,512,o),
(392,509,cs),
(440,500,o),
(481,470,o),
(481,402,cs),
(481,333,o),
(440,304,o),
(392,295,cs)
);
}
);
width = 636;
}
);
note = Thorn;
unicode = 222;
},
{
glyphname = Q;
kernLeft = C;
lastChange = "2022-11-29 13:48:59 +0000";
layers = (
{
hints = (
{
horizontal = 1;
place = (-14, 84);
place = (-14, 84);
type = Stem;
},
{
horizontal = 1;
place = (620, 84);
place = (620, 84);
type = Stem;
},
{
place = (49, 118);
place = (49, 118);
type = Stem;
},
{
place = (596, 118);
place = (596, 118);
type = Stem;
},
{
horizontal = 1;
place = (2, 68);
place = (2, 68);
type = Stem;
}
);
layerId = m01;
shapes = (
{
closed = 1;
nodes = (
(673,144,o),
(714,238,o),
(714,345,cs),
(714,559,o),
(593,704,o),
(382,704,cs),
(170,704,o),
(49,559,o),
(49,345,cs),
(49,132,o),
(170,-14,o),
(382,-14,cs),
(408,-14,o),
(431,-12,o),
(453,-7,cs),
(481,-1,o),
(498,2,o),
(526,2,cs),
(557,2,o),
(583,-4,o),
(631,-32,cs),
(639,-37,o),
(647,-39,o),
(656,-39,cs),
(683,-39,o),
(704,-17,o),
(704,10,cs),
(704,27,o),
(695,42,o),
(682,51,cs),
(653,70,o),
(625,82,o),
(595,87,c)
);
},
{
closed = 1;
nodes = (
(167,517,o),
(247,620,o),
(382,620,cs),
(516,620,o),
(596,517,o),
(596,345,cs),
(596,174,o),
(516,70,o),
(382,70,cs),
(247,70,o),
(167,174,o),
(167,345,cs)
);
}
);
width = 748;
}
);
note = Q;
unicode = 81;
},
{
glyphname = R;
lastChange = "2022-11-29 13:48:59 +0000";
layers = (
{
hints = (
{
horizontal = 1;
place = (0, 21);
target = up;
type = BottomGhost;
},
{
horizontal = 1;
place = (288, 85);
place = (288, 85);
type = Stem;
},
{
horizontal = 1;
place = (603, 87);
place = (603, 87);
type = Stem;
},
{
place = (95, 110);
place = (95, 110);
type = Stem;
},
{
place = (487, 116);
place = (487, 116);
type = Stem;
}
);
layerId = m01;
shapes = (
{
closed = 1;
nodes = (
(563,250,o),
(537,310,o),
(475,337,c),
(548,359,o),
(603,412,o),
(603,502,cs),
(603,620,o),
(528,673,o),
(428,686,cs),
(395,690,o),
(370,690,o),
(333,690,cs),
(153,690,ls),
(116,690,o),
(95,669,o),
(95,632,cs),
(95,50,ls),
(95,20,o),
(120,-6,o),
(150,-6,cs),
(180,-6,o),
(205,20,o),
(205,50,cs),
(205,288,l),
(312,288,ls),
(329,288,o),
(346,288,o),
(363,287,cs),
(426,283,o),
(453,237,o),
(462,164,cs),
(468,108,o),
(474,70,o),
(484,34,cs),
(490,12,o),
(512,-6,o),
(536,-6,cs),
(566,-6,o),
(590,19,o),
(590,48,cs),
(590,53,o),
(589,59,o),
(588,63,cs),
(580,94,o),
(574,131,o),
(570,178,cs)
);
},
{
closed = 1;
nodes = (
(205,373,l),
(205,603,l),
(327,603,ls),
(355,603,o),
(373,602,o),
(391,599,cs),
(450,591,o),
(487,561,o),
(487,488,cs),
(487,415,o),
(442,381,o),
(382,375,cs),
(365,373,o),
(348,373,o),
(320,373,cs)
);
}
);
width = 635;
}
);
note = R;
unicode = 82;
},
{
glyphname = Racute;
lastChange = "2022-11-29 13:48:59 +0000";
layers = (
{
hints = (
{
horizontal = 1;
place = (0, 21);
target = up;
type = BottomGhost;
},
{
horizontal = 1;
place = (288, 85);
place = (288, 85);
type = Stem;
},
{
horizontal = 1;
place = (603, 87);
place = (603, 87);
type = Stem;
},
{
horizontal = 1;
place = (736, 102);
place = (736, 102);
type = Stem;
},
{
place = (95, 110);
place = (95, 110);
type = Stem;
},
{
place = (487, 116);
place = (487, 116);
type = Stem;
}
);
layerId = m01;
shapes = (
{
closed = 1;
nodes = (
(363,739,cs),
(418,797,ls),
(422,802,o),
(426,808,o),
(426,816,cs),
(426,833,o),
(410,845,o),
(394,843,cs),
(351,837,o),
(316,802,o),
(314,759,cs),
(314,743,o),
(326,731,o),
(342,731,cs),
(351,731,o),
(358,733,o)
);
},
{
closed = 1;
nodes = (
(563,250,o),
(537,310,o),
(475,337,c),
(548,359,o),
(603,412,o),
(603,502,cs),
(603,620,o),
(528,673,o),
(428,686,cs),
(395,690,o),
(370,690,o),
(333,690,cs),
(153,690,ls),
(116,690,o),
(95,669,o),
(95,632,cs),
(95,50,ls),
(95,20,o),
(120,-6,o),
(150,-6,cs),
(180,-6,o),
(205,20,o),
(205,50,cs),
(205,288,l),
(312,288,ls),
(329,288,o),
(346,288,o),
(363,287,cs),
(426,283,o),
(453,237,o),
(462,164,cs),
(468,108,o),
(474,70,o),
(484,34,cs),
(490,12,o),
(512,-6,o),
(536,-6,cs),
(566,-6,o),
(590,19,o),
(590,48,cs),
(590,53,o),
(589,59,o),
(588,63,cs),
(580,94,o),
(574,131,o),
(570,178,cs)
);
},
{
closed = 1;
nodes = (
(205,373,l),
(205,603,l),
(327,603,ls),
(355,603,o),
(373,602,o),
(391,599,cs),
(450,591,o),
(487,561,o),
(487,488,cs),
(487,415,o),
(442,381,o),
(382,375,cs),
(365,373,o),
(348,373,o),
(320,373,cs)
);
}
);
width = 635;
}
);
note = Racute;
unicode = 340;
},
{
glyphname = Rcaron;
lastChange = "2022-11-29 13:48:59 +0000";
layers = (
{
hints = (
{
horizontal = 1;
place = (0, 21);
target = up;
type = BottomGhost;
},
{
horizontal = 1;
place = (288, 85);
place = (288, 85);
type = Stem;
},
{
horizontal = 1;
place = (603, 87);
place = (603, 87);
type = Stem;
},
{
horizontal = 1;
place = (736, 102);
place = (736, 102);
type = Stem;
},
{
place = (95, 110);
place = (95, 110);
type = Stem;
},
{
place = (487, 116);
place = (487, 116);
type = Stem;
}
);
layerId = m01;
shapes = (
{
closed = 1;
nodes = (
(313,736,cs),
(336,736,ls),
(379,736,o),
(415,771,o),
(417,813,cs),
(417,830,o),
(403,844,o),
(386,844,cs),
(374,844,o),
(363,837,o),
(358,827,cs),
(333,777,l),
(318,808,ls),
(308,828,o),
(267,833,o),
(261,794,cs),
(261,792,o),
(261,789,o),
(261,787,cs),
(261,758,o),
(285,736,o)
);
},
{
closed = 1;
nodes = (
(563,250,o),
(537,310,o),
(475,337,c),
(548,359,o),
(603,412,o),
(603,502,cs),
(603,620,o),
(528,673,o),
(428,686,cs),
(395,690,o),
(370,690,o),
(333,690,cs),
(153,690,ls),
(116,690,o),
(95,669,o),
(95,632,cs),
(95,50,ls),
(95,20,o),
(120,-6,o),
(150,-6,cs),
(180,-6,o),
(205,20,o),
(205,50,cs),
(205,288,l),
(312,288,ls),
(329,288,o),
(346,288,o),
(363,287,cs),
(426,283,o),
(453,237,o),
(462,164,cs),
(468,108,o),
(474,70,o),
(484,34,cs),
(490,12,o),
(512,-6,o),
(536,-6,cs),
(566,-6,o),
(590,19,o),
(590,48,cs),
(590,53,o),
(589,59,o),
(588,63,cs),
(580,94,o),
(574,131,o),
(570,178,cs)
);
},
{
closed = 1;
nodes = (
(205,373,l),
(205,603,l),
(327,603,ls),
(355,603,o),
(373,602,o),
(391,599,cs),
(450,591,o),
(487,561,o),
(487,488,cs),
(487,415,o),
(442,381,o),
(382,375,cs),
(365,373,o),
(348,373,o),
(320,373,cs)
);
}
);
width = 635;
}
);
note = Rcaron;
unicode = 344;
},
{
glyphname = Rcommaaccent;
lastChange = "2022-11-29 13:48:59 +0000";
layers = (
{
hints = (
{
horizontal = 1;
place = (-200, 152);
place = (-200, 152);
type = Stem;
},
{
horizontal = 1;
place = (0, 21);
target = up;
type = BottomGhost;
},
{
horizontal = 1;
place = (288, 85);
place = (288, 85);
type = Stem;
},
{
horizontal = 1;
place = (603, 87);
place = (603, 87);
type = Stem;
},
{
place = (95, 110);
place = (95, 110);
type = Stem;
},
{
place = (487, 116);
place = (487, 116);
type = Stem;
}
);
layerId = m01;
shapes = (
{
closed = 1;
nodes = (
(563,250,o),
(537,310,o),
(475,337,c),
(548,359,o),
(603,412,o),
(603,502,cs),
(603,620,o),
(528,673,o),
(428,686,cs),
(395,690,o),
(370,690,o),
(333,690,cs),
(153,690,ls),
(116,690,o),
(95,669,o),
(95,632,cs),
(95,50,ls),
(95,20,o),
(120,-6,o),
(150,-6,cs),
(180,-6,o),
(205,20,o),
(205,50,cs),
(205,288,l),
(312,288,ls),
(329,288,o),
(346,288,o),
(363,287,cs),
(426,283,o),
(453,237,o),
(462,164,cs),
(468,108,o),
(474,70,o),
(484,34,cs),
(490,12,o),
(512,-6,o),
(536,-6,cs),
(566,-6,o),
(590,19,o),
(590,48,cs),
(590,53,o),
(589,59,o),
(588,63,cs),
(580,94,o),
(574,131,o),
(570,178,cs)
);
},
{
closed = 1;
nodes = (
(205,373,l),
(205,603,l),
(327,603,ls),
(355,603,o),
(373,602,o),
(391,599,cs),
(450,591,o),
(487,561,o),
(487,488,cs),
(487,415,o),
(442,381,o),
(382,375,cs),
(365,373,o),
(348,373,o),
(320,373,cs)
);
},
{
closed = 1;
nodes = (
(287,-72,cs),
(253,-160,ls),
(252,-164,o),
(250,-168,o),
(250,-172,cs),
(250,-191,o),
(265,-205,o),
(284,-205,cs),
(297,-205,o),
(308,-198,o),
(313,-187,cs),
(355,-105,ls),
(371,-74,o),
(370,-36,o),
(335,-34,cs),
(334,-34,o),
(332,-34,o),
(331,-34,cs),
(307,-34,o),
(295,-52,o)
);
}
);
width = 635;
}
);
note = Rcommaaccent;
unicode = 342;
},
{
glyphname = S;
kernLeft = S;
kernRight = S;
lastChange = "2022-11-29 13:48:59 +0000";
layers = (
{
hints = (
{
horizontal = 1;
place = (-14, 84);
place = (-14, 84);
type = Stem;
},
{
horizontal = 1;
place = (620, 84);
place = (620, 84);
type = Stem;
},
{
place = (78, 116);
place = (78, 116);
type = Stem;
},
{
place = (450, 116);
place = (450, 116);
type = Stem;
}
);
layerId = m01;
shapes = (
{
closed = 1;
nodes = (
(187,704,o),
(78,629,o),
(78,507,cs),
(78,387,o),
(165,338,o),
(296,307,cs),
(408,281,o),
(450,244,o),
(450,172,cs),
(450,109,o),
(393,70,o),
(321,70,cs),
(252,70,o),
(198,103,o),
(172,169,cs),
(164,191,o),
(144,206,o),
(119,206,cs),
(88,206,o),
(63,180,o),
(63,149,cs),
(63,141,o),
(63,134,o),
(66,128,cs),
(104,34,o),
(194,-14,o),
(321,-14,cs),
(455,-14,o),
(566,62,o),
(566,187,cs),
(566,302,o),
(494,367,o),
(342,402,cs),
(235,427,o),
(194,458,o),
(194,525,cs),
(194,590,o),
(245,620,o),
(310,620,cs),
(377,620,o),
(420,587,o),
(437,528,cs),
(443,506,o),
(464,488,o),
(489,488,cs),
(520,488,o),
(544,513,o),
(544,543,cs),
(544,550,o),
(543,556,o),
(541,562,cs),
(509,648,o),
(437,704,o),
(316,704,cs)
);
}
);
width = 595;
}
);
note = S;
unicode = 83;
},
{
glyphname = Sacute;
kernLeft = S;
kernRight = S;
lastChange = "2022-11-29 13:48:59 +0000";
layers = (
{
hints = (
{
horizontal = 1;
place = (-14, 84);
place = (-14, 84);
type = Stem;
},
{
horizontal = 1;
place = (620, 84);
place = (620, 84);
type = Stem;
},
{
horizontal = 1;
place = (736, 102);
place = (736, 102);
type = Stem;
},
{
place = (78, 116);
place = (78, 116);
type = Stem;
},
{
place = (450, 116);
place = (450, 116);
type = Stem;
}
);
layerId = m01;
shapes = (
{
closed = 1;
nodes = (
(341,739,cs),
(396,797,ls),
(400,802,o),
(404,808,o),
(404,816,cs),
(404,833,o),
(388,845,o),
(372,843,cs),
(329,837,o),
(294,802,o),
(292,759,cs),
(292,743,o),
(304,731,o),
(320,731,cs),
(329,731,o),
(336,733,o)
);
},
{
closed = 1;
nodes = (
(187,704,o),
(78,629,o),
(78,507,cs),
(78,387,o),
(165,338,o),
(296,307,cs),
(408,281,o),
(450,244,o),
(450,172,cs),
(450,109,o),
(393,70,o),
(321,70,cs),
(252,70,o),
(198,103,o),
(172,169,cs),
(164,191,o),
(144,206,o),
(119,206,cs),
(88,206,o),
(63,180,o),
(63,149,cs),
(63,141,o),
(63,134,o),
(66,128,cs),
(104,34,o),
(194,-14,o),
(321,-14,cs),
(455,-14,o),
(566,62,o),
(566,187,cs),
(566,302,o),
(494,367,o),
(342,402,cs),
(235,427,o),
(194,458,o),
(194,525,cs),
(194,590,o),
(245,620,o),
(310,620,cs),
(377,620,o),
(420,587,o),
(437,528,cs),
(443,506,o),
(464,488,o),
(489,488,cs),
(520,488,o),
(544,513,o),
(544,543,cs),
(544,550,o),
(543,556,o),
(541,562,cs),
(509,648,o),
(437,704,o),
(316,704,cs)
);
}
);
width = 595;
}
);
note = Sacute;
unicode = 346;
},
{
glyphname = Scaron;
kernLeft = S;
kernRight = S;
lastChange = "2022-11-29 13:48:59 +0000";
layers = (
{
hints = (
{
horizontal = 1;
place = (-14, 84);
place = (-14, 84);
type = Stem;
},
{
horizontal = 1;
place = (620, 84);
place = (620, 84);
type = Stem;
},
{
horizontal = 1;
place = (736, 102);
place = (736, 102);
type = Stem;
},
{
place = (78, 116);
place = (78, 116);
type = Stem;
},
{
place = (450, 116);
place = (450, 116);
type = Stem;
}
);
layerId = m01;
shapes = (
{
closed = 1;
nodes = (
(291,736,cs),
(314,736,ls),
(357,736,o),
(393,771,o),
(395,813,cs),
(395,830,o),
(381,844,o),
(364,844,cs),
(352,844,o),
(341,837,o),
(336,827,cs),
(311,777,l),
(296,808,ls),
(286,828,o),
(245,833,o),
(239,794,cs),
(239,792,o),
(239,789,o),
(239,787,cs),
(239,758,o),
(263,736,o)
);
},
{
closed = 1;
nodes = (
(235,427,o),
(194,458,o),
(194,525,cs),
(194,590,o),
(245,620,o),
(310,620,cs),
(377,620,o),
(420,587,o),
(437,528,cs),
(443,506,o),
(464,488,o),
(489,488,cs),
(520,488,o),
(544,513,o),
(544,543,cs),
(544,550,o),
(543,556,o),
(541,562,cs),
(509,648,o),
(437,704,o),
(316,704,cs),
(187,704,o),
(78,629,o),
(78,507,cs),
(78,387,o),
(165,338,o),
(296,307,cs),
(408,281,o),
(450,244,o),
(450,172,cs),
(450,109,o),
(393,70,o),
(321,70,cs),
(252,70,o),
(198,103,o),
(172,169,cs),
(164,191,o),
(144,206,o),
(119,206,cs),
(88,206,o),
(63,180,o),
(63,149,cs),
(63,141,o),
(63,134,o),
(66,128,cs),
(104,34,o),
(194,-14,o),
(321,-14,cs),
(455,-14,o),
(566,62,o),
(566,187,cs),
(566,302,o),
(494,367,o),
(342,402,cs)
);
}
);
width = 595;
}
);
note = Scaron;
unicode = 352;
},
{
glyphname = Scedilla;
kernLeft = S;
kernRight = S;
lastChange = "2022-11-29 13:48:59 +0000";
layers = (
{
hints = (
{
horizontal = 1;
place = (-210, 49);
place = (-210, 49);
type = Stem;
},
{
horizontal = 1;
place = (-11, 21);
target = up;
type = BottomGhost;
},
{
horizontal = 1;
place = (620, 84);
place = (620, 84);
type = Stem;
},
{
place = (78, 116);
place = (78, 116);
type = Stem;
},
{
place = (331, 70);
place = (331, 70);
type = Stem;
},
{
place = (450, 116);
place = (450, 116);
type = Stem;
},
{
horizontal = 1;
place = (-81, 151);
place = (-81, 151);
type = Stem;
}
);
layerId = m01;
shapes = (
{
closed = 1;
nodes = (
(566,302,o),
(494,367,o),
(342,402,cs),
(235,427,o),
(194,458,o),
(194,525,cs),
(194,590,o),
(245,620,o),
(310,620,cs),
(377,620,o),
(420,587,o),
(437,528,cs),
(443,506,o),
(464,488,o),
(489,488,cs),
(520,488,o),
(544,513,o),
(544,543,cs),
(544,550,o),
(543,556,o),
(541,562,cs),
(509,648,o),
(437,704,o),
(316,704,cs),
(187,704,o),
(78,629,o),
(78,507,cs),
(78,387,o),
(165,338,o),
(296,307,cs),
(408,281,o),
(450,244,o),
(450,172,cs),
(450,109,o),
(393,70,o),
(321,70,cs),
(252,70,o),
(198,103,o),
(172,169,cs),
(164,191,o),
(143,206,o),
(119,206,cs),
(88,206,o),
(62,180,o),
(62,149,cs),
(62,141,o),
(64,133,o),
(66,127,cs),
(99,46,o),
(171,0,o),
(271,-11,c),
(253,-46,ls),
(242,-68,o),
(261,-73,o),
(302,-85,cs),
(322,-92,o),
(331,-104,o),
(331,-122,cs),
(331,-146,o),
(311,-161,o),
(269,-161,cs),
(259,-161,o),
(249,-160,o),
(238,-159,cs),
(223,-156,o),
(209,-168,o),
(209,-183,cs),
(209,-195,o),
(219,-205,o),
(230,-207,cs),
(242,-209,o),
(254,-210,o),
(267,-210,cs),
(345,-210,o),
(401,-181,o),
(401,-122,cs),
(401,-76,o),
(372,-48,o),
(317,-41,c),
(331,-14,l),
(460,-10,o),
(566,65,o),
(566,187,cs)
);
}
);
width = 595;
}
);
note = Scedilla;
unicode = 350;
},
{
glyphname = Scommaaccent;
kernLeft = S;
kernRight = S;
lastChange = "2022-11-29 13:48:59 +0000";
layers = (
{
hints = (
{
horizontal = 1;
place = (-200, 152);
place = (-200, 152);
type = Stem;
},
{
horizontal = 1;
place = (-14, 84);
place = (-14, 84);
type = Stem;
},
{
horizontal = 1;
place = (620, 84);
place = (620, 84);
type = Stem;
},
{
place = (78, 116);
place = (78, 116);
type = Stem;
},
{
place = (450, 116);
place = (450, 116);
type = Stem;
}
);
layerId = m01;
shapes = (
{
closed = 1;
nodes = (
(187,704,o),
(78,629,o),
(78,507,cs),
(78,387,o),
(165,338,o),
(296,307,cs),
(408,281,o),
(450,244,o),
(450,172,cs),
(450,109,o),
(393,70,o),
(321,70,cs),
(252,70,o),
(198,103,o),
(172,169,cs),
(164,191,o),
(144,206,o),
(119,206,cs),
(88,206,o),
(63,180,o),
(63,149,cs),
(63,141,o),
(63,134,o),
(66,128,cs),
(104,34,o),
(194,-14,o),
(321,-14,cs),
(455,-14,o),
(566,62,o),
(566,187,cs),
(566,302,o),
(494,367,o),
(342,402,cs),
(235,427,o),
(194,458,o),
(194,525,cs),
(194,590,o),
(245,620,o),
(310,620,cs),
(377,620,o),
(420,587,o),
(437,528,cs),
(443,506,o),
(464,488,o),
(489,488,cs),
(520,488,o),
(544,513,o),
(544,543,cs),
(544,550,o),
(543,556,o),
(541,562,cs),
(509,648,o),
(437,704,o),
(316,704,cs)
);
},
{
closed = 1;
nodes = (
(335,-105,ls),
(351,-74,o),
(350,-36,o),
(315,-34,cs),
(314,-34,o),
(312,-34,o),
(311,-34,cs),
(287,-34,o),
(275,-52,o),
(267,-72,cs),
(233,-160,ls),
(232,-164,o),
(230,-168,o),
(230,-172,cs),
(230,-191,o),
(245,-206,o),
(264,-206,cs),
(277,-206,o),
(288,-198,o),
(293,-187,cs)
);
}
);
width = 595;
}
);
note = Scommaaccent;
unicode = 536;
},
{
glyphname = T;
kernLeft = T;
kernRight = T;
lastChange = "2022-11-29 13:48:59 +0000";
layers = (
{
hints = (
{
horizontal = 1;
place = (0, 21);
target = up;
type = BottomGhost;
},
{
horizontal = 1;
place = (603, 87);
place = (603, 87);
type = Stem;
},
{
place = (270, 109);
place = (270, 109);
type = Stem;
}
);
layerId = m01;
shapes = (
{
closed = 1;
nodes = (
(582,603,ls),
(606,603,o),
(626,622,o),
(626,647,cs),
(626,671,o),
(606,690,o),
(582,690,cs),
(67,690,ls),
(43,690,o),
(24,671,o),
(24,647,cs),
(24,622,o),
(43,603,o),
(67,603,cs),
(270,603,l),
(270,49,ls),
(270,19,o),
(294,-6,o),
(325,-6,cs),
(355,-6,o),
(379,19,o),
(379,49,cs),
(379,603,l)
);
}
);
width = 617;
}
);
note = T;
unicode = 84;
},
{
glyphname = Tbar;
kernLeft = T;
kernRight = T;
lastChange = "2022-11-29 13:48:59 +0000";
layers = (
{
hints = (
{
horizontal = 1;
place = (0, 21);
target = up;
type = BottomGhost;
},
{
horizontal = 1;
place = (302, 66);
place = (302, 66);
type = Stem;
},
{
horizontal = 1;
place = (603, 87);
place = (603, 87);
type = Stem;
},
{
place = (270, 109);
place = (270, 109);
type = Stem;
}
);
layerId = m01;
shapes = (
{
closed = 1;
nodes = (
(379,603,l),
(582,603,ls),
(606,603,o),
(626,622,o),
(626,647,cs),
(626,671,o),
(606,690,o),
(582,690,cs),
(67,690,ls),
(43,690,o),
(24,671,o),
(24,647,cs),
(24,622,o),
(43,603,o),
(67,603,cs),
(270,603,l),
(270,368,l),
(191,368,ls),
(173,368,o),
(158,353,o),
(158,335,cs),
(158,317,o),
(173,302,o),
(191,302,cs),
(270,302,l),
(270,49,ls),
(270,19,o),
(294,-6,o),
(325,-6,cs),
(355,-6,o),
(379,19,o),
(379,49,cs),
(379,302,l),
(459,302,ls),
(477,302,o),
(492,317,o),
(492,335,cs),
(492,353,o),
(477,368,o),
(459,368,cs),
(379,368,l)
);
}
);
width = 617;
}
);
note = Tbar;
unicode = 358;
},
{
glyphname = Tcaron;
kernLeft = T;
kernRight = T;
lastChange = "2022-11-29 13:48:59 +0000";
layers = (
{
hints = (
{
horizontal = 1;
place = (0, 21);
target = up;
type = BottomGhost;
},
{
horizontal = 1;
place = (603, 87);
place = (603, 87);
type = Stem;
},
{
horizontal = 1;
place = (736, 102);
place = (736, 102);
type = Stem;
},
{
place = (270, 109);
place = (270, 109);
type = Stem;
}
);
layerId = m01;
shapes = (
{
closed = 1;
nodes = (
(305,736,cs),
(328,736,ls),
(371,736,o),
(407,771,o),
(409,813,cs),
(409,830,o),
(395,844,o),
(378,844,cs),
(366,844,o),
(355,837,o),
(350,827,cs),
(325,777,l),
(310,808,ls),
(300,828,o),
(259,833,o),
(253,794,cs),
(253,792,o),
(253,789,o),
(253,787,cs),
(253,758,o),
(277,736,o)
);
},
{
closed = 1;
nodes = (
(582,603,ls),
(606,603,o),
(626,622,o),
(626,647,cs),
(626,671,o),
(606,690,o),
(582,690,cs),
(67,690,ls),
(43,690,o),
(24,671,o),
(24,647,cs),
(24,622,o),
(43,603,o),
(67,603,cs),
(270,603,l),
(270,49,ls),
(270,19,o),
(294,-6,o),
(325,-6,cs),
(355,-6,o),
(379,19,o),
(379,49,cs),
(379,603,l)
);
}
);
width = 617;
}
);
note = Tcaron;
unicode = 356;
},
{
glyphname = Tcedilla;
kernLeft = T;
kernRight = T;
lastChange = "2022-11-29 13:48:59 +0000";
layers = (
{
hints = (
{
horizontal = 1;
place = (-210, 49);
place = (-210, 49);
type = Stem;
},
{
horizontal = 1;
place = (0, 21);
target = up;
type = BottomGhost;
},
{
horizontal = 1;
place = (603, 87);
place = (603, 87);
type = Stem;
},
{
place = (270, 109);
place = (270, 109);
type = Stem;
},
{
place = (349, 70);
place = (349, 70);
type = Stem;
}
);
layerId = m01;
shapes = (
{
closed = 1;
nodes = (
(356,0,l),
(368,0,ls),
(375,0,o),
(379,21,o),
(379,58,cs),
(379,603,l),
(582,603,ls),
(606,603,o),
(626,622,o),
(626,647,cs),
(626,671,o),
(606,690,o),
(582,690,cs),
(67,690,ls),
(43,690,o),
(24,671,o),
(24,647,cs),
(24,622,o),
(43,603,o),
(67,603,cs),
(270,603,l),
(270,58,ls),
(270,21,o),
(279,0,o),
(295,0,c),
(274,-41,ls),
(261,-67,o),
(280,-73,o),
(320,-85,cs),
(340,-92,o),
(349,-104,o),
(349,-122,cs),
(349,-146,o),
(329,-161,o),
(287,-161,cs),
(277,-161,o),
(267,-160,o),
(256,-159,cs),
(241,-156,o),
(227,-168,o),
(227,-183,cs),
(227,-195,o),
(237,-205,o),
(248,-207,cs),
(260,-209,o),
(272,-210,o),
(285,-210,cs),
(363,-210,o),
(419,-181,o),
(419,-122,cs),
(419,-76,o),
(390,-48,o),
(335,-41,c)
);
}
);
width = 617;
}
);
note = Tcedilla;
unicode = 354;
},
{
glyphname = uni021A;
kernLeft = T;
kernRight = T;
lastChange = "2022-11-29 13:48:59 +0000";
layers = (
{
hints = (
{
horizontal = 1;
place = (-200, 152);
place = (-200, 152);
type = Stem;
},
{
horizontal = 1;
place = (0, 21);
target = up;
type = BottomGhost;
},
{
horizontal = 1;
place = (603, 87);
place = (603, 87);
type = Stem;
},
{
place = (270, 109);
place = (270, 109);
type = Stem;
}
);
layerId = m01;
shapes = (
{
closed = 1;
nodes = (
(582,603,ls),
(606,603,o),
(626,622,o),
(626,647,cs),
(626,671,o),
(606,690,o),
(582,690,cs),
(67,690,ls),
(43,690,o),
(24,671,o),
(24,647,cs),
(24,622,o),
(43,603,o),
(67,603,cs),
(270,603,l),
(270,49,ls),
(270,19,o),
(294,-6,o),
(325,-6,cs),
(355,-6,o),
(379,19,o),
(379,49,cs),
(379,603,l)
);
},
{
closed = 1;
nodes = (
(285,-72,cs),
(251,-160,ls),
(250,-164,o),
(248,-168,o),
(248,-172,cs),
(248,-191,o),
(263,-205,o),
(282,-205,cs),
(295,-205,o),
(306,-198,o),
(311,-187,cs),
(353,-105,ls),
(369,-74,o),
(368,-36,o),
(333,-34,cs),
(332,-34,o),
(330,-34,o),
(329,-34,cs),
(305,-34,o),
(293,-52,o)
);
}
);
width = 617;
}
);
note = uni021A;
unicode = 538;
},
{
glyphname = U;
kernLeft = U;
kernRight = U;
lastChange = "2022-11-29 13:48:59 +0000";
layers = (
{
hints = (
{
horizontal = 1;
place = (-14, 84);
place = (-14, 84);
type = Stem;
},
{
horizontal = 1;
place = (690, -20);
target = down;
type = TopGhost;
},
{
place = (88, 109);
place = (88, 109);
type = Stem;
},
{
place = (520, 109);
place = (520, 109);
type = Stem;
}
);
layerId = m01;
shapes = (
{
closed = 1;
nodes = (
(629,641,ls),
(629,671,o),
(605,696,o),
(575,696,cs),
(544,696,o),
(520,671,o),
(520,641,cs),
(520,265,ls),
(520,244,o),
(520,225,o),
(518,209,cs),
(511,126,o),
(458,70,o),
(358,70,cs),
(259,70,o),
(206,126,o),
(199,209,cs),
(197,225,o),
(197,244,o),
(197,265,cs),
(197,641,ls),
(197,671,o),
(173,696,o),
(143,696,cs),
(112,696,o),
(88,671,o),
(88,641,cs),
(88,267,ls),
(88,242,o),
(88,222,o),
(90,196,cs),
(99,81,o),
(178,-14,o),
(358,-14,cs),
(538,-14,o),
(617,81,o),
(627,196,cs),
(629,222,o),
(629,242,o),
(629,267,cs)
);
}
);
width = 691;
}
);
note = U;
unicode = 85;
},
{
glyphname = Uacute;
kernLeft = U;
kernRight = U;
lastChange = "2022-11-29 13:48:59 +0000";
layers = (
{
hints = (
{
horizontal = 1;
place = (-14, 84);
place = (-14, 84);
type = Stem;
},
{
horizontal = 1;
place = (690, -20);
target = down;
type = TopGhost;
},
{
horizontal = 1;
place = (736, 102);
place = (736, 102);
type = Stem;
},
{
place = (88, 109);
place = (88, 109);
type = Stem;
},
{
place = (520, 109);
place = (520, 109);
type = Stem;
}
);
layerId = m01;
shapes = (
{
closed = 1;
nodes = (
(389,739,cs),
(444,797,ls),
(448,802,o),
(452,808,o),
(452,816,cs),
(452,833,o),
(436,845,o),
(420,843,cs),
(377,837,o),
(342,802,o),
(340,759,cs),
(340,743,o),
(352,731,o),
(368,731,cs),
(377,731,o),
(384,733,o)
);
},
{
closed = 1;
nodes = (
(629,641,ls),
(629,671,o),
(605,696,o),
(575,696,cs),
(544,696,o),
(520,671,o),
(520,641,cs),
(520,265,ls),
(520,244,o),
(520,225,o),
(518,209,cs),
(511,126,o),
(458,70,o),
(358,70,cs),
(259,70,o),
(206,126,o),
(199,209,cs),
(197,225,o),
(197,244,o),
(197,265,cs),
(197,641,ls),
(197,671,o),
(173,696,o),
(143,696,cs),
(112,696,o),
(88,671,o),
(88,641,cs),
(88,267,ls),
(88,242,o),
(88,222,o),
(90,196,cs),
(99,81,o),
(178,-14,o),
(358,-14,cs),
(538,-14,o),
(617,81,o),
(627,196,cs),
(629,222,o),
(629,242,o),
(629,267,cs)
);
}
);
width = 691;
}
);
note = Uacute;
unicode = 218;
},
{
glyphname = Ucircumflex;
kernLeft = U;
kernRight = U;
lastChange = "2022-11-29 13:48:59 +0000";
layers = (
{
hints = (
{
horizontal = 1;
place = (-14, 84);
place = (-14, 84);
type = Stem;
},
{
horizontal = 1;
place = (690, -20);
target = down;
type = TopGhost;
},
{
horizontal = 1;
place = (736, 102);
place = (736, 102);
type = Stem;
},
{
place = (88, 109);
place = (88, 109);
type = Stem;
},
{
place = (520, 109);
place = (520, 109);
type = Stem;
}
);
layerId = m01;
shapes = (
{
closed = 1;
nodes = (
(333,747,cs),
(358,796,l),
(374,766,ls),
(384,747,o),
(424,741,o),
(429,780,cs),
(430,782,o),
(430,785,o),
(430,787,cs),
(430,816,o),
(407,839,o),
(378,839,cs),
(349,839,o),
(326,816,o),
(326,787,cs),
(326,766,o),
(334,787,o),
(347,808,cs),
(359,827,o),
(366,838,o),
(355,838,cs),
(312,838,o),
(276,803,o),
(274,761,cs),
(274,744,o),
(288,730,o),
(305,730,cs),
(317,730,o),
(328,737,o)
);
},
{
closed = 1;
nodes = (
(629,641,ls),
(629,671,o),
(605,696,o),
(575,696,cs),
(544,696,o),
(520,671,o),
(520,641,cs),
(520,265,ls),
(520,244,o),
(520,225,o),
(518,209,cs),
(511,126,o),
(458,70,o),
(358,70,cs),
(259,70,o),
(206,126,o),
(199,209,cs),
(197,225,o),
(197,244,o),
(197,265,cs),
(197,641,ls),
(197,671,o),
(173,696,o),
(143,696,cs),
(112,696,o),
(88,671,o),
(88,641,cs),
(88,267,ls),
(88,242,o),
(88,222,o),
(90,196,cs),
(99,81,o),
(178,-14,o),
(358,-14,cs),
(538,-14,o),
(617,81,o),
(627,196,cs),
(629,222,o),
(629,242,o),
(629,267,cs)
);
}
);
width = 691;
}
);
note = Ucircumflex;
unicode = 219;
},
{
glyphname = Udieresis;
kernLeft = U;
kernRight = U;
lastChange = "2022-11-29 13:48:59 +0000";
layers = (
{
hints = (
{
horizontal = 1;
place = (-14, 84);
place = (-14, 84);
type = Stem;
},
{
horizontal = 1;
place = (690, -20);
target = down;
type = TopGhost;
},
{
horizontal = 1;
place = (733, 106);
place = (733, 106);
type = Stem;
},
{
place = (88, 109);
place = (88, 109);
type = Stem;
},
{
place = (227, 107);
place = (227, 107);
type = Stem;
},
{
place = (382, 107);
place = (382, 107);
type = Stem;
},
{
place = (520, 109);
place = (520, 109);
type = Stem;
}
);
layerId = m01;
shapes = (
{
closed = 1;
nodes = (
(629,641,ls),
(629,671,o),
(605,696,o),
(575,696,cs),
(544,696,o),
(520,671,o),
(520,641,cs),
(520,265,ls),
(520,244,o),
(520,225,o),
(518,209,cs),
(511,126,o),
(458,70,o),
(358,70,cs),
(259,70,o),
(206,126,o),
(199,209,cs),
(197,225,o),
(197,244,o),
(197,265,cs),
(197,641,ls),
(197,671,o),
(173,696,o),
(143,696,cs),
(112,696,o),
(88,671,o),
(88,641,cs),
(88,267,ls),
(88,242,o),
(88,222,o),
(90,196,cs),
(99,81,o),
(178,-14,o),
(358,-14,cs),
(538,-14,o),
(617,81,o),
(627,196,cs),
(629,222,o),
(629,242,o),
(629,267,cs)
);
},
{
closed = 1;
nodes = (
(276,733,cs),
(290,733,ls),
(318,733,o),
(342,756,o),
(342,784,cs),
(342,791,o),
(340,798,o),
(338,803,cs),
(329,826,o),
(308,844,o),
(282,844,cs),
(272,844,o),
(263,841,o),
(256,837,cs),
(237,827,o),
(223,808,o),
(223,786,cs),
(223,757,o),
(247,733,o)
);
},
{
closed = 1;
nodes = (
(431,733,cs),
(445,733,ls),
(473,733,o),
(496,756,o),
(496,784,cs),
(496,790,o),
(495,796,o),
(493,802,cs),
(484,826,o),
(463,845,o),
(437,845,cs),
(427,845,o),
(418,841,o),
(411,837,cs),
(392,827,o),
(378,808,o),
(378,786,cs),
(378,757,o),
(402,733,o)
);
}
);
width = 691;
}
);
note = Udieresis;
unicode = 220;
},
{
glyphname = Ugrave;
kernLeft = U;
kernRight = U;
lastChange = "2022-11-29 13:48:59 +0000";
layers = (
{
hints = (
{
horizontal = 1;
place = (-14, 84);
place = (-14, 84);
type = Stem;
},
{
horizontal = 1;
place = (690, -20);
target = down;
type = TopGhost;
},
{
horizontal = 1;
place = (736, 102);
place = (736, 102);
type = Stem;
},
{
place = (88, 109);
place = (88, 109);
type = Stem;
},
{
place = (520, 109);
place = (520, 109);
type = Stem;
}
);
layerId = m01;
shapes = (
{
closed = 1;
nodes = (
(376,760,cs),
(331,821,o),
(284,847,o),
(277,817,cs),
(276,814,o),
(276,811,o),
(276,808,cs),
(276,799,o),
(279,791,o),
(285,784,cs),
(328,739,ls),
(333,733,o),
(340,731,o),
(349,731,cs),
(365,731,o),
(377,743,o),
(377,759,c),
(377,759,o),
(377,759,o)
);
},
{
closed = 1;
nodes = (
(629,641,ls),
(629,671,o),
(605,696,o),
(575,696,cs),
(544,696,o),
(520,671,o),
(520,641,cs),
(520,265,ls),
(520,244,o),
(520,225,o),
(518,209,cs),
(511,126,o),
(458,70,o),
(358,70,cs),
(259,70,o),
(206,126,o),
(199,209,cs),
(197,225,o),
(197,244,o),
(197,265,cs),
(197,641,ls),
(197,671,o),
(173,696,o),
(143,696,cs),
(112,696,o),
(88,671,o),
(88,641,cs),
(88,267,ls),
(88,242,o),
(88,222,o),
(90,196,cs),
(99,81,o),
(178,-14,o),
(358,-14,cs),
(538,-14,o),
(617,81,o),
(627,196,cs),
(629,222,o),
(629,242,o),
(629,267,cs)
);
}
);
width = 691;
}
);
note = Ugrave;
unicode = 217;
},
{
glyphname = Uhungarumlaut;
kernLeft = U;
kernRight = U;
lastChange = "2022-11-29 13:48:59 +0000";
layers = (
{
hints = (
{
horizontal = 1;
place = (-14, 84);
place = (-14, 84);
type = Stem;
},
{
horizontal = 1;
place = (690, -20);
target = down;
type = TopGhost;
},
{
horizontal = 1;
place = (736, 102);
place = (736, 102);
type = Stem;
},
{
place = (88, 109);
place = (88, 109);
type = Stem;
},
{
place = (520, 109);
place = (520, 109);
type = Stem;
}
);
layerId = m01;
shapes = (
{
closed = 1;
nodes = (
(305,739,cs),
(360,797,ls),
(364,802,o),
(368,808,o),
(368,816,cs),
(368,833,o),
(352,845,o),
(336,843,cs),
(293,837,o),
(258,802,o),
(256,759,cs),
(256,743,o),
(268,731,o),
(284,731,cs),
(293,731,o),
(300,733,o)
);
},
{
closed = 1;
nodes = (
(437,739,cs),
(492,797,ls),
(496,802,o),
(500,808,o),
(500,816,cs),
(500,833,o),
(484,845,o),
(468,843,cs),
(425,837,o),
(390,802,o),
(388,759,cs),
(388,743,o),
(400,731,o),
(416,731,cs),
(425,731,o),
(432,733,o)
);
},
{
closed = 1;
nodes = (
(629,641,ls),
(629,671,o),
(605,696,o),
(575,696,cs),
(544,696,o),
(520,671,o),
(520,641,cs),
(520,265,ls),
(520,244,o),
(520,225,o),
(518,209,cs),
(511,126,o),
(458,70,o),
(358,70,cs),
(259,70,o),
(206,126,o),
(199,209,cs),
(197,225,o),
(197,244,o),
(197,265,cs),
(197,641,ls),
(197,671,o),
(173,696,o),
(143,696,cs),
(112,696,o),
(88,671,o),
(88,641,cs),
(88,267,ls),
(88,242,o),
(88,222,o),
(90,196,cs),
(99,81,o),
(178,-14,o),
(358,-14,cs),
(538,-14,o),
(617,81,o),
(627,196,cs),
(629,222,o),
(629,242,o),
(629,267,cs)
);
}
);
width = 691;
}
);
note = Uhungarumlaut;
unicode = 368;
},
{
glyphname = Umacron;
kernLeft = U;
kernRight = U;
lastChange = "2022-11-29 13:48:59 +0000";
layers = (
{
hints = (
{
horizontal = 1;
place = (-14, 84);
place = (-14, 84);
type = Stem;
},
{
horizontal = 1;
place = (690, -20);
target = down;
type = TopGhost;
},
{
horizontal = 1;
place = (758, 63);
place = (758, 63);
type = Stem;
},
{
place = (88, 109);
place = (88, 109);
type = Stem;
},
{
place = (231, 255);
place = (231, 255);
type = Stem;
},
{
place = (520, 109);
place = (520, 109);
type = Stem;
}
);
layerId = m01;
shapes = (
{
closed = 1;
nodes = (
(460,758,ls),
(477,758,o),
(492,772,o),
(492,790,cs),
(492,807,o),
(477,821,o),
(460,821,cs),
(257,821,ls),
(240,821,o),
(226,807,o),
(226,790,cs),
(226,772,o),
(240,758,o),
(257,758,cs)
);
},
{
closed = 1;
nodes = (
(629,641,ls),
(629,671,o),
(605,696,o),
(575,696,cs),
(544,696,o),
(520,671,o),
(520,641,cs),
(520,265,ls),
(520,244,o),
(520,225,o),
(518,209,cs),
(511,126,o),
(458,70,o),
(358,70,cs),
(259,70,o),
(206,126,o),
(199,209,cs),
(197,225,o),
(197,244,o),
(197,265,cs),
(197,641,ls),
(197,671,o),
(173,696,o),
(143,696,cs),
(112,696,o),
(88,671,o),
(88,641,cs),
(88,267,ls),
(88,242,o),
(88,222,o),
(90,196,cs),
(99,81,o),
(178,-14,o),
(358,-14,cs),
(538,-14,o),
(617,81,o),
(627,196,cs),
(629,222,o),
(629,242,o),
(629,267,cs)
);
}
);
width = 691;
}
);
note = Umacron;
unicode = 362;
},
{
glyphname = Uogonek;
kernLeft = U;
kernRight = U;
lastChange = "2022-11-29 13:48:59 +0000";
layers = (
{
hints = (
{
horizontal = 1;
place = (-223, 66);
place = (-223, 66);
type = Stem;
},
{
horizontal = 1;
place = (-14, 84);
place = (-14, 84);
type = Stem;
},
{
horizontal = 1;
place = (690, -20);
target = down;
type = TopGhost;
},
{
place = (88, 109);
place = (88, 109);
type = Stem;
},
{
place = (282, 102);
place = (282, 102);
type = Stem;
},
{
place = (520, 109);
place = (520, 109);
type = Stem;
}
);
layerId = m01;
shapes = (
{
closed = 1;
nodes = (
(629,641,ls),
(629,671,o),
(605,696,o),
(575,696,cs),
(544,696,o),
(520,671,o),
(520,641,cs),
(520,265,ls),
(520,244,o),
(520,225,o),
(518,209,cs),
(511,126,o),
(458,70,o),
(358,70,cs),
(259,70,o),
(206,126,o),
(199,209,cs),
(197,225,o),
(197,244,o),
(197,265,cs),
(197,641,ls),
(197,671,o),
(173,696,o),
(143,696,cs),
(112,696,o),
(88,671,o),
(88,641,cs),
(88,267,ls),
(88,242,o),
(88,222,o),
(90,196,cs),
(99,83,o),
(175,-10,o),
(347,-14,c),
(310,-42,o),
(282,-85,o),
(282,-138,cs),
(282,-201,o),
(322,-223,o),
(380,-223,cs),
(415,-223,o),
(445,-215,o),
(473,-200,cs),
(481,-195,o),
(487,-187,o),
(487,-177,cs),
(487,-160,o),
(469,-148,o),
(453,-153,cs),
(444,-156,o),
(436,-157,o),
(428,-157,cs),
(401,-157,o),
(384,-144,o),
(384,-107,cs),
(384,-57,o),
(413,-18,o),
(450,-4,c),
(566,23,o),
(619,103,o),
(627,196,cs),
(629,222,o),
(629,242,o),
(629,267,cs)
);
}
);
width = 691;
}
);
note = Uogonek;
unicode = 370;
},
{
glyphname = Uring;
kernLeft = U;
kernRight = U;
lastChange = "2022-11-29 13:48:59 +0000";
layers = (
{
hints = (
{
horizontal = 1;
place = (-14, 84);
place = (-14, 84);
type = Stem;
},
{
horizontal = 1;
place = (690, -20);
target = down;
type = TopGhost;
},
{
horizontal = 1;
place = (845, 44);
place = (845, 44);
type = Stem;
},
{
place = (88, 109);
place = (88, 109);
type = Stem;
},
{
place = (260, 58);
place = (260, 58);
type = Stem;
},
{
place = (398, 58);
place = (398, 58);
type = Stem;
},
{
place = (520, 109);
place = (520, 109);
type = Stem;
},
{
horizontal = 1;
place = (718, 43);
place = (718, 43);
type = Stem;
}
);
layerId = m01;
shapes = (
{
closed = 1;
nodes = (
(301,889,o),
(260,853,o),
(260,803,cs),
(260,753,o),
(301,718,o),
(358,718,cs),
(415,718,o),
(456,753,o),
(456,803,cs),
(456,853,o),
(415,889,o),
(358,889,cs)
);
},
{
closed = 1;
nodes = (
(381,845,o),
(398,828,o),
(398,803,cs),
(398,779,o),
(381,761,o),
(358,761,cs),
(335,761,o),
(318,779,o),
(318,803,cs),
(318,828,o),
(335,845,o),
(358,845,cs)
);
},
{
closed = 1;
nodes = (
(629,641,ls),
(629,671,o),
(605,696,o),
(575,696,cs),
(544,696,o),
(520,671,o),
(520,641,cs),
(520,265,ls),
(520,244,o),
(520,225,o),
(518,209,cs),
(511,126,o),
(458,70,o),
(358,70,cs),
(259,70,o),
(206,126,o),
(199,209,cs),
(197,225,o),
(197,244,o),
(197,265,cs),
(197,641,ls),
(197,671,o),
(173,696,o),
(143,696,cs),
(112,696,o),
(88,671,o),
(88,641,cs),
(88,267,ls),
(88,242,o),
(88,222,o),
(90,196,cs),
(99,81,o),
(178,-14,o),
(358,-14,cs),
(538,-14,o),
(617,81,o),
(627,196,cs),
(629,222,o),
(629,242,o),
(629,267,cs)
);
}
);
width = 691;
}
);
note = Uring;
unicode = 366;
},
{
glyphname = V;
kernLeft = V;
kernRight = V;
lastChange = "2022-11-29 13:48:59 +0000";
layers = (
{
hints = (
{
horizontal = 1;
place = (0, 21);
target = up;
type = BottomGhost;
},
{
horizontal = 1;
place = (690, -20);
target = down;
type = TopGhost;
},
{
place = (32, 631);
place = (32, 631);
type = Stem;
},
{
horizontal = 1;
place = (0, 84);
place = (0, 84);
type = Stem;
}
);
layerId = m01;
shapes = (
{
closed = 1;
nodes = (
(366,0,ls),
(399,0,o),
(421,14,o),
(432,46,cs),
(639,622,ls),
(641,627,o),
(642,634,o),
(642,641,cs),
(642,671,o),
(617,695,o),
(587,695,cs),
(563,695,o),
(542,679,o),
(535,658,cs),
(346,84,l),
(162,657,ls),
(155,680,o),
(133,695,o),
(109,695,cs),
(78,695,o),
(53,671,o),
(53,640,cs),
(53,633,o),
(54,626,o),
(56,621,cs),
(257,47,ls),
(268,16,o),
(290,0,o),
(323,0,cs)
);
}
);
width = 652;
}
);
note = V;
unicode = 86;
},
{
glyphname = W;
kernLeft = W;
kernRight = W;
lastChange = "2022-11-29 13:48:59 +0000";
layers = (
{
hints = (
{
horizontal = 1;
place = (0, 21);
target = up;
type = BottomGhost;
},
{
horizontal = 1;
place = (690, -20);
target = down;
type = TopGhost;
},
{
place = (26, 940);
place = (26, 940);
type = Stem;
},
{
horizontal = 1;
place = (0, 88);
place = (0, 88);
type = Stem;
},
{
horizontal = 1;
place = (588, 92);
place = (588, 92);
type = Stem;
}
);
layerId = m01;
shapes = (
{
closed = 1;
nodes = (
(949,627,ls),
(950,631,o),
(951,636,o),
(951,641,cs),
(951,671,o),
(926,696,o),
(896,696,cs),
(871,696,o),
(849,677,o),
(844,653,cs),
(712,88,l),
(585,629,ls),
(577,663,o),
(555,680,o),
(521,680,cs),
(474,680,ls),
(440,680,o),
(418,663,o),
(410,630,cs),
(279,91,l),
(156,650,ls),
(150,676,o),
(127,695,o),
(99,695,cs),
(67,695,o),
(41,670,o),
(41,638,cs),
(41,633,o),
(42,627,o),
(43,623,cs),
(191,50,ls),
(200,17,o),
(221,0,o),
(255,0,cs),
(298,0,ls),
(332,0,o),
(354,17,o),
(362,50,cs),
(495,588,l),
(621,51,ls),
(629,17,o),
(651,0,o),
(685,0,cs),
(727,0,ls),
(761,0,o),
(782,15,o),
(791,49,cs)
);
}
);
width = 968;
}
);
note = W;
unicode = 87;
},
{
glyphname = Wacute;
kernLeft = W;
kernRight = W;
lastChange = "2022-11-29 13:48:59 +0000";
layers = (
{
hints = (
{
horizontal = 1;
place = (0, 21);
target = up;
type = BottomGhost;
},
{
horizontal = 1;
place = (690, -20);
target = down;
type = TopGhost;
},
{
horizontal = 1;
place = (736, 102);
place = (736, 102);
type = Stem;
},
{
place = (26, 940);
place = (26, 940);
type = Stem;
},
{
horizontal = 1;
place = (0, 88);
place = (0, 88);
type = Stem;
},
{
horizontal = 1;
place = (588, 92);
place = (588, 92);
type = Stem;
}
);
layerId = m01;
shapes = (
{
closed = 1;
nodes = (
(528,739,cs),
(583,797,ls),
(587,802,o),
(591,808,o),
(591,816,cs),
(591,833,o),
(575,845,o),
(559,843,cs),
(516,837,o),
(481,802,o),
(479,759,cs),
(479,743,o),
(491,731,o),
(507,731,cs),
(516,731,o),
(523,733,o)
);
},
{
closed = 1;
nodes = (
(949,627,ls),
(950,631,o),
(951,636,o),
(951,641,cs),
(951,671,o),
(926,696,o),
(896,696,cs),
(871,696,o),
(849,677,o),
(844,653,cs),
(712,88,l),
(585,629,ls),
(577,663,o),
(555,680,o),
(521,680,cs),
(474,680,ls),
(440,680,o),
(418,663,o),
(410,630,cs),
(279,91,l),
(156,650,ls),
(150,676,o),
(127,695,o),
(99,695,cs),
(67,695,o),
(41,670,o),
(41,638,cs),
(41,633,o),
(42,627,o),
(43,623,cs),
(191,50,ls),
(200,17,o),
(221,0,o),
(255,0,cs),
(298,0,ls),
(332,0,o),
(354,17,o),
(362,50,cs),
(495,588,l),
(621,51,ls),
(629,17,o),
(651,0,o),
(685,0,cs),
(727,0,ls),
(761,0,o),
(782,15,o),
(791,49,cs)
);
}
);
width = 968;
}
);
note = Wacute;
unicode = 7810;
},
{
glyphname = Wcircumflex;
kernLeft = W;
kernRight = W;
lastChange = "2022-11-29 13:48:59 +0000";
layers = (
{
hints = (
{
horizontal = 1;
place = (0, 21);
target = up;
type = BottomGhost;
},
{
horizontal = 1;
place = (690, -20);
target = down;
type = TopGhost;
},
{
horizontal = 1;
place = (736, 102);
place = (736, 102);
type = Stem;
},
{
place = (26, 940);
place = (26, 940);
type = Stem;
},
{
horizontal = 1;
place = (0, 88);
place = (0, 88);
type = Stem;
},
{
horizontal = 1;
place = (588, 92);
place = (588, 92);
type = Stem;
}
);
layerId = m01;
shapes = (
{
closed = 1;
nodes = (
(472,747,cs),
(497,796,l),
(513,766,ls),
(523,747,o),
(563,741,o),
(568,780,cs),
(569,782,o),
(569,785,o),
(569,787,cs),
(569,816,o),
(546,839,o),
(517,839,cs),
(488,839,o),
(465,816,o),
(465,787,cs),
(465,766,o),
(473,787,o),
(486,808,cs),
(498,827,o),
(505,838,o),
(494,838,cs),
(451,838,o),
(415,803,o),
(413,761,cs),
(413,744,o),
(427,730,o),
(444,730,cs),
(456,730,o),
(467,737,o)
);
},
{
closed = 1;
nodes = (
(949,627,ls),
(950,631,o),
(951,636,o),
(951,641,cs),
(951,671,o),
(926,696,o),
(896,696,cs),
(871,696,o),
(849,677,o),
(844,653,cs),
(712,88,l),
(585,629,ls),
(577,663,o),
(555,680,o),
(521,680,cs),
(474,680,ls),
(440,680,o),
(418,663,o),
(410,630,cs),
(279,91,l),
(156,650,ls),
(150,676,o),
(127,695,o),
(99,695,cs),
(67,695,o),
(41,670,o),
(41,638,cs),
(41,633,o),
(42,627,o),
(43,623,cs),
(191,50,ls),
(200,17,o),
(221,0,o),
(255,0,cs),
(298,0,ls),
(332,0,o),
(354,17,o),
(362,50,cs),
(495,588,l),
(621,51,ls),
(629,17,o),
(651,0,o),
(685,0,cs),
(727,0,ls),
(761,0,o),
(782,15,o),
(791,49,cs)
);
}
);
width = 968;
}
);
note = Wcircumflex;
unicode = 372;
},
{
glyphname = Wdieresis;
kernLeft = W;
kernRight = W;
lastChange = "2022-11-29 13:48:59 +0000";
layers = (
{
hints = (
{
horizontal = 1;
place = (0, 21);
target = up;
type = BottomGhost;
},
{
horizontal = 1;
place = (690, -20);
target = down;
type = TopGhost;
},
{
horizontal = 1;
place = (733, 106);
place = (733, 106);
type = Stem;
},
{
place = (366, 107);
place = (366, 107);
type = Stem;
},
{
place = (521, 107);
place = (521, 107);
type = Stem;
},
{
horizontal = 1;
place = (0, 88);
place = (0, 88);
type = Stem;
},
{
horizontal = 1;
place = (588, 92);
place = (588, 92);
type = Stem;
}
);
layerId = m01;
shapes = (
{
closed = 1;
nodes = (
(949,627,ls),
(950,631,o),
(951,636,o),
(951,641,cs),
(951,671,o),
(926,696,o),
(896,696,cs),
(871,696,o),
(849,677,o),
(844,653,cs),
(712,88,l),
(585,629,ls),
(577,663,o),
(555,680,o),
(521,680,cs),
(474,680,ls),
(440,680,o),
(418,663,o),
(410,630,cs),
(279,91,l),
(156,650,ls),
(150,676,o),
(127,695,o),
(99,695,cs),
(67,695,o),
(41,670,o),
(41,638,cs),
(41,633,o),
(42,627,o),
(43,623,cs),
(191,50,ls),
(200,17,o),
(221,0,o),
(255,0,cs),
(298,0,ls),
(332,0,o),
(354,17,o),
(362,50,cs),
(495,588,l),
(621,51,ls),
(629,17,o),
(651,0,o),
(685,0,cs),
(727,0,ls),
(761,0,o),
(782,15,o),
(791,49,cs)
);
},
{
closed = 1;
nodes = (
(414,733,cs),
(428,733,ls),
(456,733,o),
(480,756,o),
(480,784,cs),
(480,791,o),
(478,798,o),
(476,803,cs),
(467,826,o),
(446,844,o),
(420,844,cs),
(410,844,o),
(401,841,o),
(394,837,cs),
(375,827,o),
(361,808,o),
(361,786,cs),
(361,757,o),
(385,733,o)
);
},
{
closed = 1;
nodes = (
(569,733,cs),
(583,733,ls),
(611,733,o),
(635,756,o),
(635,784,cs),
(635,791,o),
(633,798,o),
(631,803,cs),
(622,826,o),
(601,844,o),
(575,844,cs),
(565,844,o),
(556,841,o),
(549,837,cs),
(530,827,o),
(516,808,o),
(516,786,cs),
(516,757,o),
(540,733,o)
);
}
);
width = 968;
}
);
note = Wdieresis;
unicode = 7812;
},
{
glyphname = Wgrave;
kernLeft = W;
kernRight = W;
lastChange = "2022-11-29 13:48:59 +0000";
layers = (
{
hints = (
{
horizontal = 1;
place = (0, 21);
target = up;
type = BottomGhost;
},
{
horizontal = 1;
place = (690, -20);
target = down;
type = TopGhost;
},
{
horizontal = 1;
place = (736, 102);
place = (736, 102);
type = Stem;
},
{
place = (26, 940);
place = (26, 940);
type = Stem;
},
{
horizontal = 1;
place = (0, 88);
place = (0, 88);
type = Stem;
},
{
horizontal = 1;
place = (588, 92);
place = (588, 92);
type = Stem;
}
);
layerId = m01;
shapes = (
{
closed = 1;
nodes = (
(430,778,ls),
(456,750,o),
(498,743,o),
(504,780,cs),
(505,784,o),
(505,787,o),
(505,791,cs),
(505,822,o),
(480,841,o),
(450,844,c),
(430,844,o),
(415,828,o),
(415,808,cs),
(415,799,o),
(418,791,o),
(424,784,cs)
);
},
{
closed = 1;
nodes = (
(949,627,ls),
(950,631,o),
(951,636,o),
(951,641,cs),
(951,671,o),
(926,696,o),
(896,696,cs),
(871,696,o),
(849,677,o),
(844,653,cs),
(712,88,l),
(585,629,ls),
(577,663,o),
(555,680,o),
(521,680,cs),
(474,680,ls),
(440,680,o),
(418,663,o),
(410,630,cs),
(279,91,l),
(156,650,ls),
(150,676,o),
(127,695,o),
(99,695,cs),
(67,695,o),
(41,670,o),
(41,638,cs),
(41,633,o),
(42,627,o),
(43,623,cs),
(191,50,ls),
(200,17,o),
(221,0,o),
(255,0,cs),
(298,0,ls),
(332,0,o),
(354,17,o),
(362,50,cs),
(495,588,l),
(621,51,ls),
(629,17,o),
(651,0,o),
(685,0,cs),
(727,0,ls),
(761,0,o),
(782,15,o),
(791,49,cs)
);
}
);
width = 968;
}
);
note = Wgrave;
unicode = 7808;
},
{
glyphname = X;
lastChange = "2022-11-29 13:48:59 +0000";
layers = (
{
hints = (
{
horizontal = 1;
place = (0, 21);
target = up;
type = BottomGhost;
},
{
horizontal = 1;
place = (690, -20);
target = down;
type = TopGhost;
},
{
place = (22, 625);
place = (22, 625);
type = Stem;
}
);
layerId = m01;
shapes = (
{
closed = 1;
nodes = (
(507,17,ls),
(516,3,o),
(532,-6,o),
(550,-6,cs),
(579,-6,o),
(602,18,o),
(602,47,cs),
(602,58,o),
(599,68,o),
(593,77,cs),
(399,351,l),
(586,615,ls),
(592,624,o),
(595,633,o),
(595,644,cs),
(595,673,o),
(572,696,o),
(544,696,cs),
(526,696,o),
(510,686,o),
(501,672,cs),
(336,420,l),
(178,671,ls),
(169,685,o),
(152,695,o),
(134,695,cs),
(105,695,o),
(82,672,o),
(82,643,cs),
(82,633,o),
(86,622,o),
(91,614,cs),
(269,348,l),
(72,70,ls),
(44,30,o),
(60,0,o),
(106,0,cs),
(137,0,o),
(158,11,o),
(175,38,cs),
(331,279,l)
);
}
);
width = 648;
}
);
note = X;
unicode = 88;
},
{
glyphname = Y;
kernLeft = Y;
kernRight = Y;
lastChange = "2022-11-29 13:48:59 +0000";
layers = (
{
hints = (
{
horizontal = 1;
place = (0, 21);
target = up;
type = BottomGhost;
},
{
horizontal = 1;
place = (690, -20);
target = down;
type = TopGhost;
},
{
place = (262, 109);
place = (262, 109);
type = Stem;
}
);
layerId = m01;
shapes = (
{
closed = 1;
nodes = (
(371,270,l),
(572,617,ls),
(576,624,o),
(580,634,o),
(580,643,cs),
(580,672,o),
(556,696,o),
(527,696,cs),
(507,696,o),
(490,685,o),
(481,668,cs),
(321,371,l),
(155,668,ls),
(146,685,o),
(129,696,o),
(108,696,cs),
(79,696,o),
(54,671,o),
(54,642,cs),
(54,632,o),
(58,623,o),
(62,615,cs),
(262,270,l),
(262,49,ls),
(262,19,o),
(286,-6,o),
(317,-6,cs),
(347,-6,o),
(371,19,o),
(371,49,cs)
);
}
);
width = 602;
}
);
note = Y;
unicode = 89;
},
{
glyphname = Yacute;
kernLeft = Y;
kernRight = Y;
lastChange = "2022-11-29 13:48:59 +0000";
layers = (
{
hints = (
{
horizontal = 1;
place = (0, 21);
target = up;
type = BottomGhost;
},
{
horizontal = 1;
place = (690, -20);
target = down;
type = TopGhost;
},
{
horizontal = 1;
place = (736, 102);
place = (736, 102);
type = Stem;
},
{
place = (262, 109);
place = (262, 109);
type = Stem;
}
);
layerId = m01;
shapes = (
{
closed = 1;
nodes = (
(347,739,cs),
(402,797,ls),
(406,802,o),
(410,808,o),
(410,816,cs),
(410,833,o),
(394,845,o),
(378,843,cs),
(335,837,o),
(300,802,o),
(298,759,cs),
(298,743,o),
(310,731,o),
(326,731,cs),
(335,731,o),
(342,733,o)
);
},
{
closed = 1;
nodes = (
(371,270,l),
(572,617,ls),
(576,624,o),
(580,634,o),
(580,643,cs),
(580,672,o),
(556,696,o),
(527,696,cs),
(507,696,o),
(490,685,o),
(481,668,cs),
(321,371,l),
(155,668,ls),
(146,685,o),
(129,696,o),
(108,696,cs),
(79,696,o),
(54,671,o),
(54,642,cs),
(54,632,o),
(58,623,o),
(62,615,cs),
(262,270,l),
(262,49,ls),
(262,19,o),
(286,-6,o),
(317,-6,cs),
(347,-6,o),
(371,19,o),
(371,49,cs)
);
}
);
width = 602;
}
);
note = Yacute;
unicode = 221;
},
{
glyphname = Ycircumflex;
kernLeft = Y;
kernRight = Y;
lastChange = "2022-11-29 13:48:59 +0000";
layers = (
{
hints = (
{
horizontal = 1;
place = (0, 21);
target = up;
type = BottomGhost;
},
{
horizontal = 1;
place = (690, -20);
target = down;
type = TopGhost;
},
{
horizontal = 1;
place = (736, 102);
place = (736, 102);
type = Stem;
},
{
place = (262, 109);
place = (262, 109);
type = Stem;
}
);
layerId = m01;
shapes = (
{
closed = 1;
nodes = (
(291,747,cs),
(316,796,l),
(332,766,ls),
(342,747,o),
(382,741,o),
(387,780,cs),
(388,782,o),
(388,785,o),
(388,787,cs),
(388,816,o),
(365,839,o),
(336,839,cs),
(307,839,o),
(284,816,o),
(284,787,cs),
(284,766,o),
(292,787,o),
(305,808,cs),
(317,827,o),
(324,838,o),
(313,838,cs),
(270,838,o),
(234,803,o),
(232,761,cs),
(232,744,o),
(246,730,o),
(263,730,cs),
(275,730,o),
(286,737,o)
);
},
{
closed = 1;
nodes = (
(371,270,l),
(572,617,ls),
(576,624,o),
(580,634,o),
(580,643,cs),
(580,672,o),
(556,696,o),
(527,696,cs),
(507,696,o),
(490,685,o),
(481,668,cs),
(321,371,l),
(155,668,ls),
(146,685,o),
(129,696,o),
(108,696,cs),
(79,696,o),
(54,671,o),
(54,642,cs),
(54,632,o),
(58,623,o),
(62,615,cs),
(262,270,l),
(262,49,ls),
(262,19,o),
(286,-6,o),
(317,-6,cs),
(347,-6,o),
(371,19,o),
(371,49,cs)
);
}
);
width = 602;
}
);
note = Ycircumflex;
unicode = 374;
},
{
glyphname = Ydieresis;
kernLeft = Y;
kernRight = Y;
lastChange = "2022-11-29 13:48:59 +0000";
layers = (
{
hints = (
{
horizontal = 1;
place = (0, 21);
target = up;
type = BottomGhost;
},
{
horizontal = 1;
place = (690, -20);
target = down;
type = TopGhost;
},
{
horizontal = 1;
place = (733, 106);
place = (733, 106);
type = Stem;
},
{
place = (185, 107);
place = (185, 107);
type = Stem;
},
{
place = (340, 107);
place = (340, 107);
type = Stem;
},
{
place = (262, 109);
place = (262, 109);
type = Stem;
}
);
layerId = m01;
shapes = (
{
closed = 1;
nodes = (
(371,270,l),
(572,617,ls),
(576,624,o),
(580,634,o),
(580,643,cs),
(580,672,o),
(556,696,o),
(527,696,cs),
(507,696,o),
(490,685,o),
(481,668,cs),
(321,371,l),
(155,668,ls),
(146,685,o),
(129,696,o),
(108,696,cs),
(79,696,o),
(54,671,o),
(54,642,cs),
(54,632,o),
(58,623,o),
(62,615,cs),
(262,270,l),
(262,49,ls),
(262,19,o),
(286,-6,o),
(317,-6,cs),
(347,-6,o),
(371,19,o),
(371,49,cs)
);
},
{
closed = 1;
nodes = (
(231,733,cs),
(245,733,ls),
(273,733,o),
(297,756,o),
(297,784,cs),
(297,791,o),
(295,798,o),
(293,803,cs),
(284,826,o),
(263,844,o),
(237,844,cs),
(227,844,o),
(218,841,o),
(211,837,cs),
(192,827,o),
(178,808,o),
(178,786,cs),
(178,757,o),
(202,733,o)
);
},
{
closed = 1;
nodes = (
(386,733,cs),
(400,733,ls),
(428,733,o),
(451,756,o),
(451,784,cs),
(451,790,o),
(450,796,o),
(448,802,cs),
(439,826,o),
(418,845,o),
(392,845,cs),
(382,845,o),
(373,841,o),
(366,837,cs),
(347,827,o),
(333,808,o),
(333,786,cs),
(333,757,o),
(357,733,o)
);
}
);
width = 602;
}
);
note = Ydieresis;
unicode = 376;
},
{
glyphname = Ygrave;
kernLeft = Y;
kernRight = Y;
lastChange = "2022-11-29 13:48:59 +0000";
layers = (
{
hints = (
{
horizontal = 1;
place = (0, 21);
target = up;
type = BottomGhost;
},
{
horizontal = 1;
place = (690, -20);
target = down;
type = TopGhost;
},
{
horizontal = 1;
place = (736, 102);
place = (736, 102);
type = Stem;
},
{
place = (262, 109);
place = (262, 109);
type = Stem;
}
);
layerId = m01;
shapes = (
{
closed = 1;
nodes = (
(249,778,ls),
(275,750,o),
(317,743,o),
(323,780,cs),
(324,784,o),
(324,787,o),
(324,791,cs),
(324,822,o),
(299,841,o),
(269,844,c),
(249,844,o),
(234,828,o),
(234,808,cs),
(234,799,o),
(237,791,o),
(243,784,cs)
);
},
{
closed = 1;
nodes = (
(371,270,l),
(572,617,ls),
(576,624,o),
(580,634,o),
(580,643,cs),
(580,672,o),
(556,696,o),
(527,696,cs),
(507,696,o),
(490,685,o),
(481,668,cs),
(321,371,l),
(155,668,ls),
(146,685,o),
(129,696,o),
(108,696,cs),
(79,696,o),
(54,671,o),
(54,642,cs),
(54,632,o),
(58,623,o),
(62,615,cs),
(262,270,l),
(262,49,ls),
(262,19,o),
(286,-6,o),
(317,-6,cs),
(347,-6,o),
(371,19,o),
(371,49,cs)
);
}
);
width = 602;
}
);
note = Ygrave;
unicode = 7922;
},
{
glyphname = Z;
kernLeft = Z;
kernRight = Z;
lastChange = "2022-11-29 13:48:59 +0000";
layers = (
{
hints = (
{
horizontal = 1;
place = (0, 88);
place = (0, 88);
type = Stem;
},
{
horizontal = 1;
place = (603, 87);
place = (603, 87);
type = Stem;
},
{
place = (48, 533);
place = (48, 533);
type = Stem;
}
);
layerId = m01;
shapes = (
{
closed = 1;
nodes = (
(543,88,cs),
(179,88,l),
(569,595,ls),
(576,605,o),
(581,618,o),
(581,631,cs),
(581,664,o),
(555,690,o),
(523,690,cs),
(114,690,ls),
(90,690,o),
(71,671,o),
(71,647,cs),
(71,622,o),
(90,603,o),
(114,603,cs),
(448,603,l),
(54,92,ls),
(47,82,o),
(42,71,o),
(42,57,cs),
(42,26,o),
(69,0,o),
(100,0,cs),
(543,0,ls),
(567,0,o),
(587,20,o),
(587,44,cs),
(587,68,o),
(567,88,o)
);
}
);
width = 605;
}
);
note = Z;
unicode = 90;
},
{
glyphname = Zacute;
kernLeft = Z;
kernRight = Z;
lastChange = "2022-11-29 13:48:59 +0000";
layers = (
{
hints = (
{
horizontal = 1;
place = (0, 88);
place = (0, 88);
type = Stem;
},
{
horizontal = 1;
place = (603, 87);
place = (603, 87);
type = Stem;
},
{
horizontal = 1;
place = (736, 102);
place = (736, 102);
type = Stem;
},
{
place = (48, 533);
place = (48, 533);
type = Stem;
}
);
layerId = m01;
shapes = (
{
closed = 1;
nodes = (
(346,739,cs),
(401,797,ls),
(405,802,o),
(409,808,o),
(409,816,cs),
(409,833,o),
(393,845,o),
(377,843,cs),
(334,837,o),
(299,802,o),
(297,759,cs),
(297,743,o),
(309,731,o),
(325,731,cs),
(334,731,o),
(341,733,o)
);
},
{
closed = 1;
nodes = (
(543,88,cs),
(179,88,l),
(569,595,ls),
(576,605,o),
(581,618,o),
(581,631,cs),
(581,664,o),
(555,690,o),
(523,690,cs),
(114,690,ls),
(90,690,o),
(71,671,o),
(71,647,cs),
(71,622,o),
(90,603,o),
(114,603,cs),
(448,603,l),
(54,92,ls),
(47,82,o),
(42,71,o),
(42,57,cs),
(42,26,o),
(69,0,o),
(100,0,cs),
(543,0,ls),
(567,0,o),
(587,20,o),
(587,44,cs),
(587,68,o),
(567,88,o)
);
}
);
width = 605;
}
);
note = Zacute;
unicode = 377;
},
{
glyphname = Zcaron;
kernLeft = Z;
kernRight = Z;
lastChange = "2022-11-29 13:48:59 +0000";
layers = (
{
hints = (
{
horizontal = 1;
place = (0, 88);
place = (0, 88);
type = Stem;
},
{
horizontal = 1;
place = (603, 87);
place = (603, 87);
type = Stem;
},
{
horizontal = 1;
place = (736, 102);
place = (736, 102);
type = Stem;
},
{
place = (48, 533);
place = (48, 533);
type = Stem;
}
);
layerId = m01;
shapes = (
{
closed = 1;
nodes = (
(296,736,cs),
(319,736,ls),
(362,736,o),
(398,771,o),
(400,813,cs),
(400,830,o),
(386,844,o),
(369,844,cs),
(357,844,o),
(346,837,o),
(341,827,cs),
(316,777,l),
(301,808,ls),
(291,828,o),
(250,833,o),
(244,794,cs),
(244,792,o),
(244,789,o),
(244,787,cs),
(244,758,o),
(268,736,o)
);
},
{
closed = 1;
nodes = (
(543,88,cs),
(179,88,l),
(569,595,ls),
(576,605,o),
(581,618,o),
(581,631,cs),
(581,664,o),
(555,690,o),
(523,690,cs),
(114,690,ls),
(90,690,o),
(71,671,o),
(71,647,cs),
(71,622,o),
(90,603,o),
(114,603,cs),
(448,603,l),
(54,92,ls),
(47,82,o),
(42,71,o),
(42,57,cs),
(42,26,o),
(69,0,o),
(100,0,cs),
(543,0,ls),
(567,0,o),
(587,20,o),
(587,44,cs),
(587,68,o),
(567,88,o)
);
}
);
width = 605;
}
);
note = Zcaron;
unicode = 381;
},
{
glyphname = Zdotaccent;
kernLeft = Z;
kernRight = Z;
lastChange = "2022-11-29 13:48:59 +0000";
layers = (
{
hints = (
{
horizontal = 1;
place = (0, 88);
place = (0, 88);
type = Stem;
},
{
horizontal = 1;
place = (603, 87);
place = (603, 87);
type = Stem;
},
{
horizontal = 1;
place = (734, 113);
place = (734, 113);
type = Stem;
},
{
place = (257, 116);
place = (257, 116);
type = Stem;
}
);
layerId = m01;
shapes = (
{
closed = 1;
nodes = (
(348,734,o),
(373,758,o),
(373,791,cs),
(373,823,o),
(348,847,o),
(315,847,cs),
(282,847,o),
(257,823,o),
(257,791,cs),
(257,758,o),
(282,734,o),
(315,734,cs)
);
},
{
closed = 1;
nodes = (
(543,88,cs),
(179,88,l),
(569,595,ls),
(576,605,o),
(581,618,o),
(581,631,cs),
(581,664,o),
(555,690,o),
(523,690,cs),
(114,690,ls),
(90,690,o),
(71,671,o),
(71,647,cs),
(71,622,o),
(90,603,o),
(114,603,cs),
(448,603,l),
(54,92,ls),
(47,82,o),
(42,71,o),
(42,57,cs),
(42,26,o),
(69,0,o),
(100,0,cs),
(543,0,ls),
(567,0,o),
(587,20,o),
(587,44,cs),
(587,68,o),
(567,88,o)
);
}
);
width = 605;
}
);
note = Zdotaccent;
unicode = 379;
},
{
glyphname = a;
kernLeft = a;
lastChange = "2022-11-29 13:48:59 +0000";
layers = (
{
hints = (
{
horizontal = 1;
place = (0, 66);
place = (0, 66);
type = Stem;
},
{
horizontal = 1;
place = (248, 73);
place = (248, 73);
type = Stem;
},
{
horizontal = 1;
place = (465, 80);
place = (465, 80);
type = Stem;
},
{
place = (35, 116);
place = (35, 116);
type = Stem;
},
{
place = (364, 110);
place = (364, 110);
type = Stem;
},
{
horizontal = 1;
place = (-14, 80);
place = (-14, 80);
type = Stem;
}
);
layerId = m01;
shapes = (
{
closed = 1;
nodes = (
(370,42,ls),
(373,16,o),
(396,-6,o),
(423,-6,cs),
(455,-6,o),
(481,23,o),
(478,54,cs),
(475,85,o),
(474,109,o),
(474,135,cs),
(474,322,ls),
(474,347,o),
(473,375,o),
(471,397,cs),
(462,487,o),
(408,545,o),
(271,545,cs),
(177,545,o),
(104,505,o),
(72,431,cs),
(69,424,o),
(68,418,o),
(68,410,cs),
(68,381,o),
(92,357,o),
(122,357,cs),
(146,357,o),
(167,373,o),
(173,395,cs),
(186,442,o),
(218,465,o),
(269,465,cs),
(332,465,o),
(359,435,o),
(362,392,cs),
(364,372,o),
(364,354,o),
(364,334,cs),
(364,321,l),
(330,321,ls),
(129,321,o),
(35,257,o),
(35,139,cs),
(35,40,o),
(112,-14,o),
(206,-14,cs),
(241,-14,o),
(274,-10,o),
(304,2,cs),
(330,12,o),
(343,29,o),
(355,55,cs),
(365,77,l)
);
},
{
closed = 1;
nodes = (
(188,66,o),
(151,92,o),
(151,148,cs),
(151,229,o),
(235,258,o),
(364,248,c),
(364,199,ls),
(364,113,o),
(315,66,o),
(246,66,cs)
);
}
);
width = 545;
}
);
note = a;
unicode = 97;
},
{
glyphname = aacute;
kernLeft = a;
lastChange = "2022-11-29 13:48:59 +0000";
layers = (
{
hints = (
{
horizontal = 1;
place = (-14, 80);
place = (-14, 80);
type = Stem;
},
{
horizontal = 1;
place = (248, 73);
place = (248, 73);
type = Stem;
},
{
horizontal = 1;
place = (465, 80);
place = (465, 80);
type = Stem;
},
{
horizontal = 1;
place = (578, 114);
place = (578, 114);
type = Stem;
},
{
place = (35, 116);
place = (35, 116);
type = Stem;
},
{
place = (364, 110);
place = (364, 110);
type = Stem;
},
{
horizontal = 1;
place = (0, 66);
place = (0, 66);
type = Stem;
}
);
layerId = m01;
shapes = (
{
closed = 1;
nodes = (
(302,582,cs),
(368,655,ls),
(372,659,o),
(374,665,o),
(374,672,cs),
(374,687,o),
(360,699,o),
(345,697,cs),
(298,691,o),
(255,654,o),
(251,608,cs),
(251,602,ls),
(251,585,o),
(264,572,o),
(280,572,cs),
(289,572,o),
(297,576,o)
);
},
{
closed = 1;
nodes = (
(370,42,ls),
(373,16,o),
(396,-6,o),
(423,-6,cs),
(455,-6,o),
(481,23,o),
(478,54,cs),
(475,85,o),
(474,109,o),
(474,135,cs),
(474,322,ls),
(474,347,o),
(473,375,o),
(471,397,cs),
(462,487,o),
(408,545,o),
(271,545,cs),
(177,545,o),
(104,505,o),
(72,431,cs),
(69,424,o),
(68,418,o),
(68,410,cs),
(68,381,o),
(92,357,o),
(122,357,cs),
(146,357,o),
(167,373,o),
(173,395,cs),
(186,442,o),
(218,465,o),
(269,465,cs),
(332,465,o),
(359,435,o),
(362,392,cs),
(364,372,o),
(364,354,o),
(364,334,cs),
(364,321,l),
(330,321,ls),
(129,321,o),
(35,257,o),
(35,139,cs),
(35,40,o),
(112,-14,o),
(206,-14,cs),
(241,-14,o),
(274,-10,o),
(304,2,cs),
(330,12,o),
(343,29,o),
(355,55,cs),
(365,77,l)
);
},
{
closed = 1;
nodes = (
(188,66,o),
(151,92,o),
(151,148,cs),
(151,229,o),
(235,258,o),
(364,248,c),
(364,199,ls),
(364,113,o),
(315,66,o),
(246,66,cs)
);
}
);
width = 545;
}
);
note = aacute;
unicode = 225;
},
{
glyphname = abreve;
kernLeft = a;
lastChange = "2022-11-29 13:48:59 +0000";
layers = (
{
hints = (
{
horizontal = 1;
place = (-14, 80);
place = (-14, 80);
type = Stem;
},
{
horizontal = 1;
place = (248, 73);
place = (248, 73);
type = Stem;
},
{
horizontal = 1;
place = (465, 80);
place = (465, 80);
type = Stem;
},
{
horizontal = 1;
place = (567, 125);
place = (567, 125);
type = Stem;
},
{
place = (35, 116);
place = (35, 116);
type = Stem;
},
{
place = (161, 62);
place = (161, 62);
type = Stem;
},
{
place = (319, 62);
place = (319, 62);
type = Stem;
},
{
horizontal = 1;
place = (567, 62);
place = (567, 62);
type = Stem;
},
{
place = (364, 110);
place = (364, 110);
type = Stem;
},
{
horizontal = 1;
place = (0, 66);
place = (0, 66);
type = Stem;
}
);
layerId = m01;
shapes = (
{
closed = 1;
nodes = (
(332,567,o),
(369,595,o),
(379,662,cs),
(381,680,o),
(367,698,o),
(348,698,cs),
(332,698,o),
(320,686,o),
(317,672,cs),
(311,640,o),
(295,629,o),
(271,629,cs),
(247,629,o),
(231,640,o),
(225,672,cs),
(222,686,o),
(210,698,o),
(194,698,cs),
(174,698,o),
(161,680,o),
(163,662,cs),
(172,595,o),
(209,567,o),
(271,567,cs)
);
},
{
closed = 1;
nodes = (
(370,42,ls),
(373,16,o),
(396,-6,o),
(423,-6,cs),
(455,-6,o),
(481,23,o),
(478,54,cs),
(475,85,o),
(474,109,o),
(474,135,cs),
(474,322,ls),
(474,347,o),
(473,375,o),
(471,397,cs),
(462,487,o),
(408,545,o),
(271,545,cs),
(177,545,o),
(104,505,o),
(72,431,cs),
(69,424,o),
(68,418,o),
(68,410,cs),
(68,381,o),
(92,357,o),
(122,357,cs),
(146,357,o),
(167,373,o),
(173,395,cs),
(186,442,o),
(218,465,o),
(269,465,cs),
(332,465,o),
(359,435,o),
(362,392,cs),
(364,372,o),
(364,354,o),
(364,334,cs),
(364,321,l),
(330,321,ls),
(129,321,o),
(35,257,o),
(35,139,cs),
(35,40,o),
(112,-14,o),
(206,-14,cs),
(241,-14,o),
(274,-10,o),
(304,2,cs),
(330,12,o),
(343,29,o),
(355,55,cs),
(365,77,l)
);
},
{
closed = 1;
nodes = (
(188,66,o),
(151,92,o),
(151,148,cs),
(151,229,o),
(235,258,o),
(364,248,c),
(364,199,ls),
(364,113,o),
(315,66,o),
(246,66,cs)
);
}
);
width = 545;
}
);
note = abreve;
unicode = 259;
},
{
glyphname = acircumflex;
kernLeft = a;
lastChange = "2022-11-29 13:48:59 +0000";
layers = (
{
hints = (
{
horizontal = 1;
place = (-14, 80);
place = (-14, 80);
type = Stem;
},
{
horizontal = 1;
place = (248, 73);
place = (248, 73);
type = Stem;
},
{
horizontal = 1;
place = (465, 80);
place = (465, 80);
type = Stem;
},
{
horizontal = 1;
place = (578, 114);
place = (578, 114);
type = Stem;
},
{
place = (35, 116);
place = (35, 116);
type = Stem;
},
{
place = (364, 110);
place = (364, 110);
type = Stem;
},
{
horizontal = 1;
place = (643, 49);
place = (643, 49);
type = Stem;
},
{
horizontal = 1;
place = (0, 66);
place = (0, 66);
type = Stem;
}
);
layerId = m01;
shapes = (
{
closed = 1;
nodes = (
(244,590,cs),
(271,643,l),
(298,590,ls),
(303,579,o),
(314,573,o),
(326,573,cs),
(344,573,o),
(358,587,o),
(358,604,cs),
(358,610,o),
(357,616,o),
(354,620,cs),
(335,652,ls),
(319,679,o),
(300,692,o),
(275,692,cs),
(229,692,o),
(189,657,o),
(186,611,c),
(185,609,o),
(185,606,o),
(185,604,cs),
(185,586,o),
(199,573,o),
(216,573,cs),
(228,573,o),
(239,579,o)
);
},
{
closed = 1;
nodes = (
(370,42,ls),
(373,16,o),
(396,-6,o),
(423,-6,cs),
(455,-6,o),
(481,23,o),
(478,54,cs),
(475,85,o),
(474,109,o),
(474,135,cs),
(474,322,ls),
(474,347,o),
(473,375,o),
(471,397,cs),
(462,487,o),
(408,545,o),
(271,545,cs),
(177,545,o),
(104,505,o),
(72,431,cs),
(69,424,o),
(68,418,o),
(68,410,cs),
(68,381,o),
(92,357,o),
(122,357,cs),
(146,357,o),
(167,373,o),
(173,395,cs),
(186,442,o),
(218,465,o),
(269,465,cs),
(332,465,o),
(359,435,o),
(362,392,cs),
(364,372,o),
(364,354,o),
(364,334,cs),
(364,321,l),
(330,321,ls),
(129,321,o),
(35,257,o),
(35,139,cs),
(35,40,o),
(112,-14,o),
(206,-14,cs),
(241,-14,o),
(274,-10,o),
(304,2,cs),
(330,12,o),
(343,29,o),
(355,55,cs),
(365,77,l)
);
},
{
closed = 1;
nodes = (
(188,66,o),
(151,92,o),
(151,148,cs),
(151,229,o),
(235,258,o),
(364,248,c),
(364,199,ls),
(364,113,o),
(315,66,o),
(246,66,cs)
);
}
);
width = 545;
}
);
note = acircumflex;
unicode = 226;
},
{
glyphname = adieresis;
kernLeft = a;
lastChange = "2022-11-29 13:48:59 +0000";
layers = (
{
hints = (
{
horizontal = 1;
place = (-14, 80);
place = (-14, 80);
type = Stem;
},
{
horizontal = 1;
place = (248, 73);
place = (248, 73);
type = Stem;
},
{
horizontal = 1;
place = (465, 80);
place = (465, 80);
type = Stem;
},
{
horizontal = 1;
place = (580, 105);
place = (580, 105);
type = Stem;
},
{
place = (138, 107);
place = (138, 107);
type = Stem;
},
{
place = (298, 106);
place = (298, 106);
type = Stem;
},
{
horizontal = 1;
place = (0, 66);
place = (0, 66);
type = Stem;
},
{
place = (35, 116);
place = (35, 116);
type = Stem;
},
{
place = (364, 110);
place = (364, 110);
type = Stem;
}
);
layerId = m01;
shapes = (
{
closed = 1;
nodes = (
(370,42,ls),
(373,16,o),
(396,-6,o),
(423,-6,cs),
(455,-6,o),
(481,23,o),
(478,54,cs),
(475,85,o),
(474,109,o),
(474,135,cs),
(474,322,ls),
(474,347,o),
(473,375,o),
(471,397,cs),
(462,487,o),
(408,545,o),
(271,545,cs),
(177,545,o),
(104,505,o),
(72,431,cs),
(69,424,o),
(68,418,o),
(68,410,cs),
(68,381,o),
(92,357,o),
(122,357,cs),
(146,357,o),
(167,373,o),
(173,395,cs),
(186,442,o),
(218,465,o),
(269,465,cs),
(332,465,o),
(359,435,o),
(362,392,cs),
(364,372,o),
(364,354,o),
(364,334,cs),
(364,321,l),
(330,321,ls),
(129,321,o),
(35,257,o),
(35,139,cs),
(35,40,o),
(112,-14,o),
(206,-14,cs),
(241,-14,o),
(274,-10,o),
(304,2,cs),
(330,12,o),
(343,29,o),
(355,55,cs),
(365,77,l)
);
},
{
closed = 1;
nodes = (
(188,66,o),
(151,92,o),
(151,148,cs),
(151,229,o),
(235,258,o),
(364,248,c),
(364,199,ls),
(364,113,o),
(315,66,o),
(246,66,cs)
);
},
{
closed = 1;
nodes = (
(187,583,cs),
(201,583,ls),
(229,583,o),
(253,606,o),
(253,634,cs),
(253,641,o),
(251,648,o),
(249,653,cs),
(240,676,o),
(219,694,o),
(193,694,cs),
(183,694,o),
(174,691,o),
(167,687,cs),
(148,677,o),
(134,658,o),
(134,636,cs),
(134,607,o),
(158,583,o)
);
},
{
closed = 1;
nodes = (
(342,583,cs),
(356,583,ls),
(384,583,o),
(407,606,o),
(407,634,cs),
(407,640,o),
(406,646,o),
(404,652,cs),
(395,676,o),
(374,695,o),
(348,695,cs),
(338,695,o),
(329,691,o),
(322,687,cs),
(303,677,o),
(289,658,o),
(289,636,cs),
(289,607,o),
(313,583,o)
);
}
);
width = 545;
}
);
note = adieresis;
unicode = 228;
},
{
glyphname = agrave;
kernLeft = a;
lastChange = "2022-11-29 13:48:59 +0000";
layers = (
{
hints = (
{
horizontal = 1;
place = (-14, 80);
place = (-14, 80);
type = Stem;
},
{
horizontal = 1;
place = (248, 73);
place = (248, 73);
type = Stem;
},
{
horizontal = 1;
place = (465, 80);
place = (465, 80);
type = Stem;
},
{
horizontal = 1;
place = (578, 114);
place = (578, 114);
type = Stem;
},
{
place = (35, 116);
place = (35, 116);
type = Stem;
},
{
place = (364, 110);
place = (364, 110);
type = Stem;
},
{
horizontal = 1;
place = (0, 66);
place = (0, 66);
type = Stem;
}
);
layerId = m01;
shapes = (
{
closed = 1;
nodes = (
(242,582,ls),
(247,576,o),
(255,573,o),
(264,573,cs),
(280,573,o),
(293,586,o),
(293,602,cs),
(293,607,o),
(291,613,o),
(289,617,cs),
(251,680,ls),
(245,691,o),
(233,698,o),
(220,698,cs),
(200,698,o),
(184,681,o),
(184,661,cs),
(184,652,o),
(188,643,o),
(193,637,cs)
);
},
{
closed = 1;
nodes = (
(370,42,ls),
(373,16,o),
(396,-6,o),
(423,-6,cs),
(455,-6,o),
(481,23,o),
(478,54,cs),
(475,85,o),
(474,109,o),
(474,135,cs),
(474,322,ls),
(474,347,o),
(473,375,o),
(471,397,cs),
(462,487,o),
(408,545,o),
(271,545,cs),
(177,545,o),
(104,505,o),
(72,431,cs),
(69,424,o),
(68,418,o),
(68,410,cs),
(68,381,o),
(92,357,o),
(122,357,cs),
(146,357,o),
(167,373,o),
(173,395,cs),
(186,442,o),
(218,465,o),
(269,465,cs),
(332,465,o),
(359,435,o),
(362,392,cs),
(364,372,o),
(364,354,o),
(364,334,cs),
(364,321,l),
(330,321,ls),
(129,321,o),
(35,257,o),
(35,139,cs),
(35,40,o),
(112,-14,o),
(206,-14,cs),
(241,-14,o),
(274,-10,o),
(304,2,cs),
(330,12,o),
(343,29,o),
(355,55,cs),
(365,77,l)
);
},
{
closed = 1;
nodes = (
(188,66,o),
(151,92,o),
(151,148,cs),
(151,229,o),
(235,258,o),
(364,248,c),
(364,199,ls),
(364,113,o),
(315,66,o),
(246,66,cs)
);
}
);
width = 545;
}
);
note = agrave;
unicode = 224;
},
{
glyphname = amacron;
kernLeft = a;
lastChange = "2022-11-29 13:48:59 +0000";
layers = (
{
hints = (
{
horizontal = 1;
place = (-14, 80);
place = (-14, 80);
type = Stem;
},
{
horizontal = 1;
place = (248, 73);
place = (248, 73);
type = Stem;
},
{
horizontal = 1;
place = (465, 80);
place = (465, 80);
type = Stem;
},
{
horizontal = 1;
place = (600, 63);
place = (600, 63);
type = Stem;
},
{
place = (144, 255);
place = (144, 255);
type = Stem;
},
{
horizontal = 1;
place = (0, 66);
place = (0, 66);
type = Stem;
},
{
place = (35, 116);
place = (35, 116);
type = Stem;
},
{
place = (364, 110);
place = (364, 110);
type = Stem;
}
);
layerId = m01;
shapes = (
{
closed = 1;
nodes = (
(373,600,ls),
(390,600,o),
(405,614,o),
(405,632,cs),
(405,649,o),
(390,663,o),
(373,663,cs),
(170,663,ls),
(153,663,o),
(139,649,o),
(139,632,cs),
(139,614,o),
(153,600,o),
(170,600,cs)
);
},
{
closed = 1;
nodes = (
(370,42,ls),
(373,16,o),
(396,-6,o),
(423,-6,cs),
(455,-6,o),
(481,23,o),
(478,54,cs),
(475,85,o),
(474,109,o),
(474,135,cs),
(474,322,ls),
(474,347,o),
(473,375,o),
(471,397,cs),
(462,487,o),
(408,545,o),
(271,545,cs),
(177,545,o),
(104,505,o),
(72,431,cs),
(69,424,o),
(68,418,o),
(68,410,cs),
(68,381,o),
(92,357,o),
(122,357,cs),
(146,357,o),
(167,373,o),
(173,395,cs),
(186,442,o),
(218,465,o),
(269,465,cs),
(332,465,o),
(359,435,o),
(362,392,cs),
(364,372,o),
(364,354,o),
(364,334,cs),
(364,321,l),
(330,321,ls),
(129,321,o),
(35,257,o),
(35,139,cs),
(35,40,o),
(112,-14,o),
(206,-14,cs),
(241,-14,o),
(274,-10,o),
(304,2,cs),
(330,12,o),
(343,29,o),
(355,55,cs),
(365,77,l)
);
},
{
closed = 1;
nodes = (
(188,66,o),
(151,92,o),
(151,148,cs),
(151,229,o),
(235,258,o),
(364,248,c),
(364,199,ls),
(364,113,o),
(315,66,o),
(246,66,cs)
);
}
);
width = 545;
}
);
note = amacron;
unicode = 257;
},
{
glyphname = aogonek;
kernLeft = a;
lastChange = "2022-11-29 13:48:59 +0000";
layers = (
{
hints = (
{
horizontal = 1;
place = (-223, 66);
place = (-223, 66);
type = Stem;
},
{
horizontal = 1;
place = (0, 21);
target = up;
type = BottomGhost;
},
{
horizontal = 1;
place = (248, 73);
place = (248, 73);
type = Stem;
},
{
horizontal = 1;
place = (465, 80);
place = (465, 80);
type = Stem;
},
{
place = (35, 116);
place = (35, 116);
type = Stem;
},
{
place = (269, 102);
place = (269, 102);
type = Stem;
},
{
place = (364, 110);
place = (364, 110);
type = Stem;
},
{
horizontal = 1;
place = (-14, 80);
place = (-14, 80);
type = Stem;
}
);
layerId = m01;
shapes = (
{
closed = 1;
nodes = (
(371,-50,o),
(409,-7,o),
(453,0,c),
(469,0,ls),
(478,0,o),
(480,22,o),
(477,62,cs),
(475,89,o),
(474,111,o),
(474,135,cs),
(474,322,ls),
(474,347,o),
(473,375,o),
(471,397,cs),
(462,487,o),
(408,545,o),
(271,545,cs),
(177,545,o),
(104,505,o),
(72,431,cs),
(69,424,o),
(68,418,o),
(68,410,cs),
(68,381,o),
(92,357,o),
(122,357,cs),
(146,357,o),
(167,373,o),
(173,395,cs),
(186,442,o),
(218,465,o),
(269,465,cs),
(332,465,o),
(359,435,o),
(362,392,cs),
(364,372,o),
(364,354,o),
(364,334,cs),
(364,321,l),
(330,321,ls),
(129,321,o),
(35,257,o),
(35,139,cs),
(35,40,o),
(112,-14,o),
(206,-14,cs),
(241,-14,o),
(274,-10,o),
(304,2,cs),
(330,12,o),
(343,29,o),
(355,55,cs),
(365,77,l),
(374,9,l),
(319,-14,o),
(269,-67,o),
(269,-138,cs),
(269,-201,o),
(309,-223,o),
(367,-223,cs),
(402,-223,o),
(432,-215,o),
(460,-200,cs),
(468,-195,o),
(474,-187,o),
(474,-177,cs),
(474,-160,o),
(456,-148,o),
(440,-153,cs),
(431,-156,o),
(423,-157,o),
(415,-157,cs),
(388,-157,o),
(371,-144,o),
(371,-107,cs)
);
},
{
closed = 1;
nodes = (
(188,66,o),
(151,92,o),
(151,148,cs),
(151,229,o),
(235,258,o),
(364,248,c),
(364,199,ls),
(364,113,o),
(315,66,o),
(246,66,cs)
);
}
);
width = 545;
}
);
note = aogonek;
unicode = 261;
},
{
glyphname = aring;
kernLeft = a;
lastChange = "2022-11-29 13:48:59 +0000";
layers = (
{
hints = (
{
horizontal = 1;
place = (-14, 80);
place = (-14, 80);
type = Stem;
},
{
horizontal = 1;
place = (248, 73);
place = (248, 73);
type = Stem;
},
{
horizontal = 1;
place = (465, 80);
place = (465, 80);
type = Stem;
},
{
horizontal = 1;
place = (566, 43);
place = (566, 43);
type = Stem;
},
{
horizontal = 1;
place = (702, 43);
place = (702, 43);
type = Stem;
},
{
place = (35, 116);
place = (35, 116);
type = Stem;
},
{
place = (173, 58);
place = (173, 58);
type = Stem;
},
{
place = (311, 58);
place = (311, 58);
type = Stem;
},
{
horizontal = 1;
place = (0, 66);
place = (0, 66);
type = Stem;
},
{
place = (364, 110);
place = (364, 110);
type = Stem;
}
);
layerId = m01;
shapes = (
{
closed = 1;
nodes = (
(328,566,o),
(369,603,o),
(369,655,cs),
(369,708,o),
(328,745,o),
(271,745,cs),
(214,745,o),
(173,708,o),
(173,655,cs),
(173,603,o),
(214,566,o),
(271,566,cs)
);
},
{
closed = 1;
nodes = (
(294,702,o),
(311,684,o),
(311,655,cs),
(311,626,o),
(294,609,o),
(271,609,cs),
(248,609,o),
(231,626,o),
(231,655,cs),
(231,684,o),
(248,702,o),
(271,702,cs)
);
},
{
closed = 1;
nodes = (
(370,42,ls),
(373,16,o),
(396,-6,o),
(423,-6,cs),
(455,-6,o),
(481,23,o),
(478,54,cs),
(475,85,o),
(474,109,o),
(474,135,cs),
(474,322,ls),
(474,347,o),
(473,375,o),
(471,397,cs),
(462,487,o),
(408,545,o),
(271,545,cs),
(177,545,o),
(104,505,o),
(72,431,cs),
(69,424,o),
(68,418,o),
(68,410,cs),
(68,381,o),
(92,357,o),
(122,357,cs),
(146,357,o),
(167,373,o),
(173,395,cs),
(186,442,o),
(218,465,o),
(269,465,cs),
(332,465,o),
(359,435,o),
(362,392,cs),
(364,372,o),
(364,354,o),
(364,334,cs),
(364,321,l),
(330,321,ls),
(129,321,o),
(35,257,o),
(35,139,cs),
(35,40,o),
(112,-14,o),
(206,-14,cs),
(241,-14,o),
(274,-10,o),
(304,2,cs),
(330,12,o),
(343,29,o),
(355,55,cs),
(365,77,l)
);
},
{
closed = 1;
nodes = (
(188,66,o),
(151,92,o),
(151,148,cs),
(151,229,o),
(235,258,o),
(364,248,c),
(364,199,ls),
(364,113,o),
(315,66,o),
(246,66,cs)
);
}
);
width = 545;
}
);
note = aring;
unicode = 229;
},
{
glyphname = atilde;
kernLeft = a;
lastChange = "2022-11-29 13:48:59 +0000";
layers = (
{
hints = (
{
horizontal = 1;
place = (-14, 80);
place = (-14, 80);
type = Stem;
},
{
horizontal = 1;
place = (248, 73);
place = (248, 73);
type = Stem;
},
{
horizontal = 1;
place = (465, 80);
place = (465, 80);
type = Stem;
},
{
horizontal = 1;
place = (594, 86);
place = (594, 86);
type = Stem;
},
{
place = (151, 52);
place = (151, 52);
type = Stem;
},
{
place = (364, 110);
place = (364, 110);
type = Stem;
},
{
horizontal = 1;
place = (590, 87);
place = (590, 87);
type = Stem;
},
{
place = (35, 116);
place = (35, 116);
type = Stem;
},
{
place = (339, 53);
place = (339, 53);
type = Stem;
},
{
horizontal = 1;
place = (0, 66);
place = (0, 66);
type = Stem;
}
);
layerId = m01;
shapes = (
{
closed = 1;
nodes = (
(228,616,o),
(239,613,o),
(263,604,cs),
(293,594,o),
(309,590,o),
(330,590,cs),
(364,590,o),
(385,605,o),
(390,652,cs),
(392,669,o),
(380,683,o),
(363,683,cs),
(351,683,o),
(340,675,o),
(337,664,cs),
(335,656,o),
(330,654,o),
(323,654,cs),
(315,654,o),
(303,657,o),
(279,666,cs),
(250,677,o),
(234,680,o),
(212,680,cs),
(179,680,o),
(158,665,o),
(153,619,cs),
(151,604,o),
(163,588,o),
(179,588,cs),
(191,588,o),
(201,595,o),
(205,606,cs),
(208,614,o),
(213,616,o),
(219,616,cs)
);
},
{
closed = 1;
nodes = (
(370,42,ls),
(373,16,o),
(396,-6,o),
(423,-6,cs),
(455,-6,o),
(481,23,o),
(478,54,cs),
(475,85,o),
(474,109,o),
(474,135,cs),
(474,322,ls),
(474,347,o),
(473,375,o),
(471,397,cs),
(462,487,o),
(408,545,o),
(271,545,cs),
(177,545,o),
(104,505,o),
(72,431,cs),
(69,424,o),
(68,418,o),
(68,410,cs),
(68,381,o),
(92,357,o),
(122,357,cs),
(146,357,o),
(167,373,o),
(173,395,cs),
(186,442,o),
(218,465,o),
(269,465,cs),
(332,465,o),
(359,435,o),
(362,392,cs),
(364,372,o),
(364,354,o),
(364,334,cs),
(364,321,l),
(330,321,ls),
(129,321,o),
(35,257,o),
(35,139,cs),
(35,40,o),
(112,-14,o),
(206,-14,cs),
(241,-14,o),
(274,-10,o),
(304,2,cs),
(330,12,o),
(343,29,o),
(355,55,cs),
(365,77,l)
);
},
{
closed = 1;
nodes = (
(188,66,o),
(151,92,o),
(151,148,cs),
(151,229,o),
(235,258,o),
(364,248,c),
(364,199,ls),
(364,113,o),
(315,66,o),
(246,66,cs)
);
}
);
width = 545;
}
);
note = atilde;
unicode = 227;
},
{
glyphname = ae;
kernLeft = a;
kernRight = ae;
lastChange = "2022-11-29 13:48:59 +0000";
layers = (
{
hints = (
{
horizontal = 1;
place = (-14, 80);
place = (-14, 80);
type = Stem;
},
{
horizontal = 1;
place = (235, 77);
place = (235, 77);
type = Stem;
},
{
horizontal = 1;
place = (465, 80);
place = (465, 80);
type = Stem;
},
{
place = (35, 116);
place = (35, 116);
type = Stem;
},
{
place = (378, 115);
place = (378, 115);
type = Stem;
},
{
place = (761, 113);
place = (761, 113);
type = Stem;
}
);
layerId = m01;
shapes = (
{
closed = 1;
nodes = (
(874,429,o),
(790,545,o),
(639,545,cs),
(556,545,o),
(492,511,o),
(451,450,c),
(425,511,o),
(369,545,o),
(271,545,cs),
(172,545,o),
(99,505,o),
(70,430,cs),
(68,424,o),
(66,418,o),
(66,411,cs),
(66,381,o),
(90,357,o),
(120,357,cs),
(145,357,o),
(166,374,o),
(172,396,cs),
(185,442,o),
(218,465,o),
(272,465,cs),
(347,465,o),
(378,415,o),
(378,334,cs),
(378,312,l),
(338,312,ls),
(139,312,o),
(35,261,o),
(35,140,cs),
(35,40,o),
(117,-14,o),
(221,-14,cs),
(268,-14,o),
(313,-5,o),
(354,20,cs),
(377,34,o),
(389,49,o),
(403,72,cs),
(421,103,l),
(463,19,o),
(537,-14,o),
(626,-14,cs),
(717,-14,o),
(797,23,o),
(840,101,cs),
(844,109,o),
(846,117,o),
(846,126,cs),
(846,155,o),
(823,178,o),
(794,178,cs),
(772,178,o),
(752,164,o),
(745,144,cs),
(726,93,o),
(683,66,o),
(629,66,cs),
(558,66,o),
(500,114,o),
(492,235,c),
(815,235,ls),
(851,235,o),
(874,279,o),
(874,279,cs)
);
},
{
closed = 1;
nodes = (
(493,312,l),
(505,413,o),
(557,465,o),
(633,465,cs),
(710,465,o),
(752,410,o),
(761,312,c)
);
},
{
closed = 1;
nodes = (
(378,210,ls),
(378,121,o),
(322,66,o),
(249,66,cs),
(188,66,o),
(151,92,o),
(151,149,cs),
(151,225,o),
(233,241,o),
(378,235,c)
);
}
);
width = 910;
}
);
note = ae;
unicode = 230;
},
{
glyphname = b;
kernLeft = b;
kernRight = b;
lastChange = "2022-11-29 13:48:59 +0000";
layers = (
{
hints = (
{
horizontal = 1;
place = (-14, 80);
place = (-14, 80);
type = Stem;
},
{
horizontal = 1;
place = (465, 80);
place = (465, 80);
type = Stem;
},
{
horizontal = 1;
place = (735, -20);
target = down;
type = TopGhost;
},
{
place = (69, 110);
place = (69, 110);
type = Stem;
},
{
place = (481, 116);
place = (481, 116);
type = Stem;
},
{
horizontal = 1;
place = (0, 21);
target = up;
type = BottomGhost;
}
);
layerId = m01;
shapes = (
{
closed = 1;
nodes = (
(316,545,o),
(274,536,o),
(243,520,cs),
(224,511,o),
(213,496,o),
(198,475,cs),
(179,448,l),
(179,686,ls),
(179,716,o),
(154,741,o),
(124,741,cs),
(94,741,o),
(69,716,o),
(69,686,cs),
(69,50,ls),
(69,20,o),
(94,-6,o),
(124,-6,cs),
(154,-6,o),
(179,20,o),
(179,50,cs),
(179,72,l),
(197,46,ls),
(210,26,o),
(221,12,o),
(246,2,cs),
(274,-8,o),
(310,-14,o),
(340,-14,cs),
(477,-14,o),
(597,80,o),
(597,275,cs),
(597,430,o),
(510,545,o),
(358,545,cs)
);
},
{
closed = 1;
nodes = (
(257,66,o),
(179,114,o),
(179,244,cs),
(179,271,ls),
(179,413,o),
(250,465,o),
(332,465,cs),
(428,465,o),
(481,380,o),
(481,265,cs),
(481,133,o),
(415,66,o),
(327,66,cs)
);
}
);
width = 626;
}
);
note = b;
unicode = 98;
},
{
glyphname = c;
kernLeft = c;
lastChange = "2022-11-29 13:48:59 +0000";
layers = (
{
hints = (
{
horizontal = 1;
place = (-14, 80);
place = (-14, 80);
type = Stem;
},
{
horizontal = 1;
place = (465, 80);
place = (465, 80);
type = Stem;
},
{
place = (29, 116);
place = (29, 116);
type = Stem;
}
);
layerId = m01;
shapes = (
{
closed = 1;
nodes = (
(147,545,o),
(29,444,o),
(29,263,cs),
(29,74,o),
(134,-14,o),
(273,-14,cs),
(371,-14,o),
(449,25,o),
(490,105,cs),
(494,113,o),
(495,120,o),
(495,129,cs),
(495,158,o),
(472,182,o),
(442,182,cs),
(420,182,o),
(400,168,o),
(393,148,cs),
(372,93,o),
(332,66,o),
(279,66,cs),
(205,66,o),
(145,127,o),
(145,271,cs),
(145,404,o),
(206,465,o),
(283,465,cs),
(338,465,o),
(377,439,o),
(398,378,cs),
(405,356,o),
(425,341,o),
(449,341,cs),
(479,341,o),
(503,365,o),
(503,395,cs),
(503,403,o),
(502,411,o),
(499,417,cs),
(465,496,o),
(390,545,o),
(286,545,cs)
);
}
);
width = 544;
}
);
note = c;
unicode = 99;
},
{
glyphname = cacute;
kernLeft = c;
lastChange = "2022-11-29 13:48:59 +0000";
layers = (
{
hints = (
{
horizontal = 1;
place = (-14, 80);
place = (-14, 80);
type = Stem;
},
{
horizontal = 1;
place = (465, 80);
place = (465, 80);
type = Stem;
},
{
horizontal = 1;
place = (578, 114);
place = (578, 114);
type = Stem;
},
{
place = (29, 116);
place = (29, 116);
type = Stem;
}
);
layerId = m01;
shapes = (
{
closed = 1;
nodes = (
(306,582,cs),
(372,655,ls),
(376,659,o),
(378,665,o),
(378,672,cs),
(378,687,o),
(364,699,o),
(349,697,cs),
(302,691,o),
(259,654,o),
(255,608,cs),
(255,602,ls),
(255,585,o),
(268,572,o),
(284,572,cs),
(293,572,o),
(301,576,o)
);
},
{
closed = 1;
nodes = (
(147,545,o),
(29,444,o),
(29,263,cs),
(29,74,o),
(134,-14,o),
(273,-14,cs),
(371,-14,o),
(449,25,o),
(490,105,cs),
(494,113,o),
(495,120,o),
(495,129,cs),
(495,158,o),
(472,182,o),
(442,182,cs),
(420,182,o),
(400,168,o),
(393,148,cs),
(372,93,o),
(332,66,o),
(279,66,cs),
(205,66,o),
(145,127,o),
(145,271,cs),
(145,404,o),
(206,465,o),
(283,465,cs),
(338,465,o),
(377,439,o),
(398,378,cs),
(405,356,o),
(425,341,o),
(449,341,cs),
(479,341,o),
(503,365,o),
(503,395,cs),
(503,403,o),
(502,411,o),
(499,417,cs),
(465,496,o),
(390,545,o),
(286,545,cs)
);
}
);
width = 544;
}
);
note = cacute;
unicode = 263;
},
{
glyphname = ccaron;
kernLeft = c;
lastChange = "2022-11-29 13:48:59 +0000";
layers = (
{
hints = (
{
horizontal = 1;
place = (-14, 80);
place = (-14, 80);
type = Stem;
},
{
horizontal = 1;
place = (465, 80);
place = (465, 80);
type = Stem;
},
{
horizontal = 1;
place = (578, 114);
place = (578, 114);
type = Stem;
},
{
place = (29, 116);
place = (29, 116);
type = Stem;
}
);
layerId = m01;
shapes = (
{
closed = 1;
nodes = (
(212,618,ls),
(228,591,o),
(247,578,o),
(272,578,cs),
(318,578,o),
(358,613,o),
(361,659,c),
(362,661,o),
(362,664,o),
(362,666,cs),
(362,684,o),
(348,698,o),
(331,698,cs),
(319,698,o),
(308,691,o),
(303,680,cs),
(276,626,l),
(249,680,ls),
(244,691,o),
(233,698,o),
(221,698,cs),
(203,698,o),
(189,683,o),
(189,666,cs),
(189,660,o),
(190,654,o),
(193,650,cs)
);
},
{
closed = 1;
nodes = (
(205,66,o),
(145,127,o),
(145,271,cs),
(145,404,o),
(206,465,o),
(283,465,cs),
(338,465,o),
(377,439,o),
(398,378,cs),
(405,356,o),
(425,341,o),
(449,341,cs),
(479,341,o),
(503,365,o),
(503,395,cs),
(503,403,o),
(502,411,o),
(499,417,cs),
(465,496,o),
(390,545,o),
(286,545,cs),
(147,545,o),
(29,444,o),
(29,263,cs),
(29,74,o),
(134,-14,o),
(273,-14,cs),
(371,-14,o),
(449,25,o),
(490,105,cs),
(494,113,o),
(495,120,o),
(495,129,cs),
(495,158,o),
(472,182,o),
(442,182,cs),
(420,182,o),
(400,168,o),
(393,148,cs),
(372,93,o),
(332,66,o),
(279,66,cs)
);
}
);
width = 544;
}
);
note = ccaron;
unicode = 269;
},
{
glyphname = ccedilla;
kernLeft = c;
lastChange = "2022-11-29 13:48:59 +0000";
layers = (
{
hints = (
{
horizontal = 1;
place = (-210, 49);
place = (-210, 49);
type = Stem;
},
{
horizontal = 1;
place = (-81, 147);
place = (-81, 147);
type = Stem;
},
{
horizontal = 1;
place = (465, 80);
place = (465, 80);
type = Stem;
},
{
place = (29, 116);
place = (29, 116);
type = Stem;
},
{
place = (293, 70);
place = (293, 70);
type = Stem;
},
{
horizontal = 1;
place = (-11, 21);
target = up;
type = BottomGhost;
}
);
layerId = m01;
shapes = (
{
closed = 1;
nodes = (
(205,66,o),
(145,127,o),
(145,271,cs),
(145,404,o),
(206,465,o),
(283,465,cs),
(338,465,o),
(377,439,o),
(398,378,cs),
(405,356,o),
(425,341,o),
(449,341,cs),
(479,341,o),
(503,365,o),
(503,395,cs),
(503,403,o),
(502,411,o),
(499,417,cs),
(465,496,o),
(390,545,o),
(286,545,cs),
(147,545,o),
(29,444,o),
(29,263,cs),
(29,92,o),
(114,4,o),
(233,-11,c),
(215,-46,ls),
(204,-68,o),
(223,-73,o),
(264,-85,cs),
(284,-92,o),
(293,-104,o),
(293,-122,cs),
(293,-146,o),
(273,-161,o),
(231,-161,cs),
(221,-161,o),
(211,-160,o),
(200,-159,cs),
(185,-156,o),
(171,-168,o),
(171,-183,cs),
(171,-195,o),
(181,-205,o),
(192,-207,cs),
(204,-209,o),
(216,-210,o),
(229,-210,cs),
(307,-210,o),
(363,-181,o),
(363,-122,cs),
(363,-76,o),
(334,-48,o),
(279,-41,c),
(293,-13,l),
(382,-8,o),
(451,30,o),
(490,105,cs),
(494,113,o),
(495,120,o),
(495,129,cs),
(495,158,o),
(472,182,o),
(442,182,cs),
(420,182,o),
(400,168,o),
(393,148,cs),
(372,93,o),
(332,66,o),
(279,66,cs)
);
}
);
width = 544;
}
);
note = ccedilla;
unicode = 231;
},
{
glyphname = cdotaccent;
kernLeft = c;
lastChange = "2022-11-29 13:48:59 +0000";
layers = (
{
hints = (
{
horizontal = 1;
place = (-14, 80);
place = (-14, 80);
type = Stem;
},
{
horizontal = 1;
place = (465, 80);
place = (465, 80);
type = Stem;
},
{
horizontal = 1;
place = (589, 127);
place = (589, 127);
type = Stem;
},
{
place = (29, 116);
place = (29, 116);
type = Stem;
},
{
place = (211, 129);
place = (211, 129);
type = Stem;
}
);
layerId = m01;
shapes = (
{
closed = 1;
nodes = (
(238,716,o),
(211,689,o),
(211,653,cs),
(211,616,o),
(238,589,o),
(275,589,cs),
(312,589,o),
(340,616,o),
(340,653,cs),
(340,689,o),
(312,716,o),
(275,716,cs)
);
},
{
closed = 1;
nodes = (
(147,545,o),
(29,444,o),
(29,263,cs),
(29,74,o),
(134,-14,o),
(273,-14,cs),
(371,-14,o),
(449,25,o),
(490,105,cs),
(494,113,o),
(495,120,o),
(495,129,cs),
(495,158,o),
(472,182,o),
(442,182,cs),
(420,182,o),
(400,168,o),
(393,148,cs),
(372,93,o),
(332,66,o),
(279,66,cs),
(205,66,o),
(145,127,o),
(145,271,cs),
(145,404,o),
(206,465,o),
(283,465,cs),
(338,465,o),
(377,439,o),
(398,378,cs),
(405,356,o),
(425,341,o),
(449,341,cs),
(479,341,o),
(503,365,o),
(503,395,cs),
(503,403,o),
(502,411,o),
(499,417,cs),
(465,496,o),
(390,545,o),
(286,545,cs)
);
}
);
width = 544;
}
);
note = cdotaccent;
unicode = 267;
},
{
glyphname = d;
kernLeft = c;
lastChange = "2022-11-29 13:48:59 +0000";
layers = (
{
hints = (
{
horizontal = 1;
place = (-14, 80);
place = (-14, 80);
type = Stem;
},
{
horizontal = 1;
place = (465, 80);
place = (465, 80);
type = Stem;
},
{
horizontal = 1;
place = (735, -20);
target = down;
type = TopGhost;
},
{
place = (29, 116);
place = (29, 116);
type = Stem;
},
{
place = (447, 110);
place = (447, 110);
type = Stem;
},
{
horizontal = 1;
place = (0, 21);
target = up;
type = BottomGhost;
}
);
layerId = m01;
shapes = (
{
closed = 1;
nodes = (
(557,686,ls),
(557,716,o),
(532,741,o),
(502,741,cs),
(472,741,o),
(447,716,o),
(447,686,cs),
(447,459,l),
(430,486,ls),
(417,506,o),
(405,519,o),
(380,529,cs),
(352,539,o),
(316,545,o),
(286,545,cs),
(149,545,o),
(29,451,o),
(29,257,cs),
(29,101,o),
(116,-14,o),
(268,-14,cs),
(307,-14,o),
(346,-6,o),
(376,8,cs),
(400,19,o),
(413,34,o),
(428,56,cs),
(447,84,l),
(447,50,ls),
(447,20,o),
(472,-6,o),
(502,-6,cs),
(532,-6,o),
(557,20,o),
(557,50,cs)
);
},
{
closed = 1;
nodes = (
(198,66,o),
(145,151,o),
(145,266,cs),
(145,398,o),
(211,465,o),
(298,465,cs),
(369,465,o),
(447,417,o),
(447,288,cs),
(447,260,ls),
(447,118,o),
(376,66,o),
(293,66,cs)
);
}
);
width = 629;
}
);
note = d;
unicode = 100;
},
{
glyphname = eth;
kernLeft = c;
lastChange = "2022-11-29 13:48:59 +0000";
layers = (
{
hints = (
{
horizontal = 1;
place = (-14, 83);
place = (-14, 83);
type = Stem;
},
{
horizontal = 1;
place = (463, 82);
place = (463, 82);
type = Stem;
},
{
horizontal = 1;
place = (745, -20);
target = down;
type = TopGhost;
},
{
place = (29, 117);
place = (29, 117);
type = Stem;
},
{
place = (442, 116);
place = (442, 116);
type = Stem;
}
);
layerId = m01;
shapes = (
{
closed = 1;
nodes = (
(488,644,ls),
(500,648,o),
(509,660,o),
(509,673,cs),
(509,695,o),
(486,708,o),
(469,702,cs),
(421,685,l),
(398,704,o),
(371,720,o),
(340,737,cs),
(334,740,o),
(327,742,o),
(320,742,cs),
(296,742,o),
(276,722,o),
(276,698,cs),
(276,682,o),
(284,668,o),
(298,660,cs),
(305,657,o),
(310,654,o),
(316,650,c),
(237,623,ls),
(226,619,o),
(217,608,o),
(217,594,cs),
(217,572,o),
(240,560,o),
(257,566,cs),
(370,604,l),
(406,565,o),
(426,516,o),
(432,457,c),
(410,487,ls),
(394,509,o),
(379,522,o),
(354,532,cs),
(330,542,o),
(306,545,o),
(276,545,cs),
(144,545,o),
(29,440,o),
(29,260,cs),
(29,102,o),
(115,-14,o),
(290,-14,cs),
(427,-14,o),
(558,72,o),
(558,307,cs),
(558,453,o),
(532,560,o),
(469,638,c)
);
},
{
closed = 1;
nodes = (
(442,260,ls),
(442,132,o),
(379,69,o),
(294,69,cs),
(197,69,o),
(146,142,o),
(146,267,cs),
(146,384,o),
(204,463,o),
(294,463,cs),
(367,463,o),
(442,411,o),
(442,289,cs)
);
}
);
width = 604;
}
);
note = eth;
unicode = 240;
},
{
glyphname = dcaron;
kernLeft = c;
lastChange = "2022-11-29 13:48:59 +0000";
layers = (
{
hints = (
{
horizontal = 1;
place = (-14, 80);
place = (-14, 80);
type = Stem;
},
{
horizontal = 1;
place = (465, 80);
place = (465, 80);
type = Stem;
},
{
horizontal = 1;
place = (583, 153);
place = (583, 153);
type = Stem;
},
{
place = (29, 116);
place = (29, 116);
type = Stem;
},
{
place = (447, 110);
place = (447, 110);
type = Stem;
},
{
horizontal = 1;
place = (583, 152);
place = (583, 152);
type = Stem;
},
{
horizontal = 1;
place = (0, 21);
target = up;
type = BottomGhost;
}
);
layerId = m01;
shapes = (
{
closed = 1;
nodes = (
(695,747,o),
(686,750,o),
(676,750,cs),
(653,750,o),
(641,732,o),
(633,712,cs),
(598,623,l),
(597,619,o),
(595,615,o),
(595,611,cs),
(595,592,o),
(610,577,o),
(629,577,cs),
(642,577,o),
(653,585,o),
(658,596,cs),
(700,678,ls),
(716,709,o),
(719,733,o),
(703,743,cs)
);
},
{
closed = 1;
nodes = (
(447,686,cs),
(447,459,l),
(430,486,ls),
(417,506,o),
(405,519,o),
(380,529,cs),
(352,539,o),
(316,545,o),
(286,545,cs),
(149,545,o),
(29,451,o),
(29,257,cs),
(29,101,o),
(116,-14,o),
(268,-14,cs),
(307,-14,o),
(346,-6,o),
(376,8,cs),
(400,19,o),
(413,34,o),
(428,56,cs),
(447,84,l),
(447,50,ls),
(447,20,o),
(472,-6,o),
(502,-6,cs),
(532,-6,o),
(557,20,o),
(557,50,cs),
(557,686,ls),
(557,716,o),
(532,741,o),
(502,741,cs),
(472,741,o),
(447,716,o)
);
},
{
closed = 1;
nodes = (
(198,66,o),
(145,151,o),
(145,266,cs),
(145,398,o),
(211,465,o),
(298,465,cs),
(369,465,o),
(447,417,o),
(447,288,cs),
(447,260,ls),
(447,118,o),
(376,66,o),
(293,66,cs)
);
}
);
width = 629;
}
);
note = dcaron;
unicode = 271;
},
{
glyphname = dcroat;
kernLeft = c;
lastChange = "2022-11-29 13:48:59 +0000";
layers = (
{
hints = (
{
horizontal = 1;
place = (-14, 80);
place = (-14, 80);
type = Stem;
},
{
horizontal = 1;
place = (465, 80);
place = (465, 80);
type = Stem;
},
{
horizontal = 1;
place = (590, 145);
place = (590, 145);
type = Stem;
},
{
place = (29, 116);
place = (29, 116);
type = Stem;
},
{
place = (447, 110);
place = (447, 110);
type = Stem;
},
{
horizontal = 1;
place = (590, 66);
place = (590, 66);
type = Stem;
},
{
horizontal = 1;
place = (0, 21);
target = up;
type = BottomGhost;
}
);
layerId = m01;
shapes = (
{
closed = 1;
nodes = (
(573,590,ls),
(591,590,o),
(606,605,o),
(606,623,cs),
(606,641,o),
(591,656,o),
(573,656,cs),
(557,656,l),
(557,686,ls),
(557,716,o),
(532,741,o),
(502,741,cs),
(472,741,o),
(447,716,o),
(447,686,cs),
(447,656,l),
(358,656,ls),
(340,656,o),
(325,641,o),
(325,623,cs),
(325,605,o),
(340,590,o),
(358,590,cs),
(447,590,l),
(447,459,l),
(430,486,ls),
(417,506,o),
(405,519,o),
(380,529,cs),
(352,539,o),
(316,545,o),
(286,545,cs),
(149,545,o),
(29,451,o),
(29,257,cs),
(29,101,o),
(116,-14,o),
(268,-14,cs),
(307,-14,o),
(346,-6,o),
(376,8,cs),
(400,19,o),
(413,34,o),
(428,56,cs),
(447,84,l),
(447,50,ls),
(447,20,o),
(472,-6,o),
(502,-6,cs),
(532,-6,o),
(557,20,o),
(557,50,cs),
(557,590,l)
);
},
{
closed = 1;
nodes = (
(198,66,o),
(145,151,o),
(145,266,cs),
(145,398,o),
(211,465,o),
(298,465,cs),
(369,465,o),
(447,417,o),
(447,288,cs),
(447,260,ls),
(447,118,o),
(376,66,o),
(293,66,cs)
);
}
);
width = 632;
}
);
note = dcroat;
unicode = 273;
},
{
glyphname = e;
kernLeft = c;
kernRight = ae;
lastChange = "2022-11-29 13:48:59 +0000";
layers = (
{
hints = (
{
horizontal = 1;
place = (-14, 80);
place = (-14, 80);
type = Stem;
},
{
horizontal = 1;
place = (235, 77);
place = (235, 77);
type = Stem;
},
{
horizontal = 1;
place = (465, 80);
place = (465, 80);
type = Stem;
},
{
place = (29, 115);
place = (29, 115);
type = Stem;
},
{
place = (413, 113);
place = (413, 113);
type = Stem;
}
);
layerId = m01;
shapes = (
{
closed = 1;
nodes = (
(526,429,o),
(443,545,o),
(289,545,cs),
(136,545,o),
(29,432,o),
(29,264,cs),
(29,76,o),
(136,-14,o),
(278,-14,cs),
(369,-14,o),
(450,23,o),
(493,102,cs),
(497,110,o),
(499,117,o),
(499,126,cs),
(499,155,o),
(475,178,o),
(447,178,cs),
(425,178,o),
(406,164,o),
(399,144,cs),
(379,93,o),
(335,66,o),
(282,66,cs),
(210,66,o),
(152,108,o),
(143,235,c),
(467,235,ls),
(504,235,o),
(526,279,o),
(526,279,cs)
);
},
{
closed = 1;
nodes = (
(362,465,o),
(405,410,o),
(413,312,c),
(144,312,l),
(156,414,o),
(210,465,o),
(285,465,cs)
);
}
);
width = 562;
}
);
note = e;
unicode = 101;
},
{
glyphname = eacute;
kernLeft = c;
kernRight = ae;
lastChange = "2022-11-29 13:48:59 +0000";
layers = (
{
hints = (
{
horizontal = 1;
place = (-14, 80);
place = (-14, 80);
type = Stem;
},
{
horizontal = 1;
place = (235, 77);
place = (235, 77);
type = Stem;
},
{
horizontal = 1;
place = (465, 80);
place = (465, 80);
type = Stem;
},
{
horizontal = 1;
place = (578, 114);
place = (578, 114);
type = Stem;
},
{
place = (29, 115);
place = (29, 115);
type = Stem;
},
{
place = (413, 113);
place = (413, 113);
type = Stem;
}
);
layerId = m01;
shapes = (
{
closed = 1;
nodes = (
(314,582,cs),
(380,655,ls),
(384,659,o),
(386,665,o),
(386,672,cs),
(386,687,o),
(372,699,o),
(357,697,cs),
(310,691,o),
(267,654,o),
(263,608,cs),
(263,602,ls),
(263,585,o),
(276,572,o),
(292,572,cs),
(301,572,o),
(309,576,o)
);
},
{
closed = 1;
nodes = (
(526,429,o),
(443,545,o),
(289,545,cs),
(136,545,o),
(29,432,o),
(29,264,cs),
(29,76,o),
(136,-14,o),
(278,-14,cs),
(369,-14,o),
(450,23,o),
(493,102,cs),
(497,110,o),
(499,117,o),
(499,126,cs),
(499,155,o),
(475,178,o),
(447,178,cs),
(425,178,o),
(406,164,o),
(399,144,cs),
(379,93,o),
(335,66,o),
(282,66,cs),
(210,66,o),
(152,108,o),
(143,235,c),
(467,235,ls),
(504,235,o),
(526,279,o),
(526,279,cs)
);
},
{
closed = 1;
nodes = (
(362,465,o),
(405,410,o),
(413,312,c),
(144,312,l),
(156,414,o),
(210,465,o),
(285,465,cs)
);
}
);
width = 562;
}
);
note = eacute;
unicode = 233;
},
{
glyphname = ecaron;
kernLeft = c;
kernRight = ae;
lastChange = "2022-11-29 13:48:59 +0000";
layers = (
{
hints = (
{
horizontal = 1;
place = (-14, 80);
place = (-14, 80);
type = Stem;
},
{
horizontal = 1;
place = (235, 77);
place = (235, 77);
type = Stem;
},
{
horizontal = 1;
place = (465, 80);
place = (465, 80);
type = Stem;
},
{
horizontal = 1;
place = (578, 114);
place = (578, 114);
type = Stem;
},
{
place = (29, 115);
place = (29, 115);
type = Stem;
},
{
place = (413, 113);
place = (413, 113);
type = Stem;
}
);
layerId = m01;
shapes = (
{
closed = 1;
nodes = (
(220,618,ls),
(236,591,o),
(255,578,o),
(280,578,cs),
(326,578,o),
(366,613,o),
(369,659,c),
(370,661,o),
(370,664,o),
(370,666,cs),
(370,684,o),
(356,698,o),
(339,698,cs),
(327,698,o),
(316,691,o),
(311,680,cs),
(284,626,l),
(257,680,ls),
(252,691,o),
(241,698,o),
(229,698,cs),
(211,698,o),
(197,683,o),
(197,666,cs),
(197,660,o),
(198,654,o),
(201,650,cs)
);
},
{
closed = 1;
nodes = (
(526,429,o),
(443,545,o),
(289,545,cs),
(136,545,o),
(29,432,o),
(29,264,cs),
(29,76,o),
(136,-14,o),
(278,-14,cs),
(369,-14,o),
(450,23,o),
(493,102,cs),
(497,110,o),
(499,117,o),
(499,126,cs),
(499,155,o),
(475,178,o),
(447,178,cs),
(425,178,o),
(406,164,o),
(399,144,cs),
(379,93,o),
(335,66,o),
(282,66,cs),
(210,66,o),
(152,108,o),
(143,235,c),
(467,235,ls),
(504,235,o),
(526,279,o),
(526,279,cs)
);
},
{
closed = 1;
nodes = (
(362,465,o),
(405,410,o),
(413,312,c),
(144,312,l),
(156,414,o),
(210,465,o),
(285,465,cs)
);
}
);
width = 562;
}
);
note = ecaron;
unicode = 283;
},
{
glyphname = ecircumflex;
kernLeft = c;
kernRight = ae;
lastChange = "2022-11-29 13:48:59 +0000";
layers = (
{
hints = (
{
horizontal = 1;
place = (-14, 80);
place = (-14, 80);
type = Stem;
},
{
horizontal = 1;
place = (235, 77);
place = (235, 77);
type = Stem;
},
{
horizontal = 1;
place = (465, 80);
place = (465, 80);
type = Stem;
},
{
horizontal = 1;
place = (578, 114);
place = (578, 114);
type = Stem;
},
{
place = (29, 115);
place = (29, 115);
type = Stem;
},
{
place = (413, 113);
place = (413, 113);
type = Stem;
},
{
horizontal = 1;
place = (643, 49);
place = (643, 49);
type = Stem;
}
);
layerId = m01;
shapes = (
{
closed = 1;
nodes = (
(256,590,cs),
(283,643,l),
(310,590,ls),
(315,579,o),
(326,573,o),
(338,573,cs),
(356,573,o),
(370,587,o),
(370,604,cs),
(370,610,o),
(369,616,o),
(366,620,cs),
(347,652,ls),
(331,679,o),
(312,692,o),
(287,692,cs),
(241,692,o),
(201,657,o),
(198,611,c),
(197,609,o),
(197,606,o),
(197,604,cs),
(197,586,o),
(211,573,o),
(228,573,cs),
(240,573,o),
(251,579,o)
);
},
{
closed = 1;
nodes = (
(526,429,o),
(443,545,o),
(289,545,cs),
(136,545,o),
(29,432,o),
(29,264,cs),
(29,76,o),
(136,-14,o),
(278,-14,cs),
(369,-14,o),
(450,23,o),
(493,102,cs),
(497,110,o),
(499,117,o),
(499,126,cs),
(499,155,o),
(475,178,o),
(447,178,cs),
(425,178,o),
(406,164,o),
(399,144,cs),
(379,93,o),
(335,66,o),
(282,66,cs),
(210,66,o),
(152,108,o),
(143,235,c),
(467,235,ls),
(504,235,o),
(526,279,o),
(526,279,cs)
);
},
{
closed = 1;
nodes = (
(362,465,o),
(405,410,o),
(413,312,c),
(144,312,l),
(156,414,o),
(210,465,o),
(285,465,cs)
);
}
);
width = 562;
}
);
note = ecircumflex;
unicode = 234;
},
{
glyphname = edieresis;
kernLeft = c;
kernRight = ae;
lastChange = "2022-11-29 13:48:59 +0000";
layers = (
{
hints = (
{
horizontal = 1;
place = (-14, 80);
place = (-14, 80);
type = Stem;
},
{
horizontal = 1;
place = (235, 77);
place = (235, 77);
type = Stem;
},
{
horizontal = 1;
place = (465, 80);
place = (465, 80);
type = Stem;
},
{
horizontal = 1;
place = (580, 105);
place = (580, 105);
type = Stem;
},
{
place = (150, 107);
place = (150, 107);
type = Stem;
},
{
place = (310, 106);
place = (310, 106);
type = Stem;
},
{
place = (29, 115);
place = (29, 115);
type = Stem;
},
{
place = (413, 113);
place = (413, 113);
type = Stem;
}
);
layerId = m01;
shapes = (
{
closed = 1;
nodes = (
(526,429,o),
(443,545,o),
(289,545,cs),
(136,545,o),
(29,432,o),
(29,264,cs),
(29,76,o),
(136,-14,o),
(278,-14,cs),
(369,-14,o),
(450,23,o),
(493,102,cs),
(497,110,o),
(499,117,o),
(499,126,cs),
(499,155,o),
(475,178,o),
(447,178,cs),
(425,178,o),
(406,164,o),
(399,144,cs),
(379,93,o),
(335,66,o),
(282,66,cs),
(210,66,o),
(152,108,o),
(143,235,c),
(467,235,ls),
(504,235,o),
(526,279,o),
(526,279,cs)
);
},
{
closed = 1;
nodes = (
(362,465,o),
(405,410,o),
(413,312,c),
(144,312,l),
(156,414,o),
(210,465,o),
(285,465,cs)
);
},
{
closed = 1;
nodes = (
(203,580,cs),
(217,580,ls),
(245,580,o),
(269,603,o),
(269,631,cs),
(269,638,o),
(267,645,o),
(265,650,cs),
(256,673,o),
(235,691,o),
(209,691,cs),
(199,691,o),
(190,688,o),
(183,684,cs),
(164,674,o),
(150,655,o),
(150,633,cs),
(150,604,o),
(174,580,o)
);
},
{
closed = 1;
nodes = (
(358,580,cs),
(372,580,ls),
(400,580,o),
(424,603,o),
(424,631,cs),
(424,638,o),
(422,645,o),
(420,650,cs),
(411,673,o),
(390,691,o),
(364,691,cs),
(354,691,o),
(345,688,o),
(338,684,cs),
(319,674,o),
(305,655,o),
(305,633,cs),
(305,604,o),
(329,580,o)
);
}
);
width = 562;
}
);
note = edieresis;
unicode = 235;
},
{
glyphname = edotaccent;
kernLeft = c;
kernRight = ae;
lastChange = "2022-11-29 13:48:59 +0000";
layers = (
{
hints = (
{
horizontal = 1;
place = (-14, 80);
place = (-14, 80);
type = Stem;
},
{
horizontal = 1;
place = (235, 77);
place = (235, 77);
type = Stem;
},
{
horizontal = 1;
place = (465, 80);
place = (465, 80);
type = Stem;
},
{
horizontal = 1;
place = (589, 127);
place = (589, 127);
type = Stem;
},
{
place = (29, 115);
place = (29, 115);
type = Stem;
},
{
place = (219, 129);
place = (219, 129);
type = Stem;
},
{
place = (413, 113);
place = (413, 113);
type = Stem;
}
);
layerId = m01;
shapes = (
{
closed = 1;
nodes = (
(320,589,o),
(348,616,o),
(348,653,cs),
(348,689,o),
(320,716,o),
(283,716,cs),
(246,716,o),
(219,689,o),
(219,653,cs),
(219,616,o),
(246,589,o),
(283,589,cs)
);
},
{
closed = 1;
nodes = (
(526,429,o),
(443,545,o),
(289,545,cs),
(136,545,o),
(29,432,o),
(29,264,cs),
(29,76,o),
(136,-14,o),
(278,-14,cs),
(369,-14,o),
(450,23,o),
(493,102,cs),
(497,110,o),
(499,117,o),
(499,126,cs),
(499,155,o),
(475,178,o),
(447,178,cs),
(425,178,o),
(406,164,o),
(399,144,cs),
(379,93,o),
(335,66,o),
(282,66,cs),
(210,66,o),
(152,108,o),
(143,235,c),
(467,235,ls),
(504,235,o),
(526,279,o),
(526,279,cs)
);
},
{
closed = 1;
nodes = (
(362,465,o),
(405,410,o),
(413,312,c),
(144,312,l),
(156,414,o),
(210,465,o),
(285,465,cs)
);
}
);
width = 562;
}
);
note = edotaccent;
unicode = 279;
},
{
glyphname = egrave;
kernLeft = c;
kernRight = ae;
lastChange = "2022-11-29 13:48:59 +0000";
layers = (
{
hints = (
{
horizontal = 1;
place = (-14, 80);
place = (-14, 80);
type = Stem;
},
{
horizontal = 1;
place = (235, 77);
place = (235, 77);
type = Stem;
},
{
horizontal = 1;
place = (465, 80);
place = (465, 80);
type = Stem;
},
{
horizontal = 1;
place = (578, 114);
place = (578, 114);
type = Stem;
},
{
place = (29, 115);
place = (29, 115);
type = Stem;
},
{
place = (413, 113);
place = (413, 113);
type = Stem;
}
);
layerId = m01;
shapes = (
{
closed = 1;
nodes = (
(254,582,ls),
(259,576,o),
(267,573,o),
(276,573,cs),
(292,573,o),
(305,586,o),
(305,602,cs),
(305,607,o),
(303,613,o),
(301,617,cs),
(263,680,ls),
(257,691,o),
(245,698,o),
(232,698,cs),
(212,698,o),
(196,681,o),
(196,661,cs),
(196,652,o),
(200,643,o),
(205,637,cs)
);
},
{
closed = 1;
nodes = (
(526,429,o),
(443,545,o),
(289,545,cs),
(136,545,o),
(29,432,o),
(29,264,cs),
(29,76,o),
(136,-14,o),
(278,-14,cs),
(369,-14,o),
(450,23,o),
(493,102,cs),
(497,110,o),
(499,117,o),
(499,126,cs),
(499,155,o),
(475,178,o),
(447,178,cs),
(425,178,o),
(406,164,o),
(399,144,cs),
(379,93,o),
(335,66,o),
(282,66,cs),
(210,66,o),
(152,108,o),
(143,235,c),
(467,235,ls),
(504,235,o),
(526,279,o),
(526,279,cs)
);
},
{
closed = 1;
nodes = (
(362,465,o),
(405,410,o),
(413,312,c),
(144,312,l),
(156,414,o),
(210,465,o),
(285,465,cs)
);
}
);
width = 562;
}
);
note = egrave;
unicode = 232;
},
{
glyphname = emacron;
kernLeft = c;
kernRight = ae;
lastChange = "2022-11-29 13:48:59 +0000";
layers = (
{
hints = (
{
horizontal = 1;
place = (-14, 80);
place = (-14, 80);
type = Stem;
},
{
horizontal = 1;
place = (235, 77);
place = (235, 77);
type = Stem;
},
{
horizontal = 1;
place = (465, 80);
place = (465, 80);
type = Stem;
},
{
horizontal = 1;
place = (600, 63);
place = (600, 63);
type = Stem;
},
{
place = (29, 115);
place = (29, 115);
type = Stem;
},
{
place = (156, 255);
place = (156, 255);
type = Stem;
},
{
place = (413, 113);
place = (413, 113);
type = Stem;
}
);
layerId = m01;
shapes = (
{
closed = 1;
nodes = (
(385,600,ls),
(402,600,o),
(417,614,o),
(417,632,cs),
(417,649,o),
(402,663,o),
(385,663,cs),
(182,663,ls),
(165,663,o),
(151,649,o),
(151,632,cs),
(151,614,o),
(165,600,o),
(182,600,cs)
);
},
{
closed = 1;
nodes = (
(526,429,o),
(443,545,o),
(289,545,cs),
(136,545,o),
(29,432,o),
(29,264,cs),
(29,76,o),
(136,-14,o),
(278,-14,cs),
(369,-14,o),
(450,23,o),
(493,102,cs),
(497,110,o),
(499,117,o),
(499,126,cs),
(499,155,o),
(475,178,o),
(447,178,cs),
(425,178,o),
(406,164,o),
(399,144,cs),
(379,93,o),
(335,66,o),
(282,66,cs),
(210,66,o),
(152,108,o),
(143,235,c),
(467,235,ls),
(504,235,o),
(526,279,o),
(526,279,cs)
);
},
{
closed = 1;
nodes = (
(362,465,o),
(405,410,o),
(413,312,c),
(144,312,l),
(156,414,o),
(210,465,o),
(285,465,cs)
);
}
);
width = 562;
}
);
note = emacron;
unicode = 275;
},
{
glyphname = eogonek;
kernLeft = c;
kernRight = ae;
lastChange = "2022-11-29 13:48:59 +0000";
layers = (
{
hints = (
{
horizontal = 1;
place = (-223, 66);
place = (-223, 66);
type = Stem;
},
{
horizontal = 1;
place = (-13, 79);
place = (-13, 79);
type = Stem;
},
{
horizontal = 1;
place = (235, 77);
place = (235, 77);
type = Stem;
},
{
horizontal = 1;
place = (465, 80);
place = (465, 80);
type = Stem;
},
{
place = (29, 115);
place = (29, 115);
type = Stem;
},
{
place = (186, 102);
place = (186, 102);
type = Stem;
},
{
place = (413, 113);
place = (413, 113);
type = Stem;
}
);
layerId = m01;
shapes = (
{
closed = 1;
nodes = (
(526,429,o),
(443,545,o),
(289,545,cs),
(136,545,o),
(29,432,o),
(29,264,cs),
(29,88,o),
(123,-2,o),
(252,-13,c),
(215,-41,o),
(186,-84,o),
(186,-138,cs),
(186,-201,o),
(226,-223,o),
(284,-223,cs),
(319,-223,o),
(349,-215,o),
(377,-200,cs),
(385,-195,o),
(391,-187,o),
(391,-177,cs),
(391,-160,o),
(373,-148,o),
(357,-153,cs),
(348,-156,o),
(340,-157,o),
(332,-157,cs),
(305,-157,o),
(288,-144,o),
(288,-107,cs),
(288,-58,o),
(316,-20,o),
(351,-5,c),
(357,-4,o),
(363,-2,o),
(370,0,cs),
(422,17,o),
(466,50,o),
(493,102,cs),
(497,110,o),
(499,117,o),
(499,126,cs),
(499,155,o),
(476,178,o),
(447,178,cs),
(425,178,o),
(405,164,o),
(398,144,cs),
(379,93,o),
(335,66,o),
(282,66,cs),
(210,66,o),
(152,108,o),
(143,235,c),
(467,235,ls),
(504,235,o),
(526,279,o),
(526,279,cs)
);
},
{
closed = 1;
nodes = (
(362,465,o),
(405,410,o),
(413,312,c),
(144,312,l),
(156,414,o),
(210,465,o),
(285,465,cs)
);
}
);
width = 562;
}
);
note = eogonek;
unicode = 281;
},
{
glyphname = f;
lastChange = "2022-11-29 13:48:59 +0000";
layers = (
{
hints = (
{
horizontal = 1;
place = (0, 21);
target = up;
type = BottomGhost;
},
{
horizontal = 1;
place = (450, 77);
place = (450, 77);
type = Stem;
},
{
horizontal = 1;
place = (669.75, 78.25);
place = (669.75, 78.25);
type = Stem;
},
{
place = (78, 109);
place = (78, 109);
type = Stem;
}
);
layerId = m01;
shapes = (
{
closed = 1;
nodes = (
(195,653,o),
(223,670,o),
(269,670,cs),
(292,670,o),
(311,688,o),
(311,711,cs),
(311,733,o),
(293,751,o),
(272,753,cs),
(263,754,o),
(254,754,o),
(244,754,cs),
(144,754,o),
(89,706,o),
(80,624,cs),
(78,606,o),
(78,580,o),
(78,561,cs),
(78,527,l),
(54,527,ls),
(33,527,o),
(16,510,o),
(16,489,cs),
(16,467,o),
(33,450,o),
(54,450,cs),
(78,450,l),
(78,49,ls),
(78,19,o),
(102,-6,o),
(133,-6,cs),
(163,-6,o),
(187,19,o),
(187,49,cs),
(187,450,l),
(263,450,ls),
(284,450,o),
(302,467,o),
(302,489,cs),
(302,510,o),
(284,527,o),
(263,527,cs),
(187,527,l),
(187,567,ls),
(187,582,o),
(188,604,o),
(190,618,cs)
);
}
);
width = 312;
}
);
note = f;
unicode = 102;
},
{
glyphname = g;
kernLeft = c;
lastChange = "2022-11-29 13:48:59 +0000";
layers = (
{
hints = (
{
horizontal = 1;
place = (-213, 83);
place = (-213, 83);
type = Stem;
},
{
horizontal = 1;
place = (-9, 80);
place = (-9, 80);
type = Stem;
},
{
horizontal = 1;
place = (531, -20);
target = down;
type = TopGhost;
},
{
place = (29, 116);
place = (29, 116);
type = Stem;
},
{
place = (447, 110);
place = (447, 110);
type = Stem;
},
{
horizontal = 1;
place = (465, 80);
place = (465, 80);
type = Stem;
},
{
place = (45, 108);
place = (45, 108);
type = Stem;
}
);
layerId = m01;
shapes = (
{
closed = 1;
nodes = (
(557,482,ls),
(557,512,o),
(532,537,o),
(502,537,cs),
(472,537,o),
(447,512,o),
(447,482,cs),
(447,459,l),
(430,486,ls),
(417,506,o),
(405,519,o),
(380,529,cs),
(352,539,o),
(316,545,o),
(286,545,cs),
(149,545,o),
(29,453,o),
(29,259,cs),
(29,103,o),
(118,-9,o),
(271,-9,cs),
(309,-9,o),
(347,-1,o),
(376,12,cs),
(400,24,o),
(413,39,o),
(428,61,cs),
(447,89,l),
(447,78,ls),
(447,59,o),
(447,40,o),
(446,17,cs),
(442,-78,o),
(387,-130,o),
(291,-130,cs),
(228,-130,o),
(184,-107,o),
(164,-70,cs),
(151,-45,o),
(148,-22,o),
(122,-13,cs),
(116,-11,o),
(109,-10,o),
(103,-10,cs),
(92,-10,o),
(81,-12,o),
(71,-16,cs),
(49,-24,o),
(44,-48,o),
(53,-78,cs),
(79,-165,o),
(157,-213,o),
(290,-213,cs),
(450,-213,o),
(550,-132,o),
(556,29,cs),
(557,58,o),
(557,99,o),
(557,132,cs)
);
},
{
closed = 1;
nodes = (
(198,71,o),
(145,154,o),
(145,269,cs),
(145,401,o),
(211,465,o),
(298,465,cs),
(369,465,o),
(447,417,o),
(447,288,cs),
(447,265,ls),
(447,123,o),
(376,71,o),
(293,71,cs)
);
}
);
width = 629;
}
);
note = g;
unicode = 103;
},
